<svg width="116" height="89" fill="none" xmlns="http://www.w3.org/2000/svg"><path d="M48.5 26.6c-13.6-6.7-22.6 10.5-22.2 25.3.4 15.9 11.5 32.3 19.6 35.1 0 0 7.2 1.6 12.4-4.5 0 0 3.4 5.1 8.2 5 4.8-.1 19.6-9.7 24.4-21.4 4.8-11.7 7.6-27.2.4-36-7.2-8.8-11.8-11.2-17.8-8.5-6.1 2.7-16.3 10.6-16.3 10.6l-8.7-5.6z" fill="#F45D48"/><path d="M63 6.6c-.2.7.4 3.2.3 3.8 0 .6-.2 3.8-.2 3.7 1.1.1 2.2.3 3.4.4 1.1-1.1-.7-5.1-.7-5.6-.2-2 .1-3.4-1.7-5.2-.9 1.1-.9 1.8-1.1 2.9z" fill="#222525"/><path d="M114.7 51.4c-.1-.5-.6-.9-1-1.3-.3-.4-.8-.7-1.2-1-1.1-.8-2.3-1.5-3.6-2.1-1.3-.6-2.6-1.2-3.9-1.7-.8-.3-1.9-.7-2.8-.5 1.8 2.9 5.2 2.9 7.1 4.9-1.2-.4-2.3.2-3.6.2-1 0-2.2-.7-3.4-.6-1.4.1-4.8.4-5.2 1.3 0-1.9.4-3.4.3-5.5 0-.6-1-4.7-1-4.7.1-.2.6.1.5-.2-1.2-4.9-3.4-10.5-7.3-14.3-2-1.9-4.9-3.6-7.5-4.6-1.4-.5-8.2-2-8.8 0 0-.2-4.9 1.2-5.6 1.5-1.9.9-4 2.5-5.7 3.8 0-.1.9-1.2.3-1.2 0 0 .6.3.6.2.9-2.5 2.4-5.3 3-8.3.3-1.7-.1-5.1-2.9-2.9-.6.5-.4 4.1-.9 4.4-.7.4-3 6-2.8 6.5 0-.1 0-.1 0 0-.1-.3-.5.2-.5.4 0-.2.1-.5.2-.7-.2.4.1-.2-.1.1 0-.1.1-.1.1-.2 0 0-.6.1-.7.2.2-.5.9-.4-.2-.8.8.3-.5-5.6-.7-6.4 0-.2-1.2-5.6-2.1-3.2 0-.1.6.9-.4.5-.4-.1 1.1-1.6 1.2-1.4-.2-.6-.8-1-1-1.8-.2-.7.6-2-.4-2-.3 0 .3-.5.1-.5-.4-.1-.7.1-1-.1 0 0 .5 0 .5-.1-.2-1.7-1.9-5.1-4.3-6.8-1.3-.9-3.6-1.9-5.2-1.8-1.2.1-7.4 3-4.3 3.9-.3.7-.6-.1-.9-.1.3 0-1.2 1.8-1.2 1.8-.2 1.2.9 1.7.9 2.1-.1.7-.7.8-.8 1.6.2 0 .3.1.4.2-2.1 1.2 1.3 6.4 2.3 7.9.5.7 1 1.6 2 2.6.2.2 1.2 0 1.5.4.4.4.2 1.1.7 1.7-5.5-2.4-13.7-1.8-18.5 3 .1 0 1.2 1 .8 1-3.2 0-4.4 3.3-5.8 5.8-.2.4-1.1 2.1-1.3 3-.3 1.1.1 1.9.1 2.8 0-.6-2.2 3.6-1.3 2.7.2.6-.6 3-.7 3.8 0 1-.1 1.7 0 2.7 0 .6-.4 1.4-.3 1.6.1.5.3-.1.6 0 .5.3-1.5.5-1.7.5h.1c-1.7 0-3.3.5-5 .5-1.3 0-2.5-1.9-4.2-3.2C6 45.3 3.8 42.9.6 42.9c1.2 2.5 3.4 3.3 5.3 4.7.1.1 3.6 3.9 4 3.6-.1.1-.2.2-.1.2-.1 0-.6.1-.7 0 0 .1.1.1.2.1h-.2c-.1 0-1.6 1.6-2 2.1-.9 1.1-1 1.2-2 2.1C3.5 57.1 2 58.2.9 60.5c3.7 0 7.5-3.7 9.8-5.9 1.1-1.1 1.6-2.5 3.3-2 .6.2 1.4.6 2 .5.5-.1 1.3-.6 1.1-1.1.2.7 1.2 1 1.6.3.1 1.6.4 3.5.8 5.3.2.6 1.7 3.9 1.6 4 0 .1-.7.1-.5.3 1.7 3.4 3.2 6.9 5.6 10.3.7 1 1.4 2.2 2.3 3.2 1.2 1.5 4.9 4 4.5.1-.1-1.3-2.8-3.4-3.5-4.6-1.1-1.7-1.8-2.8-2.9-4.8-1.8-3.2-3.1-6.3-4-10-.6-2.4-.7-4.9-.8-7.4 0-1.3.2-4.9-.4-5.6.4.4 1.3-3.4 1.5-4.2.5-1.6 1-3.1 1.7-4.7.8-2 4-4.9 2.8-6.5-.1 0-1.1 1.2-1.1.2 0-.9 2.2-.1 2.2-.1.9-.9.6-1.2 1.9-1.8.9-.5 3.2-.6 3.5-1.3-.2.4 1.4-1 1.3-.9.3-.1-.1.4-.1.4.8.3 3.8-.2 5.3.2 2.2.5 4.6 1.3 6.6 2.3 2.5 1.2 4 2.5 6.1 4.1 1.4 1.1 3.6 2.7 5.4 2.5 1-.1 4.3-2.5 2.3-3.2.8-.8.5 0 1 .2.1 0 3.8-2.7 4.1-2.9.4-.3 0-1 .5-1.4.1-.1 2.6-.7 2.2-.9 1.6.9 6.2-1.4 8.9-1.2 2 .1 3.2.2 4.5.7 1.4.5 3.5 2.8 4.5.2-2.5 1.8 3 6.2 4 7.8 1.7 2.8 3.1 6 3.5 9.2.3 2.9 1.5 7.4-.6 8.6-2.5 1.4-4.9-1.1-7.7 1.6 3 1.5 5.9-.2 8.5.5 0 1.8-1.5 5.3-.7 6.5-.1-.1-3.1 6.2-3.6 7.2-.4.8-4.8 6.1-4.6 6.6.2.4.3.7.7 1.2 0 0 1-1.3 1-.3s-2.1.2-2.2.4c-.7.9-.8 1.7-1.7 2.5-.8.7-2.8 1.5-2.7 2.4 0-.4-.7 1.5-.7 1.5-.1.3-.1-.5-.1-.4-1.2.5-2.9 2.4-4.5 3.1-2 1-4.3 2.3-6.5 2.6-2.9.5-4.4-.2-6.5-2-1.5-1.2-3.1-4.1-5.3-2.7-.7.5-1.8 2.8-.7 3-.8-.1-.3.1-1-.2.5.2-2.4 1.2-2.3 1.2 0 0-2.6 2-2.1 2-.3 0-2.9-.9-2.7-.5-.4-1.4-6.2-3.4-8-4.8-.8-.6-1.9-1.3-2.5-1.8-.6-.5-.7-.9-1.2-1.4-2.1-1.9-2.2-2.9-4.8-.6 2.1 1.1 7.6 9.8 10.4 8.1-.5.2 3.2 1.6 3.6 1.8 1.9.5 3.6 1 5.6.7 1.4-.2 8-3.4 7.1-4.7 7.5 11.3 23.4.2 28.5-8.3-.1 0-1.3-.8-.9-.9 3-.4 4.2-3.2 5.8-5.6.3-.4 1.3-1.9 1.6-2.8.5-1.1.1-1.9.3-2.8-.1.6 2.5-3.3 1.7-2.5-.2-.6 1.4-3.3 1.6-4.2.1-.5-.1-4.1.7-3.9-.2 0-.3 0-.5.1-.9-.8 3.1.1 2.2.1 1.4 0 3-.1 4.5-.4.7-.1 1.3-.6 1.7-.6.6 0 1.3.5 1.9.4.9-.1 2.3-.9 3.3-.7-.5-.1-1.4 1.4-1.6 1.6-.8.7-.9.5-1.9 1.2-1.5 1-2.9 1.9-3.9 3.7 3.1.6 4.4-1.3 6.6-2.4 1.4-.7 2.7-1.3 4-2.2.6-.4 1.3-.9 1.5-1.6-.5-.2-.5-.4-.6-.7zM65 17.2c.5.4-.6.1 0 0zm-.4.2s.7 0 .6.2c-.2.4-.9-.2-.6-.2zm-36 56.4c-.7 0 .1-.7 0 0zM28 73c.8-.7.6.5.2.5-.2 0-.4-.3-.2-.5zm-2.2-44.3c-.3.9.1-.6 0 0zm31.1.8c-.1.1-.5.6 0 0zM55 15.7c.3-.3-.5.3 0 0zM41.4 3.8c.8.6-.8-.5 0 0zm.1 13.8c-.1 0-.8.1-.4-.3.3-.1.7.3.4.3zm13.9 11c-.6-1.3-2.5-1.5-3.1-2.3.2-.2.4-.2.6-.1-.8-1.6-2.5-2.3-3.7-3.2-1-.8-2.1-1.7-3.2-3.2-.6-.8-3.8-6.7-4.6-6.6-.1 0-.7-4.4-.5-5.2.3-1.5 1.2-3 2.2-3.5 1.7-1 3.2-.6 4.5.1.9.5 3.6 2.9 3.6 2.9-.5 1.2 1.9 5.5 2.5 7.1.1 0 1.3-.4 1.2-.3-1.4 1.4-.9 3.6 0 4.8 0 0 .1 1.6.2 1.9.2.8.8.7 1 1.2-.1-.1-.9 1.4-.7 1.8 0 .2.5-.1.5 0-.7 1.6 1.2 4.6 1.1 5.2-.3.8-1.4.2-1.6-.6zm4 2.6c-1-.3.2-.8 0 0zm21-7.8c-.1.1-.7.5-.7 0 .1-.4 1-.3.7 0zm9.4 4.1c.6 0-.1.6 0 0zm.7.8c-.8.8-.6-.5-.3-.5.2 0 .4.3.3.5zM37.4 80.5c-.1.1-.7 0-.7-.2 0-.4 1-.2.7.2zM57 83c-.5-.8-.1-.2 0 0zm30.2-10.3c-.8-.2 1.5.1 0 0z" fill="#222525"/><path d="M33.6 76.7c0 1.9-3 1.9-3 0 0-1.8 3-1.8 3 0zM66.6 14.6c0 1.5-3.9 1.5-3.9 0 0-1.6 3.9-1.6 3.9 0z" fill="#222525"/></svg>