<?xml version="1.0" encoding="UTF-8"?>
<svg width="25px" height="25px" viewBox="0 0 25 25" version="1.1" xmlns="http://www.w3.org/2000/svg" xmlns:xlink="http://www.w3.org/1999/xlink">
    <!-- Generator: Sketch 64 (93537) - https://sketch.com -->
    <title>Group 5</title>
    <desc>Created with Sketch.</desc>
    <g id="Page-1" stroke="none" stroke-width="1" fill="none" fill-rule="evenodd">
        <g id="Group-5">
            <path d="M12.4984006,9.45575618 C13.5595963,9.45575618 14.4198781,8.63051091 14.4198781,7.61249348 C14.4198781,6.59449431 13.5595963,5.76923077 12.4984006,5.76923077 C11.4371668,5.76923077 10.5769231,6.59449431 10.5769231,7.61249348 C10.5769231,8.63051091 11.4371668,9.45575618 12.4984006,9.45575618" id="Fill-1" fill="#387E7F"></path>
            <path d="M13.8269136,10.2400415 L11.1698496,10.2400415 C10.8992669,10.2400415 10.6799791,10.4504579 10.6799791,10.7099898 L10.6799791,18.7549486 C10.6799791,19.0144987 10.8992669,19.2248969 11.1698496,19.2248969 L13.8269136,19.2248969 C14.0974962,19.2248969 14.3168222,19.0144987 14.3168222,18.7549486 L14.3168222,10.7099898 C14.3168222,10.4504579 14.0974962,10.2400415 13.8269136,10.2400415" id="Fill-3" fill="#387E7F"></path>
            <circle id="Oval" stroke="#387E7F" stroke-width="2" cx="12.5" cy="12.5" r="11.5"></circle>
        </g>
    </g>
</svg>