<svg viewBox="0 0 253.95 124.64" xmlns="http://www.w3.org/2000/svg"><path d="m485.43 328.4a.94.94 0 0 0 -1.11-.88h-1v3h.53v-1.25h.39l.7 1.25h.65l-.81-1.31a.79.79 0 0 0 .65-.81zm-1.62.43v-.83h.49a.48.48 0 0 1 .59.41.53.53 0 0 1 -.65.44h-.43zm.5-2.45a2.64 2.64 0 1 0 2.69 2.62 2.65 2.65 0 0 0 -2.69-2.62zm0 4.89a2.24 2.24 0 1 1 2.24-2.24 2.25 2.25 0 0 1 -2.24 2.24z" fill="#0077c5" transform="translate(-269.02 -243.68)"/><path d="m305 295.27h9v36h-9zm38.09-1.05a12.26 12.26 0 0 0 -11.15 6.78h-.15v-5.77h-8.55v36h9v-19.8c0-4.8 2.7-9.75 8.4-9.75s6.75 5.33 6.75 9.6v20h9v-22.5c0-7.36-3.9-14.56-13.27-14.56zm77.46 20.85c0 4.8-2.7 9.75-8.4 9.75s-6.75-5.32-6.75-9.6v-20h-9v22.5c0 7.35 3.9 14.55 13.28 14.55a12.25 12.25 0 0 0 11.17-6.83h.15v5.78h8.55v-36h-9v19.8zm18.21 16.2h9v-36h-9zm-77.81-28h10.09v28h9v-28h10.09v-8h-29.13v8zm14.59-12.67a5.44 5.44 0 1 0 -5.44-5.44 5.44 5.44 0 0 0 5.47 5.4zm78.53 4.69v8h10.09v28h9v-28h10.09v-8h-29.15zm14.59-4.69a5.44 5.44 0 1 0 -5.44-5.44 5.44 5.44 0 0 0 5.47 5.4z" fill="#0077c5" transform="translate(-269.02 -243.68)"/><path d="m0 0h253.95v124.64h-253.95z" fill="none"/></svg>