<svg fill="none" height="381" width="408" xmlns="http://www.w3.org/2000/svg"><g fill="#fff"><path d="m312.6 180.3c-.2.1-2.3-.6-2.3-.6-1-.2-2.1-.3-3.1-.4h-.2c-.3-.1-.6-.1-.9-.1 0 0-.2 0-.3.1-1.8.1-3.5.4-5.2.8l-.6.3c-.1-.1-.3-.2-.4-.4-.9-1-2.1-1.1-3.1-.6-3.2-2.7-9.4-.2-7.7 4.7.9 2.6 2 5.1 4.3 6.7 1.4 1 2.9 1.4 4.7 1.6 1.5.1 1-.2 1.8 1.1 1.8 2.7 5 4 8 2.6 2.7-1.3 3.8-3.9 4.7-6.5 1.1-1.7 2.3-3.4 3.8-4.9 2.4-2.4-.7-5.6-3.5-4.4zm19.1-96.5c-.5-2.4-3.5-4.1-5.8-3.3-2.6.8-3.9 3.2-3.3 5.8.1.4.1.5.1.5v2.2c0 .2-.1.4-.1.6-.1.6-.3 1.2-.5 1.7-.8 2.3 1 5.3 3.3 5.8 2.7.6 4.9-.8 5.8-3.3 1.1-3.2 1.1-6.7.5-10zm-28.1-37c-7.5-.1-10.6 9.8-7.6 15.6 1.5 2.9 4.2 4 6.8 3.8 3.1 1.1 6.4-.7 7.9-3.6 2.8-5.6.4-15.6-7.1-15.8z"/><path d="m362.3 70.4c-2.6-6.5-9.5-3.7-14.1-1.4-5 2.5-9.6 5.7-13.7 9.5-1.6-6.3-9.2-11.4-14.2-5.1-2.5 3.2-3.1 7.4-3.2 11.3 0 1.1-.1 2.2-.2 3.2-.4-.7-.9-1.4-1.3-2.1-2.1-3.1-5.1-6.2-9.2-4.4-6.3 2.8-3.2 10.6-.2 16.9-2.7-1.7-7.4-.4-7.6 3.9-.2 4.6.7 9.2.9 13.8.2 5.1-.7 10.2-.6 15.4.1 4.7.5 9.5 1.2 14.1.5 3.4 1.6 6.2 4.7 8.1 1 .6 2 .8 3 .6 1.2 1.6 3.3 2.5 5.2 1.9.8-.2 1.6-.7 2.3-1.2.3.4.6.9 1 1.2 2.3 2.1 5.8 1.7 7.4-.9 1.4.2 2.8-.2 3.8-1.3 4.6-5.1 8.9-10.6 11.8-16.8 2.9-6.1 5.1-12.2 8.9-17.7 3.3-4.9 7.6-10.1 8.5-16.1.2-1.5.3-3-.3-4.4-.2-.6-.5-1-.9-1.5.6-.9 2-3.6 2.2-4 .7-1.4 1.3-2.8 1.9-4.2 2.1-5.2 5-13.2 2.7-18.8zm-36 17.6c0-1.3-.1-2.8 0-4.1.5.6 1.2 1.2 1.9 1.5-.6.9-1.3 1.7-1.9 2.6zm-73.9 66.9c-2.3-5.2-4.7-10.3-7.3-15.3-4.2-8-9.3-18.4-17.4-23.3-9.7-5.8-21.5 3.7-31.4-.8-.4-.2-.8-.3-1.1-.4-.1-.1-.2-.2-.2-.3-.3-.8-.7-1.7-1-2.2-.4-.6-.8-1.1-1.2-1.6-.2-.4-.3-.7-.5-1.1-1.1-2.6-3.5-3-5.5-2-3.7-.3-7.5 1.2-11.2.4-3.2-.7-5.8 1.4-6 4.6-.1 1.9.3 3.2.7 5l-.1.1c-.5.4-1 1-1.3 1.5s-.5 1.1-.6 1.8c0 1-.3.9-1-.1-1.8.4-3.9.2-5.7.6-5.4 1.3-10 5.1-11.1 10.4-4.7 7-6.5 15.7-9 24.4-.9 2.9 3.7 4.2 4.6 1.3.5-1.6.9-3.1 1.3-4.7 1.7 1.3 4.1 1.6 5.9-.5.5-.6 1.1-1.2 1.7-1.8.4 12.6 3.1 24.7 8.1 36.3 1.1 2.6 4.2 2.7 6.3 1.7.2.8.5 1.6.8 2.4 1.4 4 6.3 4.5 8.7 1.1.4-.6.7-1.2 1-1.8 1-.5 1.9-1.3 2.4-2.3.2.5.4 1 .7 1.5 1.4 3.2 3.1 6.2 6 8.5 2.8 2.2 7.4-.7 7.2-4.1.9.2 1.8 0 2.7-.3 2.4 1.6 5.9 1.1 7-2.5 0-.2.1-.4.1-.5 1.2 3.3 5.9 3.8 8.1 1.4 2.7.6 5.7-.8 5.5-4.4-.1-3.6-.4-7.2-.9-10.8-.3-4.8-.3-9.5-.3-14.3.8-4.4 1.9-8.8 3.4-13.1 2.5 3.7 5 7.5 7.3 11.4 5.3 8.6 14.1 19.2 9.2 29.8-2.1 4.7 3.4 9.9 7.5 5.8 3.2-3.3 5-7.3 6.2-11.7 1.3-4.7 3.5-9.5 4.2-14.3.5-6-1.7-11-3.8-15.8zm-53.3-87.3c-3.5-3.2-7.3-4.8-11.4-5.4-2.2-1.1-5.1-1.3-8.4 0-4.7 1.8-4.5 9.7 1.3 9.3 1.2-.1 2.3-.1 3.4-.1 1.8 1.4.2 7.2-2.3 8.4-5.5 2.6-.7 10.8 4.8 8.2 4.8-2.2 7.2-7.1 7.6-12.2 2.5 2.4 4.9 5.6 4.9 8.9 0 6.1 9.5 6.1 9.5 0-.1-6.8-4.6-12.7-9.4-17.1z"/><path d="m159.6 191.8c-6 6.6-13.2 12-21.6 15.3-3.7 1.5-9.3 4-13.2 2.2-4.1-1.9-6-7.3-7.8-11.1-2.5-5.6-10.6-.8-8.2 4.8 2.3 5.3 5 10.5 9.9 13.8 5.5 3.6 11.5 2.8 17.4 1 11.6-3.6 22-10.3 30.1-19.2 4.2-4.6-2.5-11.3-6.6-6.8z"/></g><path d="m205.5 86.4c.2-1.6-.8-3.6-1.5-5-2-4.6-5.4-8.2-9.7-10.8-.2-.1-.3-.2-.5-.2-.3 1.8-.8 3.5-1.5 5.1.2.3.4.5.6.8-.4.7-.7 1.5-1 2.4-.5.2-.9.5-1.2 1.1-1.7 3.5-6.5 7.2-11 8-1.9-.1-3.7-.4-5.4-.7h-.7c-.8-.6-1.5-1.2-2.3-1.8-.6-.5-1.3-.5-1.8-.3-1.4-1.1-4.2.2-3.9 2.6.5 3.5 3.1 5.3 6.5 5.4.2 0 .4 0 .6-.1.6.8 1.1 1.7 1.4 2.7.6 1.9.3 4.1.7 6.1s1 5.1 3 6.1c2.5 1.3 5.2 0 6.3-2.2 1.5.5 2.9.7 4.4.8.5.5 1.1.9 1.8.9 4.3 0 8.1-1.7 10.8-5 1.6-2 2.6-4.4 3.1-7 .4-1.9-.3-4.9.1-6.3.1-.7 1.1-1.5 1.2-2.6zm53 73.8c-.7-1.2-2.8-1.7-3.7-.5-2.1 2.5-4.3 4.4-7.1 6-1.8 1.4-3.7 2.4-5.9 2.4 3.1 8.1 3.1 18.4-2.7 25-5 5.7-9.7 10.7-13.7 17.2-3 3.4-5.8 7-8.4 10.7-2.3 3.3-6 6.9-5.8 11.2.1 1.8 2.7 3.4 4.1 1.7.2-.3.5-.6.8-.9 0 .1.1.3.2.4-.2.9.1 1.8 1.1 2.3 1.7.8 4.3 2.6 6.4 2.1 3.7 1.4 5.6-2.5 4.5-5.5.6-1.3 1.3-2.4 2.2-3.4.2-.1.3-.1.5-.2 3.7-2.3 7.2-4.8 10.5-7.7.8.3 1.7.2 2.3-.6 3.6-3.8 6.9-7.9 10.1-12.1.5 0 1-.3 1.4-.7 5.1-6.3 9.5-13.3 10.5-21.5 1.2-9.6-2.7-17.8-7.3-25.9zm-97.5 20.4c-4.9.6-15.4 2.1-20.1-1.6.3-.8.7-1.6 1-2.4 1.2-2.8-2.9-5.2-4.1-2.4l-.9 2.1c-.8.1-1.6.7-1.8 1.7-.4 1.8-.8 3.6-1.3 5.4-2.8 1.4-7 .1-8.8-2.3-1.6-2.2-3-5-3.8-7.6-.3-1-1-1.5-1.8-1.6 0-.2-.1-.4-.2-.6-3.2-7.1-6.6-14.2-12.8-19.2-2.5-2-5.1-3.6-8-4.8-2.4-1-4.7-1.6-6.6-3.5-1.2-1.2-2-2.1-3.5-2.9-2.4-1.3-4.7 1.7-2.9 3.7.6.7 5.2 5.1 4.9 5.8.2-.5-5.8-1.2-6.4-1.4-2.8-.8-6.2-3.9-9.3-3.3-2 .3-3.2 1.9-3.5 3.8-.2 1.2 0 2.4.5 3.6.2.6.6 1.1 1 1.6.1.2 1 1.3 1.5 1.7-.2.6-.5 1.8-.5 2.4-.1 1.3.2 2.7.8 3.9 1.2 2.6 3.7 4.2 6.3 5.2 4.6 1.7 9.5 1.4 12.5 6 1.3 1.9 2.1 4 3 6.1-.1.5 0 .9.3 1.4 3.6 7.2 7.8 14.2 12.8 20.4 4.6 5.7 10.6 8.5 17.6 10.4 13.9 3.8 28.1-2.7 33.9-15.9.6-1.4-.2-2.8-1.2-3.3 1.2-3 2.4-6.1 3.6-9.1.6-1.7-.7-3.5-2.2-3.3zm-46.6 176.5c-6.1-1.4-12.4-5.9-17.2-9.8-2.7-2.2-4.8-3.6-7.4-.5-1.3 1.5-1.6 2.8-1.2 3.9-1.5.5-2.5 2.5-1 3.9 1.8 1.7 3.7 3.1 5.7 4.4.3 2.2 3.2 3.8 5.3 4.4.3.1.5.1.8.1 2.7 1.8 5.8 3.4 8.5 3.7 4.5.5 6-3.3 8-6.6.7-1.3 0-3.2-1.5-3.5z" fill="#f8e2df"/><path d="m238.1 266.8c-.9-11.8-2.6-23.8-4.6-35 0-.3 0-.5-.2-.8-.2-1.3-.5-2.6-.7-3.9-.4.6-.8 1.3-1.2 2-.1.2-.2.3-.3.4-.8 0-1.7.4-2 1.2-.8 1.8-1.2 3.7-1 5.6-1 .4-2.1.5-3.1 0-.8-.4-1.3-.9-1.7-1.6-.7.4-3 1.5-4.6.4-2.2-1.5-1.6-3.6-2.2-4.4-.3.2-.6 1.1-.8 1.4-1 2.2-4.4 2.2-4.6-1.9-.1-3.7 2.8-7.5 4.6-10.4 3.2-4.9 7.4-9.1 11.8-12.8.2-.2.5-.4.8-.5-3.1-13-5.9-22.3-7.2-25 0 0-8.9 7.8-57 5 0 0-57.9 128.8-58.8 129.5s-11.1 33 5.6 38.6l6.5 3.7 68.8-104.1s1.1 26 5.2 37.7 8 15.2 13 16.9c5 1.8 36.7-3.2 33.7-42z" fill="#88d8d8"/><path d="m176.5 64.6c-7.5 1.4-10.2 10.6-9.7 17.2.2 2.5 3.3 2.9 4.4 1.4 1.3 1.5 3.2 2.6 5 3.3 7 3 12.8-3.5 13-10.3 0-6.7-5.8-13-12.7-11.6zm33.3 11c-.4-1-.8-2-1.3-2.9 0-.5-.2-1.1-.6-1.7-.3-.4-.7-.7-1-1.1-2-2.8-4.6-5.2-7.7-7.1-.6-.3-1.1-.4-1.6-.3-1.2-2.1-5.1-.9-4.3 1.9.6 2.1 1.3 5.3 3.9 5l.6.6c.7.5 1.4.4 2.2.7 1.2.4 2.5 1.6 3.5 2.7.7 1.1 1.3 2.2 1.8 3.4 1 2.9 5.6 1.7 4.5-1.2zm3.6 28.2c-.7-1.8-1.5-3.6-2.2-5.4-.6-3-2.2-5.6-3.5-8.3-1.3-2.8-5.4-.3-4.1 2.4.2.3.3.6.5 1v.1c.3 3.8-1.3 6.9-3.1 10.1-.2.3-.3.6-.3.9-.1.1-.1.2-.2.3-.6.1-1.2.6-1.6 1.1-.2.2-.3.5-.4.8-.4.2-.8.4-1.1.8-.4-.2-1-.3-1.5-.2-.2 0-.3.1-.5.1-1.7.3-2 2.2-1.4 3.5.7 1.6 2.5 3 4.4 3.6 1.6 1.7 3.9 2.4 5.9.6h.2c.5 0 .8-.1 1.2-.2 1.3.4 2.7.2 3.9-1.1.6 0 1.2-.3 1.8-.8.2 0 .3-.1.5-.1 1.2.3 2.5-.1 3.2-1.3 1.5-2.2-.8-5.8-1.7-7.9zm-38.8 1.2c.8-5.3-2.8-9.9-6.5-13.1-.8-.7-1.9-.9-2.9-.4-1.9.9-2.5 3.5-3.4 5.2-.7 1.2-1.4 2.4-2.1 3.5-.8 0-1.5.3-2 1.1-4.7 7.5-13.6 10.5-20.8 15.2-.8.5-1.1 1.2-1.1 2-.3.3-.6.7-.8 1-6.9 4.8-10.2 12.8-11.6 21.3-.2 1.3.5 2.2 1.4 2.7.1 1.6.7 3.1 2 4.1.7.5 1.7.4 2.4 0 .3-.2.6-.4.8-.6.4 1.5 1.2 2.7 2.7 3.3.4.2.8.2 1.1.2.2 1.3.5 2.5 1.1 3.5.6.9 1.6 1.3 2.7 1.1 2.9-.6 3.9-4.6 4.4-7.4.4-.3.7-.7.8-1.3 2-8.6 4.3-17.6 12.7-22 3.4-1.8 7.3-2.2 10.8-3.9 1.7-.8 2.5-1.4 2.8-3.3.2-1.7-.3-3.6-.3-5.3 0-2.7-.2-2.1 2.1-2.9.2-.1.5-.2.7-.3.3.2.8.4 1.3.4 2.5 0 3.1-2.8 1.7-4.1zm105.8 159c-1.8-5.3-6.8-6.2-11.8-5.7-2.2.2-2.8 2.7-1.8 4v.2c-.3 7.5-.6 15.1-1 22.6-.2 3.5-.3 7.1-.5 10.6-.1 2.7-1 7-.2 9.5.4 1.3 1.6 1.9 2.9 1.7 2.4-.5 4.4.3 6.8-.9 1.9-1 2.8-2 3.5-4 2.3-6.1 2.6-13.6 2.8-20 .3-5.7 1.2-12.4-.7-18zm98.1-252.1c-.1-2-2.6-3.2-4.1-1.7-1.7 1.7-3.9 5.4-6 2.7-1-1.3-1.2-4.6-1.6-6.2-.4-1.7-2.8-2.3-4-1-1.3 1.3-2.2 3.2-3.8 4.1-.7.4-1.1.5-1.5.5.1-.1.1-.2.2-.3h-.2c-1.3.1-2.4-1.1-2.4-2.4v-.1c0-.2.1-.5.1-.7-.2-.3-.4-.7-.6-1-5.1 8.5-11.7 24.2-3.1 31.9.4.4.8.5 1.3.6 5.2 4.3 13.8 3.3 19.1-.9 7.2-5.7 6.9-17.3 6.6-25.5z" fill="#f45d48"/><path d="m346.8 179.8c34.9-7.4 20.4-52.9 20.4-52.9s-9.9-15.6-10.5-18.3c-.1-.6-16.2 22.2-17.6 30.8-.1.5-11.4 14.5-11.4 14.5s-15.1.9-24-3.7c0 0-6.1 1.7-10.9 7.6 0 0 16.9 22.5 43 23.2-.1.3-.2.7-.2 1.1-1.9.2-3.9.3-5.5 0-.8-.1-1.4 0-1.9.4-1 .2-2 .9-2.1 2.2-.4 4.9-.4 9.801.2 14.701.3 2.8.5 6.199 2.8 8.199s5.7 2.001 9.2 1.301c.5.5 1.3.8 2.2.5.5-.2 1-.3 1.5-.5 4.4-1.6 10.1-3.601 12.2-7.801.3-.2.6-.5.9-.8 1.5-2.2 1.1-4.4.9-7-.3-4.1-.4-8.2-.3-12.3 0-1.5-1.6-2.8-3-2.3-3.4 1.1-6.8 1.9-10.4 2.4h-.1c-.3-.1-.7-.2-1-.3 1.8-.3 3.7-.6 5.6-1z" fill="#2badad"/><path d="m283 89.4c-7.1 4-26.6 48.1-15.6 76.6 0 0-1.9 33.7-1.2 36s10.1 4.5 12.2.5 3.3-26.4 3.3-26.4 16.7 4.7 21 3.8.3-3.5.3-3.5-14.1-10.1-14.8-12 5.2-44.3 5.4-49 2.4-31.8 2.4-31.8z" fill="#2badad"/><path d="m345.1 139c-.5-2.2-3.2-2.1-4.3-.6-1 1.3-2 2.7-3 4h-.4c-1 0-1.8.6-2.2 1.4-.7-.5-1.7-.6-2.5-.2.3-1 .6-2 .8-3 .7-3.1-3.4-4-4.6-1.3l-5 12.1c-1 2.4 2.1 3.6 3.8 2.3.2.1.4.2.7.3 1.3.3 2.5 0 3.5-.7.3.2.6.3 1 .3 8.2.6 14-6.7 12.2-14.6zm-48 13.9c1.2-.9 2.5-1.6 3.9-2 .4-1.3-.3-3-2.2-3.1-6.3-.5-4.2-7.3-6.8-11.1-.7-1-1.7-1.3-2.7-1-.3-.6-.7-1.2-1.1-1.7-.9-1.1-3.1-.9-3.7.5-2.8 6.3-1.3 13.7 0 20.2.1.6.4 1.1.8 1.4.1 1.1.2 2.1.3 3.2.3 3 5 3.1 4.8 0l-.1-.7.1-.1c1.4-3 3.7-4.9 6.7-5.6zm35.201-94.7c-2.5-1.5-4.501 1.4-7.101.2-3.7-1.7-4.499-6.8-5.799-10-2.1-5.2-7.801-5.2-12.701-4.6-2 .2-3.599 3.4-1.199 4.4 1.2.5 2.2 1.4 3 2.6 1-.5 2.3-.4 3 .9 2.6 4.7-.001 13.2-5.801 13.9-3.1.4-6.3-1.6-7.1-4.6-.6-2.2.001-4.6.901-6.7-.1-1 .299-2.2 1.599-2.6.1 0 .101-.1.201-.1h.1c.4-1.2.6-2.2.5-3.1-.6-3.3-4.7-3.4-6.9-1.9-1.9 1.4-3 4-3.6 6.9-.1.1-.101.2-.201.3-.9 1.7-1.8 3.5-2.6 5.2-1.5-.5-3.699.7-3.199 2.9.5 2.4 2.299 3.7 4.699 4.3 2.2.5 3.201.2 4.201 2.5.7 1.6.799 3.2 1.799 4.7 1.5 2.3 3.801 4.2 6.401 5.1 2.1.7 4.199.7 6.199 1.8 2.2 1.2 3.501 3.2 4.801 5.3 1.5 2.3 4.8.8 4.3-1.8-.2-1.3-.4-2.6-.3-3.9 2.2-3.5 4.7-6.7 7.4-9.8 4.4 0 12.7-8.7 7.4-11.9z" fill="#a34942"/><path d="m133.9 134.3c.2-.8.1-1.6 0-2.4-2.4 1-2.7 3.4-3.4 5.3-.4 1.1-2.4 4.3-2.6 5.3-.7 2.3.3 4.6.5 6.2.3 2.2 0 3.8 2.1 5.6 1.4-2.3.3-4.2.2-6 0-.9.1-2 .2-3.1 0-.2.4-2 .4-2.1-2-1 2-6.9 2.6-8.8zm57.3-49.1c.1.1.5.2.7.2-.2 0 .1-.2.1 0-.1 0-.6-.1-.6-.1s.3.1.3.2c-.2-.1-.4.4-.5.5 0-.1.4.1 0 .1h.4c-.1.1-.1 0-.2.1h.2c-.2.2 0 .1 0 .1 0 1.2 2 1.8 1.7 1-.1 0 .5.6.5.5.2-.2-.1-.3 0-.7 0 0 .5.4.3.1.8.8 1-1 .8-1 .4 0 .3-.1.2-.4 1.4 0-3-3.8-2.7-1.6 0-.8-1.3.9-1.2 1zm2 2.1c0-.2 0-.2 0 0zm1.7-1c.5.3-.3 0 0 0zm209.8 289.2c-.2.1.1 0 0 0zm-30.7-30.3s.1.2 0 0zm-30.8 30.1c0-.1-.1 0 0 0zm-49.4-233.6c-.1.4-.3-1.8-.2-1.2-.1-.3.2-2-.8-2-.1 0 .6-.4.6-.4-.2.3-1-.7-1.1-.7 1 0 .8-1.8.8-2.1 0 .5-.5-1.7.2-1.2-1-.7-1.1-2.4-2.3-.6-.3.5-.3 1.6.3 1.9-1.1-.5-2.2 6.1-.1 5.2-1.1.4.9 4.6 2.6 1.1zm-4.7 2.1c.5-.5-.2-.8.2-1.3-.5.7-.7-1.9-.5-1.3-.1-.5-.1-2.3-1-2.4.1-.3.4-.4.5-.6 0-.1-.6-3.2-.6-3.6 0-1.4-.1-2-1.3-3.6-1 .8-1.5 3.5-.4 3.9-1.3-.5-1.3 7.9.6 6.6-1.3.9.7 4.1 2.5 2.3zm56.5-7.7c-.1-.1.5-2-.8-2.2-1.1-.1-.7 1.1-1.1 1.7-.2.5-.9 1.6-.2 2.2-.6-.6-2.2 3.2-2 3-.2-.1-.5-.3-.7-.4-.2 0-2 3.2-1 3.5-1.4-.5-2.4 1.9-2.7 3.2 1.8.9 3.4-.4 4.2-1.4.6-.7.9-1.3 1.4-2.2 0-.1 1-1.4 1-1.4-.2-.4 0-.8-.3-1.3.9.3 1.6-2.3 1.8-2.7-.1.1.4-2 .4-2zm-45-77.8c-1 .5.6 2.7.7 2.9.7.8 2.8 1.6 3.5 1.5.1-.4.6-.9.6-1.2 0 1.4 2.5-.5 2.6-.6-.3.3.7-1.8.9-1.3-1.1-2.1-3.2-1.3-2.3.2-.2-.4-1.7 0-1.7 0 0-.1-.1-.6-.1-.6 0-.1-1.5-.1-1.8.5.6-1-.9-2.1-2.4-1.4zm2.5 15c.2-.2 1.9.8 2.4-.2-1 1.7 9.8.5 7.8-1.2 1.4 1.2 3.2-1.7 3.4-2.9-1.9-.5-3 .2-4.1.7-.2.1-3 .9-2.6 1.6 0-.1-.8-.4-.8-.5 0 .2.1.4.1.6-.3 0-.4-.2-.8.5-.5-.9-2.4-.4-3.1-.6-1.1-.3-2.8-.4-4.3.7.1.5 1.2 2 2 1.3zm-46.2 130.9c.2-.4-2.4 2.4-2 2.4-.1-.1-.3-.2-.4-.2.2.2-5.6 7.3-5.3 7.3-.5 0-.8-.2-.4.6-.2-.5-6.3 3.9-3.7 4.5l.5.3c-.1-.1-1.7-.6-1.4-.8-.5.5-.2.5-.8 1-.1.1-1.8.1-1 .6-.1-.1-.2-.2-.3-.2.1.2.4.6.4.9 0-.2-.3-.3-.5-.3l.2.4c-.6.1-.2.1-.4.2-.1.1-1.3-.1-1.3-.1-1 .5-2.2 1.8-3.4 2.6-.5.3-1.1.4-1.7 1.1-1.5 1.6-.1.4-.7 2.2-.1.2-.6-.7-.7-.6 0 .2-.1.4-.2.6-.1 0-.9-.5-1-.3-.3.6-.3.8.1 1.6-.1 0-.6-.3-.6-.4-.1.1-.7.3-.5.5-1-1-1.1-.3-2.2.5-.2.1-3.4 3.5-1.5 3.2-.8.1-1.2 1.9-.2 2.3-.9-.5-.9 2.5-.9 2.6 0 .4.3 4.2 2.3 2.6.7-.5-.1-2.7-.6-2.9.3.1 1.2-2.4 1.3-2.5-.1-.1.2-1.6.2-1.8.5-.3.8-.9.6-1.5.2.8.9-.2.9-.5.3.3.1 0 .2 0 0 0 .1 2.2.1 2.1.3 1.3.9 2.7.7 3.7 0 .2.2.2.4.1 0-.1.1 4 .4 3.7-.8.8.4 4.3.6 5.7.1.8 1.4 5.7 1.4 5.7-.2.5-.8.6.3.8-.9-.2.2 9.2 1.7 7.2 0 0-.4-.7.5-.3.2.1-1.4 1.2-1.4.9.1.6.3.9.4 1.5 0 .1-.8 2 .1 1.5-.2 0-.3.1-.3.3.3.1.7 0 1 .2-.2-.2-.4.2-.5.3 0 .1.5 0 .5 0-.2.6 0 .4 0 .5 0 .2-.6 1.2-.6 1.4.2 1.6 1.3 3.6 2 5.3.3.7.5 1.6 1.1 2.5 1.5 2.3 1.2.4 2.6 1.3.3.2-.7.7-.5.7.9.5.4 2.5 2.3 1.4.1.1-.1.6-.2.8.1.1.5.8.7.5-1.4 2.2 4.7 4.1 4.7 4.2 0 1.7 1.4.8 2.3 1.4.6.4 1.6 1.7 2.5 2.2 1 .8 2.5 1.4 4.2.6-.4-1.2-2.7-2.9-3.6-2.2.3-.2-2.3-2.7-2.3-2.9-.1 0-2.2-1.1-2.2-1.1-.5-.5-1.8-2.2-2.6-1.6 0 0-10.1-11.8-7.8-13.4 0 0-.5-.1-.6-.1.5-.6-.1-4.6-.6-5.6-.2.1-1.2 0-1.3.1 1.7-.8 1.5-2.5.8-3.5.1.3.1-1.4 0-1.4-.1-.9-.5-.3-.9-.9.2.3.9-1 .8-1.4 0-.1-.4 0-.5 0 .4-.6-.6-3.2-.8-3.1.2-.1.5-.2.7-.4-.1-.2-.4.1-.6 0 .9.1-.4-5.4-.7-5.3 0 0 .6-.1.6-.2-.1-.1-1.5-12.4-3.1-11.5 1.6-1-.8-2.3-.6-3 .1-.4 2.5-1.7 2.6-1.8.6-.4 5.4-4 5.7-3.8 0 0-.1-.5-.2-.5.6.3 2.1-.9 1.7-1.2.2.2 2-1.3 2-1.5-.2-.2-.6-.9-.8-1 1.3 1 2.8.1 2.8-1 0 .7 1-.7 1-.6.6-.6-.1-.2.1-1.2-.1.2 1.2.3 1.4 0l-.3-.4c1 0-.1.1.4-.4-.1.1 2.1-1.4 1.1-1.6.2.1.5.3.7.4.1-.2-.4-.3-.4-.4.6.7 3.2-2.9 2.9-3.1l.5.4c.7-.7 4-3.8 3.8-5.4.5 0 2.5-2.5 1-2.9 1 .2 1.3-1 1.3-1.7-.1-2.2-.9-1-2.4-1 .8 0-1 1.7-.7 1.2-.1 1.1-.6 2.4-.9 2.9zm-28.6 27c.3-.6-1 .3 0 0zm20.6 50.7c.5-.9-.3.6 0 0zm-6.6-8.2c.8-.6-.6.7 0 0zm-4.3-15.5c.5-.1-.7.2 0 0zm-2.2-20.5c-.5.2-.4-.1 0 0zm-.1.4c-.1.1-.8 0-.5-.1.2-.1.9-.3.5.1zm-.3-11.5c-.7-.6-.2-.2 0 0zm10.4-7.7c-.5-.5.4.3 0 0zm11.7-11.9c.4.6-.6-.2 0 0zm-.2.1c1 .4-1-.4 0 0zm-37.9 17.8c-1.6-2.1-3 .8-2.3 1.6-.8-1-4.2 5.4-1.9 5.1-1.1 0-.8 1.4-.5 1.9 1 1.8 1.3.4 2.6 0-.7.3.1-1.8.1-1.2 0-.1.8-2.3-.1-2.3.1 0 .7-.3.7-.3-.8-.9.3-2 .7-2.6-.4.5.3-1.8.7-1-.3-.5.4-.6 0-1.2zm5.3 3c-1.8-2.2-2.9 1.099-2.2 1.699-1-.8-3.6 5.901-1.2 5.301-1.1.2-.6 1.5-.2 2 1.3 1.5 1.4.2 2.5-.5-.7.5-.1-1.801-.1-1.101 0-.1.4-2.099-.5-2.099.1 0 .7-.401.7-.401-.2 0-.4-.099-.5-.099.5-.4.7-2 .9-2.5-.2.6.1-1.8.6-1-.2-.6.4-.8 0-1.3zm-14.9-153.6c-.9-1.8-1-4.3-2-6.1-.8-1.5-2.8-3.7-4-4.5-1.4.8-4.1-1.9-5.9-2.2-2.1-.4-5.5-1.5-7.4.9 2.2 1 4.4.3 6.5.8 1.6.4 3.7 2.2 4.7 3.2 1.3 1.2 3.8 2.9 4.4 3.9 1 1.8 1.1 3.8 2.6 5.7.3 0 1.3-1.3 1.1-1.7z" fill="#222525"/><path d="m121.4 144.7c.2.2-.1 1.7.9 1.5-.9.3-.8 2.9-.1 3.3 2.2 1.2 2.4-2 2.4-2.9 0-.6.5-2.4-.5-2.8.9.6 1-3.9 1.1-3.9.9-.3 1.2-3.6 1.6-4.8.2-.6 1.6-5.1 1.4-5 .4-.2.9 0 .2-.8.2.3 5.5-5.9 3-5.9-.1 0 .2.2-.5-.2.1 0 1.8.2 1.6.5.5-.8.1-.5.8-1.2.1-.1 1.9-.4 1-.9.1.1.2.1.4.1-.1-.2-.4-.6-.4-.8 0 .2.4.3.5.3l-.3-.4c.5-.1.3-.2.4-.2.2-.1 1.3 0 1.4-.1 1.1-.6 2.4-2.2 3.7-3.1.5-.4 1.3-.6 2-1.2.4-.3 1-.5 1.3-.8s-.5-1.3-.4-1.5c.2-.3.6.6.6.6.1.1.3-.6.4-.6s.9.5 1.1.3c.3-.7.4-.8 0-1.7.2-.1.5.2.7.3-.5-.5 1.1 0 .5-.5 1.5 1.5 4.8-3 4.8-3 1.2.6 1.2-.5 1.6-1.1.3-.5 2.2-1.4 3.1-2.1.5-.5 3.1-3.2.7-3.7-.8-.2-2.3 2.3-2.1 2.7-.3-.7-5 2.7-4.8 2.7-.6 0-2.5 1-2.2 1.8 0 0-12.9 8.3-12.7 8.4 0 0 .1.5.2.5-.9-.3-3.5 2.5-4.1 3.6.2.1.8.8.9.9-1.7-.3-2.9.3-2.9 1.8 0-.6-1 1-.9 1-.5.8.2.4.2 1.3 0-.3-1.3.1-1.5.5 0 .1.4.2.4.3-.8.3-1.1 2.8-1 2.8-.3-.1-.5-.1-.8-.1 0 .2.4.2.5.2-.8-.6-2.2 4.7-1.8 4.7-.1 0-.6-.2-.6-.1-.3.6-3.3 8.3-1.8 9.3zm28.8-35.4c-.3.1.9.3 0 0zm-8.4 4.5c.6.6.1.1 0 0zm-11.4 9.7c.6.3-.4-.3 0 0zm-7.9 17c.1 0 .7.2.4.2-.1 0-.9 0-.4-.2zm0 .3c.5.2-.7.1 0 0zm15.4 14.9c.4-.5-.4-3.1-.5-3.3-.2-.7-.4-1.4-.5-2.4 0-.4.2-1.4.1-1.7.6.4-3.1-2.1-1-1 1-.3 1-2.6 1.1-3.3.3-1.3.9-2.9-.3-4.6-1.2.8-2.5 3.7-1.4 4.7-1.5-1-2.3 9.7-.3 8.3-1.5 1.2 1 3.8 2.2 4.3.2-.2.3-.6.6-1zm56.9-58.1c.4.4-1 0-.6-.1-.3.2-2.6.2-2.6 1 0-.1-.6-.7-.6-.7-.3.6-.7.5-.9.9.3-.7-2.2-1.7-2.4-1.9-1.3-.8-1.9-1-4-1.4 0 1.3 2.1 3.8 3.4 3.1-2.1 1.5 9.7 3.9 7.5 1.2 1.4 1.4 3.3-1.3 3.6-2.6-.3 0-4-.1-3.4.5zm-125.6 51.7c.8-.4 2.4 3.3 3.8 2.5-1.3.7 8.1 6.5 7.8 4.1.4 1.8 3.9 1.1 5.1.4-1.2-1.7-2.6-2.2-4.1-2.5-.8-.3-1.7-.3-2.6-.7.1 0-2-.8-1.6-.9-1 1.1-3.1-1.2-4-2.1-1.3-.9-2.3-1.9-4.5-1.9.1.5.1.8.1 1.1zm11.4 13.4s2.9 0 3.8-.6c-1.2-1.6-2-1.9-3.3-2.2-.6-.2-3.3-1.2-3.4-1.2l-.3.6c-.1 0-.5-.1-.9 0 .1-1.1-1.8-1.6-2.3-2-1.3-.9-1.9-1-4-1 .2 1.2 2.3 3.4 3.4 2.6-.7.5 2.7 2.3 2.9 2.3l-.3.6c.1.5 4.1 1.4 3.9.2.1.1.5.7.5.7z" fill="#222525"/><path d="m407.4 374.7c-.6-.1-1.1-1.7-1.1-1.8-.5-.5-1.4-1.9-2.4-1.4-.1.1 0-.8-.1-.8 0 0-2.8-1.9-2.8-1.6.1-.2.1-.3.2-.5.2-.1-9.2-3.6-9-3.1-.3-.3-.1-1-.7-.1.6-.8-7-3.2-5.8-.9 0 0 .6-.2.1.5-.1.1-.5-1.7-.2-1.6-.6-.1-.6.1-1.3-.1-.1-.1-1.1-1.4-1.1-.4 0-.1 0-.3-.1-.4-.2.2-.2.6-.5.8 0-.4.2-.2 0-.6 0 0-.2.4-.2.5-.3-.4-.3-.1-.4-.2-.1 0-.7-1.1-.7-1.1-.8-.6-2.9-.6-4.2-1-.5-.1-1-.6-1.9-.7-.3 0-.9-.4-1.2-.5-.3 0-.7 1.2-.9 1.2-.3 0 .2-.9.1-.9-.2.1-.4.2-.6.2-.1-.1-.1-1-.2-1-.6.2-.7.1-1.3.9-.1-.1-.1-.5 0-.7 0 .6-.3-.3-.3-.4-.1.1-.2.2-.3.2.4-1.1-3.4-3.5-3.6-2.9.1-.2.2-.5.3-.6-.5.7-2.7-3-2.8-3.2.3.5-1.4-1.4-.5-1.2-.1 0-.4.1-.5 0 1.6-.1 2-1.2 3.1-1.4.6-.1 1.7.2 2.4.1 1.6-.2 4-1 5.5-1.5 4.9-1.8 2.8-7.2 2.4-11.3-.4-4.4-1.2-8.7-1.8-13.1-.4-2.7-.5-5.6-.9-8.3-.2-1.4-.7-5.4-1.6-6.1.2.1-.6-7.9-.8-9.3-.1-.8-.3-8.7-1-9-.3-.1-.7-.3-1.3-.4-.2.3.4.8 0 1.1 0 0 .9-8.9-.2-9.6.2.1-.3-1.9-.8-1.7.2-.1.3.2.4.2.3-1-.4-4.6-.4-6.1-.1-2.8-.4-5.5-.8-8.2-.4-2.9-.7-5.5-.9-8.3-.1-1.2-.8-9.9-2.7-8.5-.3-1.3.3-.5.7-.8.3-.2-.4-5.2-.5-5.7-.1-.6-.9-.6-1.1-1.2 0-.1.3-3-.1-2.7 1.7-1.4-.3-9.4-.8-12-.7-3.7-1.7-6.8-2.4-10.4-.3-1.5-.3-4.1-.5-5.9-.3-2.2-.4-4.2-.7-6.6-.1-.8-.4-1.5-.5-2.4 0-.5-.7-1.3-.7-1.7 0-.2.7-.8.7-1.1 0-.2 0-3.5-.4-3.1 0 0 .6 0 .6-.1-.1-.3-1-14.6-2.2-13.9 1.6-1-.4-2.5-.3-3.3.4-2 3.9-3.4 5.7-4.9 2.5-2.2 4.9-4.9 6.7-7.6.6-1 4.4-9.9 2.1-9 .2-1.3.5-.4.9-.5.6-.2 1.2-5.5 1.1-6-.1-.7-.9-.6-.9-1.4 0-.2.6-3 .3-2.8 1.9-1.6-.1-8.8-.8-11.5-.3-1.2-.9-2.6-1.3-3.6-.1-.3-.5-1.6-.6-1.9-.7-1.5-1.5-5.1-3.5-3.4.4-.2.9-.4 1.3-.6-.1-.7-1.1-2.4-1.4-3.3-.4-1.2-1.4-3.1-2-4.1-1.5-2.7-3.2-5.5-4.9-8.2-1.1-1.6-1.3-.8-1.1-2.6.1-1 1.4-3 1.8-4.1.6-1.6 1.9-3.1 1.3-4.9-.3-.8-3-1.5-2.8-1.2 0-.2.2-.3.3-.4-.1.2-7.5.9-8.4 1.1-.3.1-5.5 1.1-5.5 1.5 0 .1-.2 1.4.2 1.4-.1 0 1.1-.7.6.3-.2.6-1.8-1-1.8-1-.8.3-1.5 1.1-2.4 1.3s-2.5-.3-2.7.7c.1-.5-.9 1.1-.9 1.1-.1.2 0-.4 0-.4-.6 0-.9.7-1.3 1-.5.2-2.9 1-3.5.9.9-1.1 7.2-8.5 4.9-9 .5-.9.6 0 .9 0 .3.1 2.7-3.1 2.9-3.4.3-.5-.5-.8-.1-1.3 0 0 2-1.3 1.5-1.4 1.7.4 3.8-3.5 5.1-5.1 2-2.4 3-4.1 4.5-6.1.6-.9.8-1.7 1.4-2.4s1.8-1.3 2.6-2.3c.9-1.1 1.3-2.5 2.1-3.4 1-1.2 2.3-1.8 2.9-3.1-.1.2.2 0 .2.1-.2.8-.1 0 .1.6-.4.4-.1.1 0 .5 0 0-.1.7-.1.9.2 0 .4.1.6 0-.2 0-.4.1-.5.2 0 0 .8 3.5.7 3.5-.4.2 0 1.6-.5 1.8.5-.1-.4 2.2.3 2.1-.2 0-.2.2-.4.2.1 0 .4.2.5.1-.6.1-.7 1.2-.3 1.2-.3 0-.9 1.9.9 1.7-1.9 0-1.1.6-1.3.7-.3.2-.2.2-.5.2.3.1 0 .3-.1.4.1.1.3.1.4.1-.3-.3-.5.8-.6.8-.2 0 1 .8.9.5-.1-.1-1.1 0-1.1.3l.4.1c-.1 0-.4.1-.4.1l.3.3c0-.1-1 1.4 0 1.2-.3-.1-.5-.1-.8-.1.1.2.4.1.5.2-.8-.3-.8.7-.5.8-.6-.1-.5 1.2-.8 1.2.1 0 .2.3.3.3l-.6-.2c.1.1.2.1.3.2-.1-.2-.9.9-.5 1-.6-.1-3.2 3.3-1.8 4.1-.8-.4-1.1.2-1 .8.2 1.5 1 1.2 2 1.5-.2-.1.1-.8.2-1 .1.1.3.1.4.2.1-.1 1.2-1.1.7-1.6 0 0 2.1-1.8 1.6-1.9.1.1.3.1.4.2-.2-.2.6-1.3.4-1.8.3.8 1.9-4.8 1.3-4.1 0 0 .4-.2.5-.1 0-.2-.1-.4-.5-.4 1.3.7.8-2.6.7-2.6.5-.5 1.1-1.7-.7-1.2h-.5c.2 0 1.6-.3 1.6-.1 0 .1-.9-.4-.6-.5.7-.3.6-.4 1.2-.9l-.4-.1c.1 0 .2 0 .3-.1-.3-.1-.6-.1-.9-.3.3 0 .3.1.5 0-.1 0-.4-.1-.5-.1.4-.4.1-.2.1-.3s1-.5 1-.5c.2-.5 0-1.9.1-2.8 0-.3.4-.6.2-1.3-.4-.9-1.1-.5-1.4-1.2 0-.1.9-.2.9-.2-.2-.1-.3-.2-.4-.3.1-.1.9-.4.8-.5-.4-.4-.5-.4-1.4-.4 0-.1.5-.2.6-.3-.7 0 0-.2.1-.3h-.3c1.7-.3.4-3.4-.3-3.1.1 0 .6-.3.7-.3-.2 0-.7-.5-.3-.8-.7.3-1.7.2-2.5.4 0-.5.3-1.9.4-2.5-.5.2-1.1.3-1.5.7 0-3.6-3.2 0-4.1-.6-.1-.2-.1-.3-.2-.5-.1.5-5.2 1.8-5.9 2-1 .3-5 3-5.2 3-.5 0-.9-.5-.7.5-.1-1-.9.4-1.3.2 1.7-.8 3.9-4.8 4.6-6.2.7-1.3 1.6-2.9 2.9-4.5 1.9-2.4 2.8-5.2 4-7.7 1.4-2.8 3.7-5.4 3-8.8 2.2.5 5 .8 7.3.5 1-.1 9.7-3.4 7.1-4.4 1.1-.9.6.1 1.1.2 1 .3 4.1-4.3 4.4-5 .2-.5-.1-1.2.2-1.8.1-.2 1.1-2.5 1-2.4 4.2-1 1.5-14.3 1.2-17.1-.2-1.7.5-7.8-3.2-7-.7.1-6.4 5.2-6.4 6 0 .5-.1-.3-.1-.4 0 .8-.7-2.2-.8-2.5-.6-1.6-1.7-6.2-3.2-6.8-2.5-1-4.1 2.2-5.4 3.8-.2.2-3.1 3.1-2.9 3.4-2.1-3.2-4.7-10.9-8.3-6.7-2 2.4-3.2 5.6-4.4 8.4-.3.6-3 6.6-2.5 7.2.3.3.5.6 1.1.9 0 0 .5-1.9.9-.8.3.5-1.3 1.2-1.3 1.3-.1.4 0 1.5-.2 2.4-.3 1.6-2.1 5.2-.6 6.3 0 0 .4 2.2 1 1.8-.2.1-.3-.1-.4-.2-.2 1.6 2.4 6.1 3.8 7.6 2.6 2.7 6.2 4.1 9.8 5.1-1.6 1.7-2.6 5.6-3.4 7.7-.9 2.5-2 3.9-3.6 6.2-3.1 4.6-6.3 8.6-9.8 13 0-1.8.8-2.5 1.1-3.7-1.1-.9.7-4.7 1-6.3.3-1.7 1.8-4.6 1.2-6.8.3-.2.3.9.4.8.1-.2.2-.3.4-.4.1 0 .7.8.8.6.4-.6.5-.6.2-1.6.2 0 .5.3.6.4-.5-.5.6-.1.5-.1-.1-.1-.1-.2-.1-.3 1.8 2.2 3.5-3.8 2.7-3.7.1 0 .8-.1.8-.2-.4-.4-.1-.9-.2-1.4.7-.8-.5-2.9-.4-3 .7-1.1-2.2-3.1-3.2-3.6-.7-.3-1.4-.5-2.3-.6-.3 0-3.3.4-2.5.8 0 0-.6-.2-.5-.3-.2.1-.3.3-.1.7-.2-2.1-6.8 5.3-2.9 4.3h.5c-.2 0-1.7.3-1.6 0 .2-.6 0 1.7 0 .9 0 0-1 1.9-.1 1.5-.2 0-.3.1-.3.2.3.1.7 0 .9.1-.3 0-.4 0-.5.2h.5c-.2.5 0 .3 0 .4s-.6 1.1-.5 1.2c.6 2.3 4.1 2.7 4.8 4.4.2.4-.5 4.7-.6 5.2-.3 1.2-1.6 4.5-2.2 5.6-.2-.1-.3-.1-.5-.2-1.3 1-1 5.6-1.3 6.4-.6 1.7-1.2 3.3-1.9 5-.3 0 .1-.6.2-.6-.1-.1-1.2-2.5-1.9-1.7 1.2-1.3-2.1-2.5-2-3 .1-.8-1-.6-1-1.2s1.7-1.6 1.8-1.6c1.6-1.3 2.9-2.6 3.4-4.5.1-.4.4-2.9.1-3.9-.9-2.8-3.1-2.4-5.6-3 1.2-4.6 3.4-8.9 4.7-13.5.7-2.3 1.3-4.5 1.1-7-.1-.6-.3-1.3-.5-1.9.1.2-1.1-3.4-1.3-2.2.1-.1.3-.1.4 0 1-1-4.6-3.8-5-4.2-1.4-1.8-.5-4.7-3.4-5.7-2.6-.9-8.5 2.9-7.4 5.2-.3 0-.6-1.6-.7-1.7-.3-.3-1.6-.8-2-1.1-1.2-1-3.2-4.3-5.6-3.9.1.1.1.2.1.3.1 0-2.8 0-2.5.6-.1-.2.2-.4.3-.5-1 0-2 1.3-2.5 2-.1.2-1.3 2.5-1.2 2.5-.2-.1-.3-.2-.5-.3.1.2.1.4.1.6-1.5-2-6.5-2.4-8.8-1.8-1.3.4-2.5 1-3.2 2.1-.6 1 .2 3.7 0 4.1-.1.1.1.3-.1.4-1.4 1.2-3.7 1.5-5.1 3.6-1 1.4-2.4 3.6-1.4 5.4.2.4 1.8 1.6 2 1 1.1 1.1 0 .8 0 1.2 0-.4 2.4 1.8 1.8 1.5-1.5-.6.5 3.8.4 3.6 0 0 2.5 1.6 2.3 1.6.1.7-1 1.5 0 2.1-.4-.2-1.6 1.9-1.9 2 .2.2-.6 1.3-.6 1.7-.5.3-1.6 1.3-1.1 2-.3-.3-5 3.4-5.1 4.4-.6 4 5.2 4.7 5.1 6.2 0 0 .4-.4.3-.5.2 1 2.5 1 2.8.7-.3.2 1 .3 1.5-.3-.4.3-1.5 1.1-1.4 1.1 0 0 .4 1.5.5 1.6-.5-.5 0 1.3 0 1.2.2.9.2 0 1 .7-.2-.2-.9 1-.7 1.3 0 .1.4-.2.4-.1-.2.7 1.3 2.6 1.5 2.3-.2.2-.4.4-.5.6.2.1.4-.2.5-.3-1.3.6 3.1 3.6 3.1 3.4 0 0-.4.5-.3.5.3 0 5.6 1.9 6 2.4.6.7-1 5.5-.4 7.8.3 1 1.9 8.6 2.8 8.6.8 0-3.7-1.9-2.6-1.1-1.3.9-2.7.1-3.9 2.2-.6 1 0 1.1-.3 2.2-.1.6-.8 1.8-.8 1.8 0 .4.4 0 .6.1-.8-.5-.8 10.6-.8 10.7s-.7-.1-.6.1c1.2 4.7-.2 11.1.2 16.2.2 2.4.8 5.9 1 7.8.3 2.8-.1 5 1.3 7.8 2.4-3 .9-6.8 1-9.8s-.1-5 0-8.1c.4-6.3-.1-12.3.1-18.9.1-3.2 1.4-7.8 1.2-9.8 0 .3 5.4 1.7 6.4 2.1.4.2 5.4 3.1 5.6 3 .1-.1 1.2-.7.9-1.1.1.1-1.3-.4-.2-.7.7-.2.5 2.1.5 2 .9.5 1.6.4 2.4 1.1.8.6 1.7 2.3 2.5 2-.5.2 1.5.2 1.4.2.2 0-.4.2-.4.2-.1-.1 3.4 3 3.6 3-.4.9-7.5 5.2-4.6 6.3-.6.8-.5 0-.9-.2.4.2-1.9 1.6-1.9 1.6-.2.3-.7 2.8-.5 2.6-.1.1-2.4 1.4-1.8 1.6-1.7-.2-3.8 3.9-4.9 5.7-.9 1.4-.6 2.8-1.1 3.8-.3.7-1.5 1.2-1.8 2.5-.2 1.1-.3 1.6-.7 2.5-.4 1-1.3 2.4-1.6 3.4-.4 1.2-2.8 6.1-1.8 7.4-.5.2-1.2-.4-1.7.2.4-.7-3.3-2.4-3.2-2.4-1.3.6-2.9-.1-1.4 1.9.4.5 1.6 1 2.2.5-.4.4 1.4 1.7 1.7 1.6-.3.9-4.4 2.5-5.7 3.2 0 0-6.1 4.4-4.1 4.9-1-.2-2.3 1.6-2.3 2.5-.9-1.5-1.6-3.2-2.2-4.8-.4-1.2-.7-2.5-1.1-3.7-.3-.8-1.4-2.4-1.6-3-.2-1.2.4-3.3.2-4.6-.3-2.1-.6-4.2-.9-6.4-2.6 3.9-1.9 8.5-1.3 12.8.3 2 1.2 3.8 1.8 5.7.4 1.2.4 2.8 1 4.2 3.3 7.8 10.2 14.5 18.2 17.8 2.3 1 5 1.7 7.5 2.4 1.9.5 5.2.5 6.4.9l.2.2c-2.5 1.4-4.6 7.1-6.1 9.4s-2.6 5.2-4.5 5.4c-8.5 1.1-4.1-10.9-4.2-15.9.9.5 2.3-.3 3-.6-3.8-1.9-7-1.3-10.6-2-3.3-.6-5.4-.9-8.5-1.8-6.3-1.9-12.6-4.5-17.7-9.2-1.7-1.5-2.9-3.6-4-5.4-.6-1-2.1-4-2.8-4.3.1 0-1-6.7-1.2-7.8-.1-.8.2-7.4-.2-7.6s-.6-.4-1.3-.5c0 0 0 1.6-.7.8-.6-.8 1.5-1.4 1.5-1.5 0-1.2-.4-1.9-.1-3.2.2-1.1 1.4-2.5.7-3.2.3.3-.4-1.6-.4-1.5-.1-.2.4.3.4.3.2-.2 1.2-3.8 1.4-4.6.7-2.1 1.3-4.5 1.9-6.7.8-2.5 1.8-4.7 2.8-7 .4-1 4.1-7.5 1.8-7.5.3-1.1.6-.2 1-.2.3 0 2.4-3.9 2.5-4.3.2-.5-.5-.8-.2-1.4 0-.1 2-1.8 1.4-1.8 1.8.2 8.9-11.3 11-9.3.3.3.1 4.8.1 4.9.1 1.5-.3 4.2.7 5.3-.2.1-.4.1-.6.2-.8 2 3.2 4.5 3.8 5.1 1.6 1.4 1.9 2.5 4.4 2.3-.2 2.9.4 4.8-.1 7.4-.5 2.5-.2 5.7.7 8.3 2.3-3.5 1.5-6.9 2.1-10.4.5-3.1.6-6.9.7-9.2 0-.9 0-1.9.1-3 .2-1.6.6-3.7.6-5.3 0-3.2 1.8-7.6 0-10.9 2.3-1 4-.5 5.7-3.1-2.8-.3-5.5.9-8 1.7-2.2.8-4.8 1.5-7.4 2.3-1.7.6-13.1 5-11.9 8.1.1.2-5.8 8.1-6.5 9.3-2.2 4.1-4.5 9.1-6.1 13.1-3 7.6-5.1 15.7-5.1 24.1.1 0 1.5-.1 1.3.1-1.9 1.9-1.9 5.5-.9 7.7.2.6-.2 2.3.1 3.1.3 1 .9 1.6 1.2 2.2-.2-.6-.4 4.1 0 2.9.4.4.8 3.2 1.1 3.9.3.6 2.5 3.4 1.8 3.7.1-.1.3-.2.3-.4-.6 0 3.8 5.3 4 5.8.3 1.3-1 2.9.3 3.7-.3-.2-1.3 3.7-1.4 3.8.2.2.1 2.4.1 2.7-.2.7-1 3.1.1 3.5.1 0-.8 12.3-1.1 12.6-.5.4.8 5.2.1 5.6-.1 0 .5.2.6.2-2.4 2.4 3.6 3.7 4.8 4.1-1.5 4.8-.7 10.3-.8 15.2-.1 4.5-.7 9.8-1 14.5-.6 7.5-1.5 17.5-1.7 25.4-.5 21.6-2.6 42.8-3.8 64.1-.3 4.4-.5 8.8-.7 13.6-.3 4.8-2.3 12 4 13.2-.5-1.4.3-.8.8-.6s.6 1 .9 1.2c.9.3 2.6.2 3.2.7-.6.3-.7 1.5-.4 1.9-.2-.2-2.2 1.3-2.3 1.3 0 .1-1.3 1.3-1.1 1.3-.6 0-2 .7-1.7 1.5 0 0-7.6 2.8-8.2 2.3-.3-.2-3.4 1.5-3.7 1 0 0-.1.5 0 .5-.4-.5-2.2 0-2 .4-.1-.3-2.2.4-2.4.5.1.2.2 1.1.3 1.2-1.1-1.1-2.2-1.4-2.9-.2.3-.3-1.1.1-1.1.1-.7.4.1.4-.5 1 .2-.2-1-.8-1.3-.6-.1 0 .2.4.1.4-.9-.4 0 .2-.5.2.1 0-2.4.4-1.6 1-.1-.2-.3-.4-.5-.6-.1.1.2.4.2.5-.2-.9-4.1 1.5-3.8 1.7l-.3-.5c.3-.6-9.2 5.6-7 6.5-1.1-.6-1.5 1-1.4 1.8-1.9-.4-4 .4-5.7.3-2.6-.1-5.4-.2-8.1-.3-2.4-.1-9.2-1.4-11.2.2h.1c-6-.2-11.4.2-17.4.1-5 0-11.5 0-17.2.2-13.5.3-27.5.5-40.7.1-6.4-.2-13-.2-19.8-.2.1.2.2.8.2 1.1 0-.1-2.2-1.1-2.7-1.3 1.1-2.9 4.5-5.9 6.4-8.4.7-.9 3.1-6.6 3.8-6.7.2.1.2.2.2.4.5.2 5.9-8.2 6.4-9.1 1-1.6 2.1-3 3.1-4.4.4-.6 3-3.4 2.8-3.9 0 .1-.4-1.3-.7-1.3 0 0-1.2 1.7-1.2.5 0-.7 1.6-.7 1.8-.9.3-.3.7-1.4 1.3-2.2 1-1.5 4.6-3.3 4.3-5 0 0 1.3-1.7.7-2 .2.1.1.3.1.5 1.4-1.1 2.9-4.2 4.3-5.8 2.1-2.5 3.8-5.1 5.6-7.8 1.9-2.8 3.9-5.4 5.8-8.1.8-1.1 6.1-9 4.1-9 1.1-.4.4-.2 1.1-.2.5 0 3.6-5 3.9-5.5 0 0-.2-1.1-.3-1 .1-.2.6-.6.7-.8s1.7-2.3 1.6-2.3c2.2 0 5-6.2 6.6-8.4 1.2-1.7 2.3-3.8 3.3-5.5.8-1.2 1.7-2.5 2.5-4s1.1-2.5 1.9-3.7c.9-1.4 2.3-2.6 3.4-4.2s1.7-3.6 2.7-5.1c1.1-1.7 2.7-3.1 3.5-4.9.4.9-.6 3.5.7 4 .3.1 1.5 14.2 1.7 15.5.5 3.2.7 5.8 1.2 8.6.2 1.5 2.2 7 2.1 7.4-1.1 2.4 2.7 8.7 4.2 10.7.1-.1 1.1-1 1-.7-.4 2.4 2.3 4.9 4.4 5.3.6.3 1.4 1.3 2.2 1.6s1.7.1 2.2.2c-.7-.2 2.5 2.7 1.9 1.6-.6.4 6 1.9 5.9 1.8.1.1.2.9.3.9.4 0 0-.4.2-.5-.7.7 9.9 2.6 9.9 2.6.1.1-.3.6 0 .6 4.8 0 9.8 2 15 2.4 2.6.2 6.1-.2 8.1-.1 2.7.2 4.6.8 7.5-.3-2.6-2.6-6.3-1.7-9.2-2.1s-4.7-.4-7.5-1c-5.9-1.2-11.6-1.9-17.6-3.1-2.6-.5-8.9-3.7-10.5-2.7.1-.1-6.2-3.6-7.3-4.3-.2-.2-5.3-4.2-4.7-2.2-.1-.2 1.2.8 0 .7-.8 0 .1-2 .2-2-.6-.8-1.1-.7-1.5-1.8-.4-.9-.1-2.6-.9-2.8.5.1-1.1-1-1-.9-.2-.2.5 0 .4 0 .1-.5-.7-1-.8-1.5-.3-1.4 0-2.9-.3-4.6s-.8-3.3-1.2-4.9c-.3-1.7-.9-13.1-3.1-11.8-.3-.9.4-.4.7-.6-.3.2.1-2.5.1-2.5-.1-.4-1.5-2.5-1.5-2.2 0-.2.7-2.8.2-2.4 1.4-.8.4-5.9.3-7.9-.1-1.6-.8-3.1-.9-4.1-.1-.9.1-2.2-.1-3.5-.1-.5-.5-1.4-.5-2.1 0-1.5 0-3.1-.2-4.5-.4-2.6.4-6-2-8.3-1.3 2.9 0 6.1.1 8.5.1 2.6.3 6.4-.1 8.9-.4 3.1-3.7 7.2-5.5 10-2.3 3.7-5.8 7.7-8.3 11.3-1.4 2-7.8 9.6-7 11.6-.2-.4-2.5 3.5-2.8 3.9-1.2 1.8-2.4 3.5-3.7 5.4-2.5 3.6-5 7.5-7.3 11.1-5 7.7-10.2 16.1-15.5 22.9-2.9 3.7-5.2 7.7-7.9 11.8.1 0 1.5.6 1 .8-3.4 1.5-4.8 4.7-6.8 7.7-.4.7-1.7 2-2.4 3-.6 1-.7 2.6-1.1 3.3-.9 2-5.6-.8-7.1-1.5-1.2-.5-2.4-1.2-3.8-1.8-.5-.2-2-1.3-2.1-1.4-1.1-.3-1.3-.1-2.3-.7-.8-.5-2.2-1.7-2.8-2.2-1.6-1.2-4.1-4.2-6.4-4.4.6-2.5 2.8-5.6 3.9-7.8-.1 0-1.6-.3-1.1-.7 3.2-1.8 4.2-5.4 5.6-8.6.3-.7 1.4-2.2 1.9-3.3s.3-2.6.5-3.5c-.1.3 3.1-3.7 2.1-3 0-1 1.9-3.7 2.3-4.6.3-.6 1.6-5.1 2.3-4.7-.2-.1-.3-.1-.5 0-.1-.2 3.2-5.7 3.6-6.5.6-1.2 2.3-7.1 3.1-7.6 1.5-1.1 2.9-5.2 4-7.4 1.7-3.3 3.3-6.5 4.9-9.8 1.5-3.3 2.7-6.4 4.1-9.6.8-1.8 4.9-8.3 4-10 .2.4 1.9-3.8 2.1-4.2.9-2 1.9-3.9 2.9-5.9 2-4 3.8-8.3 5.6-12.3 3.9-8.6 7.9-17.4 11.6-25.5 1.8-4 4.2-8.1 5.5-12.6-.1 0-1.6-.2-1.1-.6 1.5-1.3 2.2-1.5 2.9-3.5.3-.9 1-4.3 1.8-5 .5-.4 1.8.7 2.4-.3-.3.4 2.8 1.4 2.9 1.5.8-.8 4.4 1.6 4.9 0-.1.3 14.1.9 14.1 1l.2-.5c.4.7 4 .6 5 .1 0-.2 0-1.1-.1-1.3.8 1.5 2.1 1.8 3.1.9-.4.4 1.3.1 1.2.1.9-.1.1-.3.8-.9-.2.1.8 1 1.2.9.1 0 0-.5 0-.5 1 .6 0-.1.6-.1-.1 0 2.7-.1 2-.7.1.2.2.5.4.7.2-.1-.1-.4-.1-.6-.1.9 4.7-.4 4.5-.8 0 0 .1.6.2.6 0 0 10.8-2.5 9.5-4.1.5.6 2.3-.2 2-.5.7.6 1 3.1 1.2 4 .2.7.2 1.3.6 2.2.9 1.6.9.3 1.9 1.3.2.2-.8.4-.7.4-.2.1.5.4.5.5s-.7.8-.6.9c.6.4.6.6 1.6.4 0 .2-.3.5-.5.5.4-.4-.2 1 .4.6-1.7.9 1.2 5.2 1.3 5.1-.9.9.8 2.5 1 2.3-.8.7-.1 2.2.1 2.8-.1-.6 1.1 1.8.3 1.5 1.4.5-2.7 5-3 5-.1 0-.4-.5-.5-.3-.9 1.8-4.6 5.2-6 5.9.2-.1 0 .4 0 .4-.2-.4-1.8-.1-1.4.7l-.4-.5c-.1-.1.3 1.6.2 1.7-.1-.4-.2-.7-.2-1.1 0 0-.3.6-.3.7 0-.9-1.7-.4-1.8-.4.6 0-1.3.8-1 0-.4 1-1.7 1.5-.1 2.3.5.3 1.3-.1 1.5-.7-.1.5.9.4 1 .9-1.7 1.4-2.3 4.4-2.9 5.8-1 2.1-2.1 3.7-1.1 6.4 2.7-2.7 3.2-5.4 5-8.4.3-.4 4.2-6.2 5.3-6.3 1.3-.1 2.5-2.4 3.5-3.4 1-1.1 2.5-2.4 3.7-3.6 1.4-1.6 6.4-6.6 5.8-8.2.3.6 4-5.1 4.5-6.1.1-.3 2.5-6.2.5-4.6.1-.1-.1 1.2-.6.2-.3-.4 1.9-.8 1.8-.6.2-.7 0-1.6.3-2.4s1.6-1.7.8-2.3c-.3-.2.5-.3.4-.5-.4-.4-.6-.3-.8-.7-.1-.1.3.2.4.2 1.2-1.6-1.4-11.9-3.7-14.1 3.5-1.5 8.1-1.9 11.3-3.7.9-.5 1.9-1.3 2.7-2 .5-.5.5-1.4.9-1.7.2-.2.9 0 1.2-.3 1.4-1.5 2.9-2.7 3.5-5-3 .5-3.9 2.2-5.8 3.6-.9.7-1.8 1.3-2.9 2-.4.2-1.8.9-2.1 1.1.2 1.3-4.6 3.1-5.9 3.5-.3.1-4 .9-3.9.9-.7-.4-1.5-4.6-3.1-2.6-.6-.6.3-.6.5-.8.7-1-2.9-3.8-2.9-3.1 0-.1-.3-2.5-.6-2 .8-1.3-1.7-4.4-2.8-6-.8-1.2-2.1-1.8-2.6-2.4-.4-.5-.6-1.7-1.5-2.6-.6-.6-1-.8-1.6-1.6s-1.4-2-2.2-2.8c-1.5-1.6-2.8-4.3-5.8-4.3.5 2.1 8 8.6 5.8 10.1.6-.4-.1 2.1-.1 1.5 0 .7-.6 2.2.4 2.7-.9-.6-1 3.7-.9 3.7-.9.4-.7 3.7-.8 4.9-.1.8.3 5.2.3 5.2-.3.3-.8.5.1.8-.9-.3-.8 8.3 1.2 6.3.1-.2-.3.1.5-.3-.1 0-1.4 1.2-1.5.8.1.5.4.8.4 1.3 0 .1-.7 1.8.1 1.3-.1 0-.2.1-.3.3.3.1.7-.1.9.1-.1-.1-3.1 1-3 .9-2.2.9-4.2 1.6-7.3 2.3-1 .2-7.8 2.5-8.2 2.3s-.5-.7-.7.3c.1-.7-7.9-.3-6.1 1.5.2.1-.1-.2.2.5 0-.1-1.1-1.5-.7-1.5-.3 0-.9.3-1.3.3-.2 0-1.6-1-1.2 0 0-.2-.1-.3-.2-.3-.1.3-.1.7-.3.9.2-.2-.1-.4-.2-.5l-.1.5c-.5-.3-.3 0-.4-.1-.2-.1-.9-.9-1.1-.9-1.1-.3-3.1.2-4.6.1-.6 0-1.2-.4-2.2-.2-.4.1-1.1-.2-1.5-.2-.4.1-.3 1.4-.5 1.5-.3.1-.1-.8-.1-.8 0-.2-.6.3-.6.3-.1-.1-.5-.9-.6-.8 0 0-1.2 1.3-.9 1.3-.2-.1-.3-.5-.3-.7 0 .8-.8-.7-.7.1-.3-1.8-5.3-.8-5.2-.6-.4-.6-2-1.1-2.4.1.4-.8-2.5-1.1-2.6-1.1.6.1-2 .2-1.5-.3 0 0-.3.4-.3.3-.1-.4.4-2.3.5-2.9.2-1.4-.3-2.2-.5-3.2-.1-.4.8-2.1.8-2.9 0-.3-.2-1.8-.4-1-.7-.9-1-4.1-1.6-5.3-.3-.6-3.1-4.5-2.2-4.7-.2.1-.3.2-.4.4-.7-.2-1.1-5.7-1.1-6.6.1-1.1.7-7 1.6-7.5 1.4-.7 3.8-5.9 4.3-7.8 1.6-5.9-5.2-2.1-8-.7-6.9 3.4-11.5 8.9-16.3 14.1.8-2.7 1.6-5.5 2.5-8.3.3-1 2.9-8.7 1.2-8.1 1.1-1 .3-.3 1-.5.5-.2 2.9-5.9 3.1-6.5.3-.8-.1-1.1.3-2 .1-.3 1.7-2.4 1.6-2.4 1.5 0 2.4-1.9 3.7-3.1 2-1.8 4-2.2 6.5-2.9 2.2-.6 4.5-1.7 6.3-2.2 2.4-.6 3.6.7 3.6-2.7s-2.9-6.3.6-7.8c3.3-1.4 9.1-1.7 13-1.8 1 0 5.1 1.5 5.5.5-.3.6 1.7.2 2.1.3-1.4 1.7 2.1 6.6 3.2 7.3 2.2 1.4 5.6 1.5 8.4 1.2 2.6-.3 4.7-1.2 7.4-1.7 1.5-.3 6.2-1.5 7.2-1.2.5.3.6.8 1.1 0-.3.6 5.1 1.6 5.8 1.9 2.4 1 2.1 2.1 3.3-.1 0 0 .4 2-.1 1.8.8.4 1 0 1.7.8.5.5.4 1.9 1.2 1.5.3-.1 0 .5.1.5.3-.1.6-.4.9-.4 0 0-.4.3-.3.3.2.4.6 0 .6 0 .7 1.9 2.2 3.7 3.9 5.7.9 1.1 4.4 8.3 6 6.4.5.5-.3.5-.5.7-.6.9 2.5 3.2 2.5 2.4 0 .1-.1 2.2.4 1.7-.8.9.8 3.7 1.8 5.1.6.9 1.7 1.7 2 2.1s.3 1.4.9 2.3c.1.2.7 0 .9.2.2.4.1.8.3 1.2.4.6 1 1.9 1.4 2.6.8 1.5 1.6 3.9 4 4.4.2-1.9-1-3.1-1.7-4.5-.6-1.1-1.2-2.5-1.9-4.2-.4-1-3-7.4-4.3-7.1.3-.1-5-8.7-5.4-9.4-.7-1.1-7-9-7-8.9 0-1.5-4.2-4.9-5.8-5.4 0 .1-.7 1-.7 1 0-1.9-1.8-3.4-3.6-3.2 0 0-1.3-.8-1.7-.9-.9-.1-.9.3-1.6.4.1 0-.9-1.4-1.5-1.4-.2 0-.1.3-.1.4.6-.6-4.8-.3-4.4 0 0 0 .1-3.4 0-3.5-.1-.2-.4-3.2-1.4-2.7.1-.1.4-.9.4-.9-.6 0-.9-.4-1.3-.3 1 0-.5-2.9-.5-3-.3-.5-2.1-3.9-3.3-1.7-.4.7 1.4 2.8 2 2.7-.4.1.2 7.1 1.9 6.1-1.6 1 1 2.1-.2 2.9 0 0-5.5.8-5.1 1.2-.1 0-.1-.6-.2-.6-2 1-5.1 1.3-7.6 1.4-.7 0-6-1.1-5.8-1.3.8-1.4-1.1-2.8-1.5-4 1.9 1 5.4-2.2 6.7-3.1.4-.3 4-5.7 4-5.7l-.4-.4c1-.3.2-1.1.9-1.5.6-.4.9 0 1.9-.2 1.4-.2 3.4-.6 4.7-1.2 3.6-1.6 4-5.2 4-7.7-.1-4.2-2.2-6.1-5.7-8.1-2-1.1-1.9-2.7-3.2-4.6-.2-.4-4.2-6-4.8-4.3.6-1.7-2.5-2.4-3.8-2 .5 2 1 2.5 2 3.5.2.2 5 4.5 4.4 5.6-.1.2 2.5 7.4 3.1 7.4-.2 0-.4.5 0 .7-.1 0-.4-.2-.3-.4-.2.1-.2.3-.1.6.1-.7-4.3.1-4.9 2.2-.1.5.2 4.8 1.7 3.3.1-.1 0 0 .5-.2-.1 0-1.5 1.1-1.5.7.2 1 .3.5.2 1.5 0 .2-1.2 1.5-.3 1.4-.2 0-.3 0-.4.1.2.2.7.2.8.5 0-.2-.5 0-.6.1l.5.2c-.4.4-.1.4-.2.5-.1.3-1 .6-1.2.8-.7 1.2-1 2.8-2.2 4.2-.4.4-1.2.7-1.8 1.4-.3.3-1 .4-1.3.8-.3.3.3 1.3.2 1.6-.3.3-.5-.8-.6-.7-.1.2-.2.4-.4.5-.1 0-.8-.7-.9-.6.1-.2-1.1 1.5-.6 1.5-.2 0-.5-.4-.5-.6-.2.1-.8 0-.7.3-.3-.9-5.8-1.5-5.7-1-.2-1.4-.8-.1-1.5-1.2-.2.4-.4 1.2-.8 1.4l.6-1.2c-1-.4-2-1.2-3.1-2.1-.9-.9-1.8-1.3-3.6-2-.4 1.3 1.5 4.2 2.8 3.5-.7.4 1.4 1.8 1.6 2-.6.2-7.8 1.2-8.1 1 1.2-1.2 1.1-2.9.8-4.1-.2-1.5-.5-3.1-.6-4.3-.8.1-1.7.1-2.4.3 5.5.7-.1-9.1-3-9.9.3.7.7 1.6.9 2.3-.7.5-5.8-4.3-5.5-4.8.2-.4.8-.1-.1-.6.3.2 2-.9 2.8-.8.5 0 3.1 1.5 3.1-.2.5.3-.5.7-.1.9.6.3.5-.7 1.2 0 .1.1.1.8.4 1 .6.3 1.3 1.4 1.6 1.2.5-.3.3-.6.7-.8-.2.2 0 .4.1.5s.1-.5.2-.5c.5.4.3.1.6.1.2.1 1.2 1 1.3 1 1.8.4 13.7-2.4 10.6-4.5.3-.5.6.3.8.4-.4-.3 1.4-1 1.4-.9.8-1.2-.1-.7-.1-1.9.1-.1.6-.1.8 0-.5-.5 1.1-.7.4-.9 1.6.4 1.3-1.1 1.9-2.4.1-.3 1.9-4.5.6-4 1.7-.5.2-2.2.2-3s.7-2.5.7-3.6c0-1.4 0-3.2-1.9-4.1-.7 1-.9 4 .2 4.6-.6-.2-1.4 6.1-1.4 6.2-.4.6-1.4 2.6-.6 3.2.5.2-4.4 5.9-4.9 6.2-.7.5-7.6 3-8 1.6 0 0-.3.5-.2.5-.3-.6-2.4-.8-2.5-.4.1-.5-.5-.6-.9-.7.4-.6 1-.3 1-1 0 1.3 6-2.1 5.6-2.1.6-.2 2.8-1.2 2.3-2.2.3.7 5-5.7 5.3-6.1 1.1-1.8 1.7-2.4 2.4-3.9.3-.7 1.2-4.6.8-4.2 1.8-1.8-3.5-4.3-4.8-4.3 0 .2-.4 1.1-.3 1.2-.4-1.7-1.9-2.4-3.2-1.6.5-.2-1.5-.3-1.4-.3-.9 0-.4.5-1 .9.2-.1-1-1-1.4-.8-.1 0 0 .4 0 .5-.9-.5-3 1.1-3 1.1-.2-.2-.3-.4-.5-.6-.1.2.2.3.2.5-.1-1.3-5.1 2.6-4.6 2.9 0 0-.4-.5-.5-.4-.8 1.7-2.7 3.1-3.8 5-.2.4-2.6 6-1 5.8-1 0-1.4 2.8-.9 3.3 1.9 1.8 2.7-1.6 2.9-2.4 0-.1 1.3-3 .3-3 1.2.2 1.8-3.4 2.3-3.4.8 0 2.4-2.7 3.4-3.5.5-.4 4.2-2.7 4.2-2.8.4.2.6.5.7-.3 0 .1 7.7 1.4 6.7-.7-.1-.2-.1.3-.1-.6 0 .1.7 1.7.3 1.6.4.1.9 0 1.4.2.3.1.8 1.4 1.1.6-.1.1-.1.2-.1.3.2-.2.4-.5.7-.6-.2 0-.3.4-.3.5l.4-.3c.1.4.2.3.2.3.1.4-.5.8-.6 1-.2.7-.7 2.6-1.4 3.9-.3.5-.9 1.1-1.3 2-.2.5-.8.8-.9 1.3-.1.3 1 1.1.9 1.3-.1.3-.9-.4-.9-.3.1.2 0 .4 0 .7-.1 0-1.1-.1-1.1.1 0 .7-.2.8.5 1.6-.1.1-.6 0-.7-.1.5.5-1.1.3-.4.6-1.3-.9-4.6 3.5-4.4 3.6-.7-.4-2.3.6-2 1.7-.4-.9-2.6.4-3 .5s-1.7 1-2.4.9c-1.3-.2-2.3-1.3-3.4-.8.1 0-1.5-.3-1.9-.2-1.1.4-.5.6-1.1 1.3-.1.1-1.6-.3-2.1.6-.1.2.3.2.3.2 0-.2-.5 1.4-.5 1.3-3.5-1.4-5.9 3.7-6.6 6-1.1 3.2-.7 6.4 2.2 9 1.8 1.6 2.8 1.6 5.1 1.7 1.4 0 2.5.7 4.1.1 1.9-.7 2.6-2.7 4.2-3.3-.3.4.8 4.3 1.7 3.8-1.2.8 0 3.5.9 4.2-2.9 1.9-7.1-1.8-6.8 3.7 0 .8.4 6.8.6 6.8-10.8-.7-18.6 7-23.1 16.6-5.5 11.6-7.4 24.9-10.5 36.4-.7 2.6-1.5 5.6-2 8-.6 2.4-1 5.4-3.9 3.7 0 .1-.6 1.5-.8 1-.7-1.9-1-2.7-2.2-4.4-1.1-1.4-2.4-3.5-3.2-5-.4-.8-1.1-2.6-1.7-3.7s-2-2-2.6-2.7c.1.1-1.3-4.9-1.3-3.8-.9-.7-2-4-2.6-5-.3-.6-3.8-4.6-3.2-4.9-.1.1-.2.3-.3.5.2 0-2.2-3.1-2.6-3.5-1-.9-2.1-1.7-3.3-2.5s-7.7-3.5-8.1-4.3c-1.4-1.9-10.1-5.8-13.4-5.7-6.9.3-.2 6.4 1.3 8.3h-.3c.1 0 .3 0 .2.1l.6.3c-.6-.3.2.3-.5-.2.1.1.2.1.3.2-1.6-1-4.3-.4-6.3-1.8-2.9-2.1-5.8-3.7-8.8-6 .6 5.1 5.9 7.4 9.7 9.1 1.7.8 11.1 4.7 10.7 2.4 0 .5 1.4-.8 1.3-.7.5-1.6-2.7-3.9-3.8-4.9-.5-.5-2.3-2.5-1.8-2.3-.3-.2-.3-.5-.6-.6.3.2.6.5.8.7.6.6 4.8 1.3 6.4 2 2.8 1.3 5.9 3.3 8.5 4.9 3.1 1.9 5.7 4 7.9 6.9.7.9 5 5.5 4.8 6.3-.1.1-.3.1-.4 0-.3.2 5.1 9.8 5.6 10.6.7 1.2 4.6 9.6 6.3 9.6-.3 0 1.4-.1 1.4-.4-.1-.2-1.1-.8-.8-1.1.5-.9 1.1 1.4 1.3 1.6.1.1-.1.7.5 1.2.2.2 1.3.2 1.6.3 2.7.8 5.9-.9 5.9-4.8-.1.1-.2.1-.3.1 0 0 .7-2.3.1-2.3.2 0 .2.3.2.4.7-.8-.1-1.1.3-2.1.5 1.7 4.8 2.8 6.1 3.4 1.1.5 5.3 3.1 7 2.6 0-.2.1-.5.1-.7l-.2 1.3c1.5 1.5 6.3-.2 7.8-.4 1.4-.2 4.4.5 5.5-1-.3 2.2-.7 4.6-1.3 6.5-.3.8-2.4 4.2-2 4.9.1.2.5.7 1 1.1.2-.2.1-1.1.6-1.1-.2 0-5.6 8.6-5.2 9.7 0-.1-.9 2.1-.3 2.1-.2 0-.1-.3-.2-.5-1 1-1.4 3.6-2.6 5.2-1 1.3-2.1 1.7-3.6 2.5-1.5.9-2.7 1.3-4.1 2.2-.8.5-1.1 1-1.8 1.5-.5.4-1 .1-1.6.4.1.2.2.3.2.5-1.3-.9-4.6 2.1-5.6 1.5s-3.3.4-4.7.5c-1.3.1-3.2-.1-4.7-.3-2.5-.3-6.9-4-8.1-3.7.5-.1-2.8-4.3-3.3-4.9-.3-.3-2.9-4.6-3-4.6-.2 0-1.3.2-1.3.6 0 .1.3-.2.3.4-.1.2-.3.3-.5.3-.6-.2.6-1.9.6-1.8-.4-.7-1.2-1-1.6-1.8s.1-2.2-.9-2.2c.6 0-1.1-.7-1.1-.6-.2-.2.4-.1.4-.1 0-.3-1.1-2.6-1.3-3.4-.5-1.5-1.6-3.1-2.3-4.5-1.1-2-3.8-10.6-6.3-9.4-.5-.7.3-.5.5-.7.8-.9-2.6-3.9-2.6-3.3 0-.1 0-2.5-.5-2 .9-1-1.1-4.9-2.3-6.4-1.6-1.9-4.5-2-6.2-2.3-2.6-.4-4.4-.8-7.1-1.1-2.4-.3-4.2-1.4-7 .2 1.8 1.4 3.6 1 5.5 1.4 1.6.3 3.2.6 5.3 1.3 1.7.5 3.5.9 5.2 1.6.5.2 2.8 2.4 3.2 2.4.3 0 5.3 10.9 5.8 11.9 1.3 2.5 2.1 4.4 3.1 6.6.5 1 3.4 5.5 3.4 5.5-.5 1.9 3.3 6.5 4.5 8.3.1-.1 1.1-.8 1.1-.6-.8 2 .6 4.3 2.2 5.3-.2-.1 1 1.8 1.2 2 .6.7 1.1.5 1.7.8-.8-.5 1.4 2.9.9 1.9.3.9.9 1.5 1.6 2 .2.2 2.4 1.5 2.4 1.3 0 .1-.1.9 0 .9.3.1.2-.3.4-.4-1.7.8 9.4 3 8.8 2.4 0 0-.1.7.1.6 3.3 0 7.7-.6 11-1.9 1.9-.8 3.7-1.4 5.4-2.6.7-.5 1.3-1.6 1.8-2 .4-.3 1.4-.4 2-.8-1.9 3.6-3.2 7.6-5.1 11.2-.8 1.6-5.8 12.3-3.9 11.9-1 .5-.4.3-1 .4-.4 0-2.8 5.5-3 6 0 0 .4 1.1.4 1-.1.2-.5.7-.6.9s-1.4 2.5-1.2 2.5c-2.4.5-5.1 8.8-6.2 11.5-1.9 4.4-3.4 7.7-5.8 12.1-4.5 8.5-8 17.3-12.1 26.2-1.4 3-3 6-4.4 9-.4.9-1.7 6.2-2.3 6.4-.2 0-.3-.2-.3-.3-.4-.1-4.4 9.1-4.8 10-.7 1.7-1.5 3.3-2.3 4.8-.3.6-2.4 3.8-2.1 4.3.2.3.4.7.9 1.1.3-.2.2-1 .7-1-.2 0-6.2 8.2-5.8 9.4-.1-.2-.9 2.1-.4 2.1-.2 0-.1-.3-.2-.5-1.3.9-2.1 4.9-3.6 6.3-2 1.9-3.4.8-6.4.1-3.3-.8-6.5-1.6-9.7-2.3-1.2-.3-11.1-2.1-10.2-.2-1.5-.2-.5-.4-.7-.9-.4-.8-7.5-1.1-7.2 1.2.2 1.4 4.6 3 4.7 4.2.3 2.5 6.6 5.4 9.2 7 3.5 2.3 6.3 3.1 9.5 5.2 6.8 4.3 13.5 8.2 20.7 11.8-.2 0-.3.4-.3.5-3.3 0-10.8.7-12.4-.1-1.3.5-4.5-.3-5.9-.2-.6 0-6.2.7-6 0 0 .2.1.3.2.5-.3.3-7.3-.5-8.5-.5-1.9 0-8.1 1.1-9.5.4-2.6-1.3-9-.5-12.7-.6-4.8-.1-9.5-.2-14.3 0-4.5.1-9.4.6-13.5.9-4.7.4-9-.4-13.9.9 5.5 2.4 11.1 1 16.5 1.4 2.5.2 4.9-.4 7.2-.3 2.5.1 5.2.5 8 .5 10.8 0 21.7.3 32.8.2 3.5 0 6.9 0 10.4-.1.9 0 6.7-1.1 7.1-.7 0 .2 0 .3-.2.4.1.6 12.1.2 13.4.1 2.1-.1 3.8-.1 5.8 0 .8.1 4.8.5 5.2 0 .1-.1.5-.7.8-1.3 0 0-2.3-.1-1.2-.7 1.1-.7 1.8 1.3 2 1.4 1 .2 1.7-.6 2.7-.7 2.2-.1 5.4 2.1 7.9 1.1 0 0-.3-.2-.2-.3-.1.1 2.6-.1 2.4-.6 0 .2-.3.3-.4.4 1.9.5 5.6.3 7.9.4 3.6.3 7.3.3 10.9.3 3.9 0 7.7.1 11.6.2 1.4 0 12.6-.2 11.5-1.5 1.6-.2.6.5.9.8.5.6 7.1.2 7.8.1.8-.1 4.2-1.4 5.1-.4 1.7 2.1 11.5.9 14.7.9 1.5 0 3.4-.2 4.7-.3.9 0 1.8.2 2.8.2 3 0 6.3-.1 9.4 0 11.2.1 22.2.4 33.6.2 3.5-.1 6.9-.1 10.4-.1 1 0 6.8-1.1 7.3-.6 0 .2 0 .3-.2.4.1.6 12.1.2 13.4.1 2.1-.1 3.8-.1 5.8 0 .8.1 4.8.5 5.2 0 .1-.1.5-.7.8-1.3 0 0-2.3-.1-1.2-.7 1.1-.7 1.8 1.3 2 1.4 1 .2 1.7-.6 2.7-.7 2.2-.1 5.4 2.1 7.9 1.1 0 0-.3-.2-.2-.3-.1.1 2.6-.1 2.4-.6 0 .2-.3.3-.4.4 1.9.5 5.6.3 7.9.4 3.6.3 7.3.3 10.9.3 3.9 0 7.7.1 11.6.2 1.4 0 12.6-.2 11.5-1.5 1.6-.2.6.5.9.8.5.6 7.1.2 7.7.1.8-.1 4.2-1.4 5.1-.4 1.6 1.9 10.6 1 13.7 1 2.5 0 4.9-.8 7.1-.9 1.9-.1 4.4.9 6.7.5 1.8-.3 2.7-.4 5-.2 2.1.2 4.8.1 6.9-.1 5-.5 9.9.6 14.9-1.6-5.4-1.3-11.3-.4-16.4-.5-5.6-.2-10.8-.7-16.2-.5-10 .3-19.6.4-30.1.2-12.8-.3-25.6.4-38.3-.1-1.9-.1-4.6 0-7 0-2.1 0-3.9.6-4.6-1.1-.6-1.6.3-5.1.6-6.7.4-3.2 1.2-4.8 1-8.2-.1-1-.5-.8-.4-1.7 0-.6.5-1.4.5-1.9 0-.6-.9-3.2-.3-3.1 2.2-1.5 6.5-.5 8.1-3.6.3-.6.8-7.4 1.2-7.2-.2 0-.4 0-.5.2.3-3 1.3-6.6 1.7-9.7.3-2.2.6-4.4.8-6.6.1-.6-.1-5 .2-5.4 1.6-2.1 1.3-8.1 1.8-11.4.6-4.7 1.3-9.3 1.9-13.9.6-5.1.9-9.6 1.5-14.7.4-4.1-1-10.2 1.2-13.7 1.2 1.5.7 7.3.9 8.9.3 3.4.9 6.5 1.3 9.9.4 3.6 1.1 7 1.6 10.6.3 2.3.4 7.9 1.9 9-.2-.1.7 7.9.9 9.2.1.9.4 8.8 1.2 9.1.2.1.8.3 1.3.3.2-.3-.4-.8 0-1.1 0 0-.6 8.9.4 9.6-.1-.1.4 1.9.8 1.7-.2 0-.2-.1-.4-.2-.2.7.5 3.1.6 4.3.1 1.7 0 3.7.4 5.6.9 4.2.9 8.7 5.5 9.8 2.8.7 5.5-.2 8.2.4 2 .5 1.7.7 1.9 3 .2 1.9.6 5.2.2 6.9 1.1.3 1.3 5.2 1.4 6.3.1 1.3-.6 2.7 0 3.7 1.4 2.3 1.8.6 2-1.1.2-2.4-.4-4-.3-6.5.1-2.6.4-4.4-.2-7.2-.2-.8-.6-.8-.7-1.6-.1-.5.2-1.3.1-1.8-.1-.8-.7-2.8-1.2-3.5 1.3-.2.4.4.7.7.1.2 5.3-.2 5.7-.3.6-.1.6-.9 1.2-1 .1 0 2.9.3 2.7 0 .7.9 9.3.6 10.7-.6 0 .8.5 2 1.4 1.9-1.2.3 2.5 5.1 2.5 4.5.3.5 1.5 2.2 2.2 1.4-.5.3 8.6 4.5 8.5 4.2.1.3 3.8.3 3.8 1 0-.1.3-.4.3-.5.2.6 1.9 1.1 2 .7 0 .3 2.1.8 2.3.8 0-.3.4-1 .4-1.2.3 1.6 1.1 2.3 2.3 1.8-.6.3 1 .6 1 .5.8.2.1-.2 1-.5-.2 0 .3 1.2.6 1.3.1 0 .2-.4.2-.4.5.8.3 0 .5.1-.1 0 2.1 1.3 1.9.3 0 .3-.1.5-.1.8.2 0 .2-.4.2-.5-.5.8 3.8 1.8 3.8 1.6 0 0-.3.5-.2.5 1.3 0 4.6 4 6 2-.3.4-.6.7-.8 1.1 0 .3 2.3 1.7 2.8.9-.5.9.2.9.8 1.2-.1-.1-.7 1.4.4 1.4.5-.5 1.7-2.5 1.2-2.6zm-32.3-29c-.6-.5.5 0 0 0zm-.1-.6c0-.1.8.2.5.3-.4.1-.7.1-.5-.3zm-16.5-254.9c-.1-.1.1-.1 0 0zm.1-.1c-.5 0 .5 0 0 0zm4.1-9c.1 0-.6-.2 0 0zm1.1-13.3c.9-.2.2-.1 0 0zm-.4 5.3c.8-.1.3-.1 0 0zm16.5-59.2c.4-.4.9.6.4.8-.1.1-.5-.6-.4-.8zm-9.5 25.9c-1-.5.2-.7 0 0zm4.1-28.9c.7-.4-.6.3 0 0zm-.6.1c.1 0 .8.3.5.5-.1.1-1.5.5-.5-.5zm-29 5.7c.1-.4.6-.4.4 0-.2.3-.5.4-.4 0zm11 22.2c-3.4.4-8.3-4.7-9.4-7.1-1.6-3.7-2.1-7.1-1.3-11.6-.1 0-1.6.1-1.2-.3 2.5-2.1 2.8-5.5 4-8.4.3-.6 1.3-2 1.7-3 .4-.9.3-2.5.6-3.2.2-.5 1.4-.3 1.4-.4v-.8c.2.1.2.5.2.7 0 0 .3-.2.3-.3.3.7 3.7 6 3.3 6.2.1-.2.2-.3.2-.6.8.2.4 2.8 2.7 2.4 1.2-.2 2.3-2 2.9-2.7 1-1.1 3.2-2.6 3.5-4 0 .3.1 0 .1-.1.4-.2-.5 1.1.3-.2l-.3.8c.1-.1.1-.2.2-.3-.6.2 2.7 9.6 4.8 9.6 2.6 0 5.3-4.5 7-5.8-.2.1 0 0 .4-.5-.5.9.5 3.7.6 4.5.2 1.8-.9 7 .5 8.1.4.3-1.2 5.3-1.4 6.1-.8 2.6-1.7 5.2-3.6 7.1-2.2 2.3-5.1 4-8.2 4.4-3.7.8-6.2-.8-9.3-.6zm-7.3 9.3c-.2.4 1-.2 0 0zm-1.4-3c-.7 0 .5-.2 0 0zm-.1-.2s.7-.2.5-.1-.9.4-.5.1zm-4.3 7.2c-.2-.8.1-.6 0 0zm-4.9-7.8c-.1-.1.6.2 0 0zm3.2 5.9c.1-.1-.2-.1-.2-.4 0 .3-1.7-1.4-1.8-1.2.2-.1 0-.3.2-.4-.1.1-.4.1-.5.1.4-.4.1-1.5-.2-1.4.4-.1.5-2.1-1-1.9 1.8 0 1.1-.5 1.4-.6.4-.2.4-.3.8-.4l-.3-.3c0 .7.5-1.4.5-1.3s.9.7 1.1.5l-.2-.4.3.3c.1-.1.1-.5 0-.5 0 0 1.6.1 1.2-.6.1.3.1.5.2.8.1-.1 0-.4 0-.6-.1.7 1 .5 1 .2 0 .6 1.2.5 1.2.8 0-.1.3-.2.4-.3 0 .1-.3.5-.3.5l.2-.2c-.2.1.7 1 .9.7-.6.9.9 2.2.9 3.2-.5.6-.2.1-.1.6-.5.5 0-.1-.2.5 0 0-.5.6-.7.6.1.2.3.3.4.5-.1-.1-.3-.2-.5-.2-.2.1-.9 1-1.8 1.3-.4.3-2.9.1-2.9.1zm-54.3-12.1c-1.1.6.5-.3 0 0zm-2.5 22.2c-.9-.2 1 .2 0 0zm13.4 65.5c-.5-.4.5-.4 0 0zm.4-.6s-.7.3-.6 0c.1-.6.7 0 .6 0zm-9.4 37.4c0 .1-.4 0 0 0zm.4.7c-.9.7-.6-.6-.2-.6.2.1.4.4.2.6zm-3.8-74.3c.7.1 1.1-1 1.7-1.3.7-.4 1.6-.4 2.4-.6 1.8-.6 4.3-2.2 5.9-2.1-1.5 2.2-1 8.3-1.3 10.5-.4 3.5-.8 7.3-1.8 10.2-1.2-1.2-2.6-1.2-3.5-2.6-.9-1.3-1.8-2.8-2.1-3.8-.3-.6-.8-10.2-1.3-10.3zm-4.7 2c-.1.3.5-.9.5-.3-.1.3-.6.9-.5.3zm-45.8 226.8c.5.2-.2-.1 0 0zm-.3-.3c0 .1.2.9-.1.7-.2 0-.6-.7.1-.7zm-37-12.7c.4-.8-.3 1.2 0 0zm-8.9-29.5c.9-.5-.2.1 0 0zm-1.3-19.9c.3-.3.8.4.4.5-.1 0-.5-.4-.4-.5zm-16.9 24.1c.5-.6.6.9-.1.7 0-.2 0-.5.1-.7zm-44.8 64.8c.4 0-.1.6-.3.5-.4.1.2-.5.3-.5zm94.3-164c-.2-.1 0-.1 0 0zm3.4 8.6c-.8.4-.3.1 0 0zm1.7 8.9c-.7.4-.1.1 0 0zm12.8-6c-.1.5.2-.3 0 0zm-4.2-24.5c.3-.2-1.1.7 0 0zm-8.5-14.4c.1 0 .9-.1.4.3-.3.2-.8-.3-.4-.3zm-3.5 0c.2-.1.5-.4.5-.3s.4.8.3.9c0-.1-.6-.7-.8-.6zm-.2 4.9c.5.3-.6 0 0 0zm-.4.1c.1 0 .9 0 .4.2 0 .1-.7-.2-.4-.2zm-.9 17.5c-.7.2.5-.1 0 0zm-.1 1c1.7-.2 1.2-2.5.7-2.9.4.4.2-1.2.2-1.1-.1-.8-.4-.1-.8-.8.1.2 1.1-.7 1-1.1 0-.1-.5 0-.5 0 .8-.8 0 0 0-.6 0 .1.5-2.6-.3-2.1.3 0 .5-.1.8-.2-.1-.2-.4 0-.6 0 1 .2.5-4.5.5-4.5.1 0 .6.1.6 0-1.1-1.1 2.6-6.5-.2-7.1.4 0 .7.1 1.1.1.4-.2-.4-2.4-.1-2.6.4.7 3 4.7 3.9 4.5.3-.1 6.1 10.2 6.6 11.1.9 1.5 6 11.3 5.5 12.1-.6 1 .2 2.9.1 3.7-.1 1.3-.8 3.3-1.2 4.7.1 0 1.3.4 1.2.5-1.8.7-3.2 2.7-3.2 4.5 0-.2-1.1 1.5-1.2 1.7-.3.7-.1 1.4-.2 1.8.3-.9-2.6 1.8-1.6 1.3-.9.4-2.4 4-2.8 4.1-.3-.1-.6-.1-.9-.2-.1.3.3.2.4.4 0-.1-1.4-1.2-1.6-1.2.5.1.2-3.2.2-3.3 0 0-.8-2.1-.8-1.9 0-.6 0-2.6-1.1-2.5-.3 0-3.7-13.6-3.5-13.7 0 0-.5-.1-.5 0 .4-.4 0-2.3-.4-2.2.2-.1-.2-2.4-.3-2.6-.2.1-1.3.2-1 .1zm-.3 3.4c.4-.1-.8.1 0 0zm-7 4.6c.3 0 .2.1 0 0zm-.3-.3s.4.7.2.7-.3-.6-.2-.7zm-17.3 3.1s-.2.4 0 0zm-13.9-.3c.2.7-.2.6 0 0zm-8.9-1.2c.5-.9 0 .6 0 0zm76.4-41.6c.3-.2.7.3.3.3 0 0-.7.1-.3-.3zm-6-12.1c.7-.6-.6.7 0 0zm-14.4-15.9c.1-.4-.2.6 0 0zm-11.8-3.7s-.1.1 0 0zm-14.6 2.7c.2-.6-.4 1.2 0 0zm-.2-.1c.2.4-.2.4 0 0zm4.4-38.3c.7-.2-.3.4 0 0zm.3.3s-.7.3-.5.1c.2-.1.7-.6.5-.1zm-1.7 15.5c-.3 0 .7 0 0 0zm-.1 1.2c1.2-.6 1.1-.4 1.4-1.3.1-.2-.8-1.4.1-1.4-.2 0-.2-.1 0-.1-.2-.1-.3-.1-.5-.2.3.3.3-.1.5.1-.2-.2 0-.1 0-.1.3.6-.2-.3-.1-.2.2.3-.1-.2.2.1 0 0 0-1.1-.1-.9-.3.3 1 .9 1.3.8.1 0 0-.4 0-.5 2.1 1 2.6-1.2 3.5-1.6h.8c0-.3-.4-.1-.5-.3.1.1 0-4.6-.9-5 1.5.1 3.1 2.7 3.3 3.4.8 2.1.1 3.5-.5 4.7-1.5 3.1-3.7 5.5-7.4 4.6.3-.7.2-1.4.2-2.1-.2.1-1.3 0-1.3 0zm-6.7 12.6c.5.7-.6-.7 0 0zm-9.9-.1c.7-.8-.3.3 0 0zm-14.5-9.3c.1.1-.1.1 0 0zm20.2-21.6c.1-.3.5.1.5.3s-.7-.2-.5-.3zm-6.4 9.3c.7.5.1.1 0 0zm-19-14.3c-.4-.5.6.1 0 0zm.5 0c-.1-.1-.9-.3-.3-.4 0 0 .5.5.3.4zm16.9-8c-.1.3.2-.8 0 0zm1.6 11.4c.8.4-.8-.4 0 0zm-7.4 6.3c.4.1.3.1 0 0zm-8.6 4.9c.4-1.3-.3.9 0 0zm-.4-.6c0-.2-.1.5 0 0zm.7 11.7c-1.7 1.7-.2 3.3-3.3 4.4-1.9.6-3.8.5-5.4.1-.7-2.5-4.9-4.3-3.8-7.8.3-1 1.5-2.9 2.4-3.6.6-.5 3.4-1.4 2.9.1-.2.2-.4.4-.5.7.2.2.3-.2.5-.2-1.6.3 4.6 5.3 4.6 4.4 0 0-.3.6-.2.6.4-.1 3.3.9 2.8 1.3zm.9 3.5c.1 0 .3 0 0 0zm-6.8 21.4c.2-.2.9-.3.8-.2-.3.3-1.2.5-.8.2zm-21.5 21.3c1.2-.4-.7.2 0 0zm-60.3 2c-.2.7-.8-.7-.8-.7.2.6 1-.1.8.7zm.1.6c-.1-.4 0-.5.4-.2.2.5 0 .6-.4.2zm42.2 36.2c-.3.1-.5-.9-.2-.7.1 0 .4.6.2.7zm35.3 10.8c.2-.4.7-.4.4.1-.3.3-.6.3-.4-.1zm-70.9-22.8c-.1.3-.8.2-.6 0 .1-.1.7-.6.6 0zm8.2 14.8c-.8.7.7-.7 0 0zm12.5 23.4c-.4.4.6-.7 0 0zm27.8 12.7c-.2 0-.7-.4-.2-.7 0 0 .5.7.2.7zm.3-.2c-.4-.4.1-.4 0 0zm2.4 15.9c1 0-1.2.1 0 0zm-13.9 27.6c.8-.9.4.4.3.5-.2.1-.4-.3-.3-.5zm-3.8 13.3c.2.6-.7.2 0 0zm-.8.5c.1.1.9-.1.6.3-.3.5-.8.2-.6-.3zm-26 55c0-.1.5-.5.5-.3.1.2-.6.7-.5.3zm-63.9 45.2c-1-.2.9.1 0 0zm.7.3c0-.4.5-1.1.5-.5-.1.3-.2.4-.5.5zm73.7-9.5c.1 0 .1-.1.1-.1 0 .1-.1.1-.1.1zm-20.1-14.7c.8-.2 1.6-2.6 1.8-3 .6-1.3 2.7-3.9 2.8-5.4 1.7 1.9 3.6 2.7 5.3 3.9 1.7 1.3 4 4 5.4 5 2.1 1.5 4.8 2.1 6.6 2.7 1 .3 5 2 5.4 1.7 0 1-3 3.8-3.7 4.9-1.7 2.8-1.1 3.1-3.9 2.3-2.1-.6-3.1-1.1-4.7-2-1-.6-2-.9-2.9-1.2-.6-.3-1-.8-1.6-1.1-.1.2-.2.4-.4.6-1.3-.8-3.4-2.6-5.2-3.8-.6-.3-5-4.6-4.9-4.6zm-25.4-5.3c.1-.4.4.3.3.5-.3 0-.4-.2-.3-.5zm8.9 13.3c-.2 0-1.1.2-.9-.3.2-.6 1.1.3.9.3zm12.5 5.2c-.6-.4.5.4 0 0zm1 .4c-.2.2-.4.3-.6.2 0-.1 0-.6.1-.6.2-.1.6.1.5.4zm20.6 4.7c.3 1.3-4 5.1-5.4 3-.8-1.5-5.2-3.1-7.2-4.3-3.2-1.8-6.3-3.7-9.4-5.5-3.1-1.7-6.2-3.3-9.2-5-1.8-1-7.7-5.8-9.5-5 0 0-4.2-3-4.8-3.4-.5-.3-2.6-2.4-3.1-2.4 3.4.7 7.8.4 11.6 1.4 5.4 1.3 11.2 2 16.6 4.1 5.5 2.2 8.7 8.7 14.7 11.3 1.6.7 3 .9 4.3 1.3 1.4.5 2.3 1.5 3.9 1.1-.5 0-2.5 3.1-2.5 3.4zm53.7 6.7c-.2-.1-.3-.3-.3-.6.4 0 .6.3.3.6zm35.1.8c-.2.2-.4.1-.6-.1 0-.1.9-.4 1-.3.3.1-.2.4-.4.4zm15.9-1.9c-1.1-.2.9.1 0 0zm.7.3c0-.4.5-1.1.5-.5-.1.3-.2.4-.5.5zm159.6 1.3c-.4.3 1.3-.4.9 0-.3.2-1.5.4-.9 0zm-35-1.1c.4 0 .6.3.3.6-.3-.1-.4-.3-.3-.6zm30-27.1c-1 0 0-.6.2-.5.1.1.1.5-.2.5zm3.8-57.5c.3-.3.4.4.1.5-.3.2-.3 0-.1-.5zm-5.2-41.2c1-.7-.4.3 0 0zm-2-6.2c1.1.9 2.3 11.4 1.9 13.3-.4-.5-3.4.1-3.6.1-1.5.3-3.2.5-4.4.6 0 0 .1.6 0 .7-.9.5-3.2-.1-4.6-.1-1.5 0-3-.2-4.6 1.3 1 1 4.3 1.6 5 .4-.6 1.1 9.7 1.3 8.5-.5 1.1 1.8 2.9-1.1 3.7-.7s1.1 8.7 1.3 10.2c1 6.2 1.4 12.4 2.6 19.2.1 0 1.5-.5 1.3-.1-1 2-.9 2.2-.7 4.3.2 1.5.4 3.3.6 4.5 0 0 .7 7.3 1.4 6.4-2.1-1.1-6.1.5-8.1.5-.4 0-7.6 1.2-8.4.2s-3.2-.3-4.3-1c-1-.6-1.1-1.7-1.5-2.8-.7-2-.8-8.3-2.2-8.9.5.2 0-5.9-.1-6.9 0-.2-.7-6.3-1.7-4.2.1-.1.4 1.1-.4.5-.4-.3 1.4-1.4 1.4-1.2-.1-.7-.5-1.4-.5-2.2s1.1-1.9.2-2.3c-.3-.2.4-.4.2-.5-.4-.3-.7-.1-.9-.5-.1-.1.4.1.4.1s.2-2.9.3-3.4c.2-1.5-.1-3.3-.1-4.8-.1-1.5.5-11.6-1.7-10.6-.2-.8.5-.3.8-.4-.4.2.3-2.1.3-2-.1-.4-1.3-2.1-1.3-1.9 0-.5.6-1.2.8-1.7-.2 0-.3-.1-.3-.2.5-.2 1.7-2.4.7-3 .9.6 4.1-.9 4.4-1 1-.1 2.6-.7 3.5-.8 1.4-.2 3.5.2 5.2 0 .2-.1 4.7-.8 4.9-.6zm-5.6 63c-.3.5-.3-.6 0 0zm-.3 0c-.5.7.6-1.1 0 0zm-12.4-25c-.6.1.8-.3 0 0zm-.6-25.3c-.8.4-.6-.3 0 0zm3.9-11.6c.2-.5.4-.1.3.2s-.5.1-.3-.2zm14.3-21.5c.3-.3.9.5.4.7-.1.1-.5-.5-.4-.7zm-4.1-36.1c.5.2-.6.3 0 0zm-.4.3c.2 0 .9-.2.5.2-.1 0-.8-.1-.5-.2zm-.3-2.6c-4.2-.9-.7 3.8-1.6 4.6-.4.4-.2 7.1.4 7.3-.9-.3-3.2 3.8-3.3 3.8-.5.2-1-.4-.7.7-.1-.5-4.1 1.7-4.8 1.9-.1 0-4.7 1.6-2.6 2.4-.1 0 .8-.6.5.4-.1.4-1.5-1.2-1.2-1.2-.8.2-.7.6-1.7.6-.2 0-2.2-.6-1.7.1 0-.2-.1-.3-.3-.3-.2.3 0 .7-.3.9.2-.2-.1-.4-.3-.5-.1-.1 0 .5-.1.5-.6-.2-1.5-.7-2.1-.8-1.4-.1-7.1-.7-7.9-.4 1.4-.8-1.7-1.7-1.6-1.5-.2-.4.8-.3.8-.3-.5.1.2-1.6.2-1.5 0-.2-1.3-1.7-1.3-1.4 0-.1 1.1-1.8.4-1.5 1.5-.5.5-1.6.6-3.1 0-.3.5-4.9-.5-4.2 1.3-.8-.1-1.1.5-2.4h-.8.4c-.1.2-.1-1.9-.1-1.9 0-1.1.3-1.9.3-2.9 0-2.4-.9-2.6 2-3.1.9-.2 8 .6 8.4-.2.2-.4.4-.6.5-1.3-.2-.1-1 .3-1.1-.1.1.2 4 .4 5 .3 1 0 7.3-.3 6.6-1.7.1.2-.1.3-.2.4 1 .1 4-2.2 5.2-1.4.3.2 0 3.1 0 3.2.1.9.3 1.8.4 2.9v1.9c.7-.1 1.4-.1 2-.2zm-11.4 21c-.1.6 0-1.2 0 0zm-17.7-1.7c-.8.4-.6-.1 0 0zm.3-12.1c.1.2-.7 0-.6-.2s.6 0 .6.2zm8.3-13.3c.4-.1.6 0 .6.2-.1.3-.9 0-.6-.2zm33.8-21.1c-.8.1 1.1-.1 0 0zm-.4-27.7c.2.1.9.4.4.8-.4.2-.5-.9-.4-.8zm-23.4-31.2c.4-.4-.3.3 0 0zm-9.5-3.7c-.9-.2 1 .3 0 0zm13.6-15.7c-.4.2-.6-.3-.3-.4.2-.3.5.3.3.4zm8.6-15.4c-.1 0 .4.2 0 0zm-.3-.2c0 .1.3.7.1.7-.2-.1-.3-.6-.1-.7zm-14.4 6.3c.1.2.9.3 1.2 0 .1-.1-.2-.4-.2-.4.5.1 2.9-1.6 2.6-1.8l.6.6c.2-.2-.2-.4-.2-.5.2.9 5-1.9 4.9-1.9 0 0 .2.6.2.5.6-.6 4.9-2 5.9-1.5-1.1 1-1.5 2.5-2.4 3.6-1 1.2-3.2 2.8-4.4 4.1-1.8 2-4 4.3-5.7 6.5 0-.1-.1-.1-.2-.1.7-.1-.1-2.2-.7-1.9 1.2-.5-.1-1.3-.8-1.3 1 0-.1-2.8-.1-2.9 0-.2-1.1-3.4-.7-3zm-1-2.6c.3.3-.1-.1 0 0zm-1 4.3c.2.4-.2-.2 0 0zm-2-4.4c.3.5-.7.5 0 0zm-.6 4.8c.3-.3-.1 0 0 0zm-.7.1c.2-.3.4.1.5.3-.1-.1-.9.3-.5-.3zm-2 3.5c.2.2 2.3-1.8 2.5-1.9-.2-.1-.9-.7-.7-1 2.4 1 1.7-1 3.4-.7.7.1.4 1.7 1.4 1.7-.7 0-.7 7 1.2 6.2-.8.3-.8 2.1.2 2.4-.3-.1-2.4 3.2-3 3.6-.5-.1.2-.7.3-.6-.4-1.2-1.4-3-1.2-4.1-.7.1-.8-.5-1.4-.4 1 0-.9-3.2-1-3.2-.3-.2-1.7-1.9-1.7-2zm-3.5-.2c.7-.1-.4 0 0 0zm-3.2-4.6c.1-.1.6-.5.4-.3 0 .1-.5.7-.4.3zm.4-.1c0 .1 0 .5 0 0zm-12-46.1c.1-.3 0 .3 0 0zm0 22.1c.1-.1-.3.2 0 0zm-1.6-22.8c.4-.4.3.3.3.4-.5-.1-.6-.2-.3-.4zm-8 20.7s1.2.1 1 .2c-.4.3-1.1-.1-1-.2zm-1.8-22.9s0 .1 0 0zm0 .1c-.1.1-.1.2-.2.3-.1-.2.1-.2.2-.3zm-5.2 25.5c-.1.4-.2.1 0 0zm0 2.9c.1.5 1-.4.4-.4.7.1.2-.2.5-.2 0 0 2.2 0 1.7-.7.1.2.2.5.3.7.1-.1 0-.5 0-.6 0 0 3.6 1.5 3.8 1.1l-.3.5c2.4 0 1.2 4.3 2.9 4.7-.2 0-.2 1.7-.2 1.7-.3.5-1.5 1.5-.8 2.2.5.6-5 2.3-5.5 2.2-.7-.1-5.8-2.6-4.7-3.5 0 0-.5 0-.5.1.3-.4 0-2-.4-1.9.1 0 .3-2.1.3-2.3-.2 0-1.1-.4-1.2-.3 1.5-.3 2.4-.8 2.2-2 0 .9 1.1-2.1.9-1.7-.1 0 .6.8.6.4zm9.6 3.5c-.9.4.9-.5 0 0zm.1 0s-.3.5 0 0zm-6.5 9.4c0 .6-.1-1.3 0 0zm-7.4-10.1c.3-.5.2 0 .6 0-.4-.1-.7.2-1.3.1.3 0 .8-.1.7-.1zm.6-.3c.3.2.1.1 0 0zm-5.5-2.7s1.2-3.5 1.3-3.3c1.7 2.7 5.6-1.6 7.4.5-1.2 1-2.4 1.8-3.5 2.6-1.2 1-.5.7-1.7.7-.1 0-1.8-.7-1.8.3 0 .1-.2-.6-.2-.7.1.1-.7.8-.8 1 .3-.4-.6-1.1-.7-1.1zm-.7.5s-.1 0 0 0zm-1.1 2.5c-.3.3 1 0 0 0zm1.7 12.3c-.5.1.6-.1 0 0zm9.3 12.6c-.2.3.7-.9 0 0zm.1.1c0-.5.2-.3 0 0zm2-2.3c-1.6-.9-3.5-1-4.8-1.9-.6-.4-3.9-3.3-3.9-3.6.2-.4.5-.6-.4-.5 1.2-.2-1-3.4-.8-3.7 0 0 1-1.9.3-1.9-.9.2-1.1.3-1.9.7l1.3-1.2c-.1-.2-3.1-2.4-2.9-1.5 0-.1 0-.3-.1-.4-.1.3-.2.7-.4.9.2-.1 0-.4-.1-.5l-.2.5c-.4-.5-.2-.1-.3-.1-.2-.1-.5-1-.6-1.1-.3-.2-3.8-2.6-3.5-2.6.2 0 .2-.1.3-.1-.5-.2-.8-.8-1.3-1.1.1-.3.8.4.8.5-.1-.1-.1-.3 0-.4-.2.4 1 .3 1 .4.4-.5.4-.8 0-1.6.1 0 .6.3.7.4-.2 0 .8-.3.5-.5 2 1.7 3.6-3.7 3.5-3.7.2 0 .5 0 .7.1.1 0-.2-.4-.2-.4.5-.3 1.5.9 1.6 1.2 0 0 2.2.5 2.2-.8 0 1.2 1.3.4 1.5 1.1 0-.1-1.6 3.1-.6 2.6-.2 0-.3.1-.3.3.3.1.7 0 .9.2-.2-.2-.4.2-.5.3 0 .1.5 0 .5 0-.2.5 0 .4 0 .5s-.5 1.3-.4 1.5c.5 1.7 2.3 3.1 4 4.1.8.5 1.4.9 2.6 1.1 2.9.5 1-.3 2.5-1.3.3-.2.2.9.4.8.8-.6 2.6.7 2-1.6.2 0 .5.2.7.4 0-.5 1-.2.6-.5 2.3 2.3 3.9-4.9 3.5-4.8.5-.2 1.2-1.8 1.1-2.7 0-.4-1.1-3.3-1.2-3.2.1-.1.3-.2.4-.3-.2 0-2.5-2.8-2.8-3.1-1.1-.8-2.2-1.5-3.5-1.8 2.1-2.3 7.8.3 8.9-2.8-.1.1.1.6-.1.8l.3-.1c-.8-.3.8 6.6.9 7 1 2.8 3.5 6.9 7.6 6.8 1.7 0 3.5-1.3 5-1.6.7-.1 1.9.1 2.5-.4.1-.1 1 1.9 1 2.3 0 1.1-.4.8-.8 1.5-1 1.9-2 3.4-3 4.5-1.3 1.4-2.2 1.4-4 1.9-.6.2-4.4 2.6-3.7 2.6 0 0-.6.1-.5-.1-.2.2-.1.4.1.7-.6-1.2-5.5 5.9-2.3 5.1h.5c-.1 0-1.7.3-1.6-.1-.1.1-.1 1-.2 1.2 0 .1-1.4 1.1-.4 1.1-.1 0-.3 0-.4.1.2.2.7.2.8.5-.2-.2-.4-.1-.6 0l.5.2c-.5.4-.1.2-.2.4 0 .1-1 .7-1 .8-.5 1 .5 4.4-.6 5.2-2.4-2.3-3.3-4.2-6.3-6.1.7-1.5-1-1.6-1.4-2.1.5.7-2 .1-1.3.1-.1 0-2.5-.3-2.4.6.2-.5-.1-.7-.2-.8zm15.6-1.4c-.6-.1.5.1 0 0zm-1.5 19.2c-.6.3-.4.1 0 0zm-.5-7.1c.1.1-.2-.2 0 0zm0-.6c.9-.2 0 .2 0 0zm-3.8 13.9s.1-.1 0 0zm6.1.9s-.9 1.4-.3 1.2c-.8.2-2.4-1.4-3.2-1.8 0 .1-.6 1.3-.7 1-.7-2-.6-1.7-2.2-2.8-1.3-.8-2-1.5-3.3-1.6-2.8 0-4.5-5.8-5.2-8.1-1-3.3.4-6.7.5-9.6 1.5 1 4.1 2 5.9 3.5 1.5 1.2 3.1 3.4 4.3 5.2.4.6 2 6.6 2.3 6.3-.2.1-.4.3-.6.4.5-.2 1.2 3.9 1.3 4.1-.2-.5 1.1 1.5.3 1.3.2-.1 1 .8.9.9zm.5-3c-.3 0 .1-.3 0 0zm.3-.2c-.2-.1.1 0 0 0zm.5-.7c-.1 0-.5.3-.6.3-.1-.1-.5-3.9-.5-3.9 0-.5.3-2.2-.7-2.2.1 0-.7-7.8-.1-8.2.2-.2-.4-3.3.3-3.4 0 0-.4-.2-.5-.2.6-.1.9-1.7.4-1.8.2 0 .8-1.8.8-2-.3-.1-.9-.4-1.2-.4 1.5 0 2.5-.6 2-1.7 1.1 1.1.4-2.1.4-1.7 0 .2 1.1.3 1.3.1l-.3-.3c.4 0 .6-.3.3-.3 0 0 1.8-.9 1-1.3.2.2.4.4.6.5.1-.1-.2-.4-.3-.5.3.7 1.2-.1 1.1-.3.2.4 1.8.1 1.8-.3 0 .1-.1.6-.1.6 0-.1.1-.2.1-.3.4-.5 2.8 3 4.2 2.4-.2.2-.4.3-.6.5-.1.2 1.8 2.2 2.4 1.4-.6.8.4 1.2-.1 2-.3.6-1.9 1.6-2.5 2.3-.9 1.1-1.7 1.8-2.5 2.8-.4.4-1.4 1.7-1.5 2.2-.2.6.9 1.3.9 1.6-.1.4-.9-.4-.9-.2-.1 1.2-.7.4-1 1-.5 1 .5.9.5 1.7-.1.1-.6.1-.8.1-.1.2-.6.8-.3.8-1.5-.4-1.2.9-1.8 2.1-.1.3-2.3 3.9-1 3.6-1.2.3-1 2.9-.8 3zm7-12.6c-.2.4-.9-.7 0 0zm-6.2 8.9c0-.3.7.3.5.3-.2.2-.5-.2-.5-.3zm2.4 12.1c-.9.5-2.7-2.5-2.8-2.8-.2-.8 1.1-1.9.1-2.6.5.4 2.6-5.2 2.6-5.5.5-.5 1.7-2.4 1-3-.3-.2 8.4-13.9 9.8-13.3l-.2-.5c1.1.2 1.1 1.7 2.3 1.5-.4.1 1 7.4 2.5 6.5-1.4.9.4 2.2.3 2.8-.5 2-3.5 4.8-4.6 6.3-1.3 1.8-9.2 10.4-8.6 12.2-.1-.3-.3-.2-.3-.6l-.4.4c-.2-.4-1.2-1.7-1.7-1.4zm-3.2 8.7c.8.4-.9-.4 0 0zm-12 14.8c.1-.4.8.5.3.6-.3-.1-.3-.4-.3-.6zm-5.1 18.1c.5-.6-.6.5 0 0zm-.9-.7s0 .2 0 0zm13.2 30.4c-.6.1-4.5-.1-4.1-.9v.5c-.2.2-12.2-4.3-12.5-5.1 0-.1.5-.5.2-.6-3.2-.6-10.2-7.7-9.6-10.6.3-1.2 1.9-2.7 2.6-3.4.3-.3 1.3-1.1 1.5-1.5.3-.4 1.1-1 1.2-1.2-.6-1.2 3.5-3.5 4.9-4.1 1.1-.5 4.8.1 5-.2-.1.1 13.2 4.3 13.2 3.9 0 0 .3-.4.2-.5.2.5 2.2.9 2.2.4 0 .3 2.4.4 2.6.4 0-.2.2-1.1.1-1.3.6 1.4 1.8 2.2 2.8 1.2-.5.5 1.2.2 1.2.2.9-.1.1-.4.8-.8-.2.1.7 1.1 1.1 1 .1 0 0-.4 0-.5.8.8.1-.1.6-.1-.1 0 2.7.2 2-.5.1.3.2.5.3.7.2-.2-.1-.4 0-.6-.1 1 4.6-.2 4.4-.6 0 0 .1.6.2.6.7-.7 2.6-.7 3.9-1 .3-.1 1 0 1.3-.2 1.5-1.1.2-.1.9-2 0 .5.4 1.1.5 1.5.3.2 3.2-1.3 2.5-2.2.7.9 1.7-.1 2.1-.6 1.2-1.9-.1-1.4-1.4-2.1-.1 0-1.2 1.3-1.4 1-.6-.9.6-1.4.7-1.8-.2-.1-.4-.2-.7-.3.6-.8 1.1-2.5 1.6-3.6.2-.6.9-4.5-1.4-3.6-.8.3-.7 3.2-.3 3.5-.2-.2-4.7 5.6-2.8 6-.4-.1-2.6 1.6-2.7 1.5-.1-.2-.1-.3-.2-.5 0 .3-8.8 2.4-8.8 2.3-.4-.2-.5-.8-.7.2.3-1-5.4.1-5.6-.5 1.6-1.9 1.9-6.3 2.8-8.6.3-.7 4.3-5.2 4.1-6 .1.2.1.1.2.1.1.1-.1.8-.1.9.1-.1.2-.2.2-.3-.7 1.6 0 6.4 2.4 6.5 2.9.1 6.4-5.4 7.1-8.2-2.7 1.5-4.2 3.1-6.1 5 0-.2 0-.5.1-.7-.1 0-.5.7-.5.7-.1-.2.6-1.3.1-.9 1.4-1.1-.4-8-2.2-7.3-.1.3-.1.5-.2.8-.1-.1-.1-.1 0-.3-4.5 2.6-6.2 7.7-8.3 12.3-.6 1.3-.7 6.9-.9 7 .2-.1-2-1.7-1.9-.8 0-.1 0-.3-.1-.4-.1.2-.2.7-.4.9.2-.2 0-.4-.1-.5 0 0-.1.5-.2.5-.4-.4-.2-.1-.4-.1-.2-.1-.7-1-.9-1-1.1-.3-2.7-.3-4.2-.6-.5-.1-1.1-.6-1.9-.7-2.1-.1-.5.3-2.2.9-.3 0 .1-.9 0-.9-.2.1-.4.2-.6.2-.1-.1-.2-1-.4-1-.6.2-.8.3-1.2 1.1-.1-.1-.2-.5-.1-.7-.2 0-.6-.4-.7-.1.3-2.1-2.3-.6-3.2-2.1-.7-1.1 1.4-6 1.7-6.8 1.1-2.6 2.4-5.2 3.6-7.3.7-1.3 4.4-5.8 3.6-7-.1-.2 4-5.4 4.6-6.1 1.5-1.8 3.3-3.9 4.8-5.4 2.1-2.1 3.8-3.6 5.9-5.1 1-.7 5.4-4.3 5.6-4.3 1.3.3 3.3-1.5 4.2-1.9 1.5-.7 3.7-1.3 5.3-2.1 0-.1-.7-1.3-.4-1.2 2 .8 1.4.5 3.2.3 1.3-.2 2.2-.2 3.1-.9 0 0 2.1-.2 2.5-.3.9-.2 1.2-.9 1.7-1.1-.5.2 3.1 1.2 2.3.3.1-.2.3.2.3.3.1-.1.3-.4.3-.4.1 0 0 .5 0 .5.1-.1.2-.2.4-.2-.1.1-.1.2-.2.3-.1 0 .5-.1.5 0 0 0-.6 1 .1.7-.1 0-.9.1-.9.2-.1.4.4.1.5.2-.4-.5-3.8 8.5-4.1 8.6-.1 0-.5-.4-.6-.2-1.4 4.2-6.1 8.1-7 12.9-1.7 1.3-2.4 4.9-3.3 6.3-1.4 2.2-2.8 3.6-3.2 6.5 4.7-1.6 7.1-8.1 9.3-11.3 1.4-2.1 3.1-4.6 4.1-6.4 1.1-1.9 2.1-6 3.9-7.2 3.6 4.5 5.8 9.4 7.8 14.8.8 2.2 1.6 4.5 2.4 7 .4 1.3 1.5 7.5 2.8 8 .4.1.5 8.9.4 9.8-.2 3.9-1 7.8-2.3 11.2-2.7 6.9-9.7 13.8-16.4 15.9-4 1.2-7.4 1.7-11.8 2.5 0 .1.4 1.5 0 1.3-2.8-1.8-5.9-.9-9-.9-.6 0-2.2-.4-3.3-.4-1 0-2.3.8-3 .8.4-.1-4.1-1.5-3.2-.9-.8.7-3.8-1-4.8-.7zm-4.7-26c.1-.9 0-.2 0 0zm12.6 1.1c.1.8.2.2.2 1.1-.1-.8-.7-.9 0-1.8.1.4-.3.2-.2.7zm.5 1c.1-.3-.1.6 0 0zm16.9-1.3c.2 0 .1 0 0 0zm6.7-33.9c-.3-.4.3.8 0 0zm.1.4c-.3.2 0 0 0 0zm-58.1 62.4s.2-2.1-.1-1.8c2.1.1 4.4-.1 6 0 2 .1 3.2.8 5.2.3-.9 1-3.1 11.4-2.3 11.2-.3.1-3.8-1.6-3.9-1.7-1.4-.5-2.5-1.7-2.9-2.8l-.6.3c-.3-.8-.8-5.2-1.4-5.5zm-7.4-4.6c.6.3-.3-.2 0 0zm-.3-.4c0 .2.1.6-.2.7.1-.3 0-.8.2-.7zm-.7 10.3c.6.3-.6.2 0 0zm-.5.3c.2 0 .9-.1.4.2.1 0-.7-.2-.4-.2zm-14.6-8.1c.1-.3.5 0 .6.2 0 .3-.7-.1-.6-.2zm-1.2 11.4c-.9.1.9-.2 0 0zm3.2 11.4c-.1-.3-1.3-1-1.3-.3 0-.1 0-.3-.1-.4-.1.1-.4.6-.6.7.1 0 .2-.5.2-.5l-.4.4c0-.1-.3-.6-.2-.3-.1-.4.6-.8.7-1 0-1.6-.3-3.7-.2-5.7 0-.8.3-1.7.2-2.8 0-.6.3-1.3.2-1.9-.1-.4-1.4-.5-1.5-.7-.1-.4.8-.1.8-.1-.5.1.4-1.5.5-1.4 0-.4-1.2-1.5-1.2-1.4 0-.2.4-.4.7-.4-.2.2.3-1-.1-.9 2.1-.6.4-6.6.6-6.7 1.3-1 0-1.7.2-2.9.1-.8.5-2.5.6-3.6 0 0-.8-1.3.1-1.6-.1 0 2.4 1.4 2.3 1.2 0 .1-.5.5-.2.6 2.5 1.2 4.9 2.7 7.5 4 3.6 1.8 2.4 1.3 2.4 4 0 .5 0 7.9-.7 8.3-1.1.6-.8 4.6-1.1 6.1-.2 1-.4 6-.6 6.2-.3.3-.9.1-.2.8-.3-.3-7.5.5-6.6 1.8-.1-.1.9-.2.2.5-.2.2-.8-1.6-.6-1.6-.3-.1-1.5.9-1.6-.4zm3 2.1c0 .6-.1-.8 0 0zm-3.2 42.7c.1-1.1 1 .7.3.9-.2-.2-.3-.5-.3-.9zm-3.1 39.5c0-.4.1-.7.3-1 .1 0 .4.4.5.4-.1.1.9-5.7.9-6.3.2-2-.8-3.5-.9-4.9 0-.1 1-3.7.8-3.5.4-.5.5.2.7.1.3-.2 1.1.1 1.3-.6-.3.7 2.4 1 2.5.9v-1.3c-.1.5 0 1.2 0 1.8.1.2 3-.3 2.6-1.4.3 1 1.4.4 1.8 0 1.3-1.5 0-1.4-.7-2.4.5.7-1.7.2-1.2.2-.3.1-2-.2-2 .8 0 .1-.4-.6-.4-.6.2.1-.6 1-.7 1.1 0-1-1.8-.7-2.1-.8-1.5 0-.8-1.9-.5-4.1.4-3.5.4-7.2.7-10.8.8.4 2.7.3 3.2-.4-.3.5 6.7 1 6.9 1 0 0 .5.3.3.4.1 0 .3-.3.3-.2.2.1-.2 1 .6 1.2.2 0 .5 12.9.1 13.4s.9 5.5-.1 5.8c-.1 0 .5.3.5.3-1 .7-.6 5.3-.6 6.8.1 0 1.2.1 1.3.1-1.6.9-2.1 2.5-1.3 4-.2-.4-.3 1.6-.3 1.6 0 .9.6.7.7 1.3-.1-.2-1.2.9-1.2 1.4 0 .1.5.1.5.1-.5.5-.2 3.7-.1 3.6-.3 0-.5.1-.8.2 0 .2.5.1.6.1-.8-.4-1.2 5.9-1.3 5.9s-.6-.2-.6-.1c0 2.1-1.2 3.2-3.1 4-.7.3-6.4 1.1-6.1 1.9-.3-.8-2.5-1.5-3.1-.6-.5-1 .6-3.8.7-5 .2-1.8-.1-3.8 0-5.6.1-2 1.1-4.7.5-6.8 0-.9-1.1-1.8-1.2-2zm14.2-34c.1-.1.5-.7.5-.1-.1.3-.8.3-.5.1zm1.7 31.2c.6-.2-.6.1 0 0zm-6 21.9c-.1 0-.4-.7-.2-.7s.4.5.2.7zm-.3-.2c-.4-.1-.1-.1 0 0zm-10.2-15.6c.3-.2.5-.2.5.1-.5.5-.8.1-.5-.1zm3.7 68.4c0-.1 1.4-.9.8-1.7.2.4 1.2-.1.8-.2.7.6 3.9 5.1 4.2 5-.3.1.1.5.2.5-.1.1-.3 0-.4-.1.1.1.1.3.1.8 0-.2-.1-.9-.4.1.3-1.2-5-3.3-5.3-4.4zm2.3-6.9c-.1 0-1 .2-.7-.2.3-.3 1.5.8.7.2zm-3.7 8.4c.1.1 0 .1 0 0zm-1.4.7c.4.4-.3.2 0 0zm-4.5 1.3c.1 0 .8.7.9.5.4-.4.4-.7.3-1.6.2 0 .5.3.6.5-.4-.4 1 .2.6-.4.5.6 1.4.9 1.9-.1.1.5.9.9 1.2 1.3-.1-.1-.4-.3-.5-.4-.2.1 0 .3-.1.3.5-.3.7 1.1.7 1 0 .2-.7 1.3-.7 1.5 0 .3-.1 2.2-.1 2.3-.1-.1-.5.1-.5.1.4-2-3.1-1.5-3.3-1.7-.3-.2.7-.7.5-.7-.8-.3-1-2.5-1.5-2.6zm1.5 4.1c-.5.6-.5.1 0 0zm-2.3-4.4c.4-.4 0 1.3 0 1.1zm-3.6 4.7c.2-.2-.8.2 0 0zm-3.5-1.3c.5-.5 2.4-1 3.5-1.1-.1.4-1.3 2.8-.3 2.7-.1 0-.8-.1-.8 0 .2.5-.1.4-.4 1.3-.1-.3-.3-.4-.4-.1 0-.3 0-1-.5-.5 0 0 0-.7-.1-.7.1.2-1-1.6-1-1.6zm-5.8-.4c.3.6-.2-.5 0 0zm-14.9 6c.2 0 .5.4.4.6-.1 0-.4-.6-.4-.6zm0 .3c.2.5-.5-.6 0 0zm-2.4 5.1s-.4.3-.6.2c.3-.6.7-.3.6-.2zm50.1 1.5c-.1 0-.8-.2-.6-.4.2-.1 1 .3.6.4zm12.4-11.2c-1.1.7-1.8 8.8-.7 9.9-2.4-.2-5.1.1-7.6.1.1.2.2.8.2 1.1.1-1.7-11.6-1.3-12.6-1.4-3.7-.1-9.7 1.3-11.8.3-1.3.5-4.5-.3-5.9-.2-.6 0-6.2.7-6 0 0 .2.1.3.2.5-.3.3-7.3-.5-8.5-.5-1.9 0-8.1 1.1-9.5.4 0 0-.3-.8-.2-.9.1.1.3.1.4.2 0 0 3.5-4.1 4.1-3.8.1.1.2.3.3.4-.1-.2 7.1-4.5 7.3-4.5 0 0 .6.2.5.3.2-.1.3-.3.1-.7.1 1.4 3.6-1.2 3.8-1.2.5 0 3.1-.5 1.2-1.4 0 0 0 .3-.3-.4.1.1 1.3 1.2 1 1.3.8-.4 0-.7 1.1-.5.2 0 1.6.6 1.1-.2 1.5 2.2 2.1 5.7 5.7 5.3.3-.5 1.7-2.8 1.8-3 .2-.4 1-1.5 1-1.5-.1-.3-.2-.5-.3-.8 0 .1.3.5.4.5-.2-.1-.1-.8-.1-1 .1.4.1.1.1 0v-.1c.2.5 0-.8.2.6 0-.5.1-.1.1-.3-.3 1.2 2.6 3.5 3.7 4.4 1.2 1 2.9 1.8 4.4.2.9-1 .7-4.3 1.2-4.4 0 0-.5-.2-.6-.2.2-.2.7-1.1.1-1 .2-.1.1-.2.3-.1-.2-.2-.1-.2-.1-.1-.1-.1-.3-.2-.4-.3.4.2.1-.1.3.1-.3-.3-.2-.4-.1-.6.1.1.3.5.4.6l-.3-.6c.1.2.2.3.3.5-.1-.2-.1-.4-.1-.5.1.2.3.5.3.8-.1-.4.1 0 .1.1 0-.2 0-.3.1-.5-1 1 2.2.5 1.8.4-.3 0 .3 1.4.7 1.5.2.1.2-.5.2-.4.6.6 1.6 1.1 2.3 1 .3 0 2.1-.8 1.8-.8.3.2.5.3.8.3.1-.3-.3-.2-.4-.4 1 1.7.4-8-1.4-6.2 0-.1.4-.3.5-.3-.1.1-.2.1-.3.1.1 0 .2-.2.2-.2-.1.1-.2-.1-.6-.2.1 0 .2 0 .3.1-.1-.1-.3-.1-.4-.2.2 0 .3.1.5.1-.4-.2.2 0 .1 0 0 0-.2-.2-.3-.2.1.1.3.1.4.2-.8-.5-.2-.1 0 0-.6-.4 0 0 .1 0-.1-.1-.2-.1-.3-.2.1 0 .5.3.1 0 .1.1.2.1.3.2l-.1-.1c-.1-.1-.3-.2-.4-.4l.3.3c-.2-.1-.2-.2-.5-.5l.5.5-.2-.2c0 .1.2.2.2.2l-.1-.1s1.3-.4 1.2-.9c.4 1.6 3.3.8 4.3 0-.9-1.9-2.3-1.8-3.6-2.1-.6-.1-3.7-1.2-4.5-.8.1.2.1.4.2.5 0 0-1.6-1-1.7-1-.7-.6 3.3.3 3.7.3 2.2.5 4 .4 6 .5 3.9.2 8.1-1 11.4-.1-.6.3-.6 5.2-.7 5.9-.2 1.7 0 3.4-.3 4.9.3-.1 1.6 1.1 1.2 1.4zm-17.2-8.7c.4.3.3.2 0 0zm.3.2s-.1 0-.1-.1c-.3-.2-.1 0 .1.1zm21.6-84.2c-.9-.2.1-1 .4-1.2-.1.4-.3.8-.4 1.2zm11.7 23.9c-.2.4-.5-.8-.5-.7.1 0 .6-.3.6-.2.2.3.1.6-.1.9zm0-1.2c-.2-.2-.2-.4.1-.6.3.3.2.5-.1.6zm-.1-61.2c.1-.4.2 0 0 0zm.7-.7c-.2.5.6-1.2 0 0zm6.1 36.3c-.2.1-.4 0-.6-.3.4-.3.9-.4.6.3zm-.4-.9c.1-.7-.1.5 0 0zm6.9 52.7c-.3.3-.3-.4-.1-.5.3-.1.3.1.1.5zm16.4 30.5c-.7-.7.5-.5 0 0zm24-4.8c-1.1.6-4.7-.2-5.4 1.3 0 0-5 .4-5.8.5-2.3.2-4.8.6-7.3.8-1.5.1-15.8 1.6-15.8.4.3-1.5-1.4-5.2-1.8-6.9-.3-1.7-.7-3.6-.9-4.9-.7-4.8-1.3-9-2.2-14.1-.1 0-1.5.5-1.3.1.9-1.9 1-2 .7-4.1-.2-1.6-.5-3.3-.7-4.8-.1-.6 0-2.2-.2-3.3-.2-1-1.2-2.1-1.4-2.7.2.5.5-4.3.2-3.2-.3-.3-.4-3.9-.4-4.4-.1-.6-1.4-4.5-.5-4.5-.2 0-.3.1-.5.2.4.2-1.9-13.2-1.7-13.4.1-.1.6.1.6-.2-1.9-4.8-1.3-11.5-2-16.8-.4-3.1-1.2-5.8-1.5-8.8-.2-1.6-.2-8.3-1.7-9-.3-.1-.9-9.4-1-10.3-.1-1.5-.2-3.3-.5-4.8-.4-1.9-1.9-4.5-3.7-1.8-.4.6-.2 2.1-.3 2.7-.9 8.1-3.5 16.4-6.8 23.3-1.7 3.7-2.8 7.5-4.2 11.7.1 0 1.5.2 1.2.5-2.8 1.9-3 5-3.9 8-.2.6-.9 2.1-1.2 3.1-.2 1 .3 2.3.2 3.1 0-.4-2.2 3.8-1.4 2.9.2.7-1 3.5-1.2 4.3-.1.6-.2 4.7-.9 4.5.2 0 .3 0 .5-.1-.1-.1-1.3 5.6-1.4 6.4-.1 1.2.5 6.8.1 7.3-1.1 2.2.6 7.6 1.1 10.8.3 1.8.5 3.5.9 5.3.2.9.2 2 .7 2.9.3.6.2 1.3.6 1.9.1.1 1.7-.5 1.7-.4-.6 0-1.4.3-2 .4-.4 3.1 2.4 7.5 3 9.9.4 1.3 1.5 8.4 1.9 8.5-.1-.2 0-.3.1-.4 0 0-9.6 1.3-10.1 1.3-2.8 0-6-.1-8.8-.4-3.4-.3-9.1-3-10.9-.8.1 0 2.6.7 1.3 1-1 .1-1.6-1.2-2.1-1.5-.3-.2-2.8-.4-3.3-.9-1.4-1.3 1.2-6.5.6-8.5 0 0-.2.3-.3.2 0 .1 0-3.1-.4-2.9.2 0 .3.4.3.5.4-1.3.2-3.2.4-4.7.4-2.9.5-5.3.8-8.2.6-5.7.5-11.4 1-17.1.2 1 5.8.3 6.4.2 1.4-.2 4.6-.3 6.1-1.3 2.4-1.6 3-4.8 3.6-7.3.3-1.1.4-2.3.6-3.6.1-.7-.1-3.3-.1-3.3.3-.5.9-.5 0-1.1.9.5 1.7-10.6-.2-8.7.1-.1.3.9-.5.3-.3-.3 1.6-1 1.6-.8.1-.6-.3-1.1-.1-1.9 0-.2 1.1-2.1.2-1.7.2 0 .3-.1.3-.2-.3-.2-.7-.2-.9-.5.2.2.4 0 .5-.2.1-.1-.5-.1-.5-.1.3-.5.1-.4.1-.6.2-1 .8-1.6 1-2.8.1-1.1-.1-2.1-.1-3.2 0-1.4 1.4-8.3-1.3-7.5-.2-.6.6-.3.8-.3-.5.2.3-1.7.3-1.6 0-.2-1.3-1.8-1.3-1.4 0-.1 1.1-1.7.4-1.5 1.2-.6.8-2.1.4-3.8-.7-3-2-2.7-3.9-2.9-1-.1-2 .2-3 .3-.9 0-2.8-.4-4-.4-.4 0-1.5.5-2.2 0-.5-.4-.3-1.4-.2-3 0-1.1-.5-2.3-.5-3.2 0-2.3.7-4.5.7-7 0-2-.7-3.8-.5-5.7.2-2.4 1-4.8 1.1-7.5s-.2-5.4 0-8c.2-3.1.6-5.8.4-8.8-.1-1.2-.8-2.8-.7-3.7 0 .2.4-1.2.4-1.2.8 1.6 2.4 2.3 3.8 1.4-.3.1 1.5.1 1.7.1 1-.2.4-.5 1.1-1.1-.9.8 3.3-.2 1.8-.2.1-.2 1.3-1.5 1.5-1.9.1-.1.1-2.2-.2-2.1.3 0 .5-.1.8-.1-.1-.3-.4-.1-.6-.1.9.5 1.1-5.8 1-5.8.1 0 .6.1.6 0 0 0 1.6-13.5.2-13 1-.3.5-2.6.5-2.6.4-.2 5.4 1 5.5 1.2s.4 3 .4 3.5c.2 1.2.1 7.6 2.8 8-1.5 1.1-1.3 5.4-1.7 6.8-.6 1.8-2.7 5.1-3.3 6.5-1 2.4-.9 5.6-1.4 7.4-.8 2.6-1.8 4.4-1.5 7.4 4.8-3.9 5-12.1 6.1-16 .8-3.1 2.2-5.6 3.1-8.8 0-.1.2-2.5.3-2.6 1-.7.7.4 1.3.5.1 0 2.7.7 2.8.7-2.6 3-2.9 7.7-4.2 11.1-1.2 3.1-4.1 7.8-5.3 10.2-1.8 3.6-2.3 8.1-3.4 11.4-1.4 3.9-3 7.1-3.5 11.5 3.5-3.5 4.1-7.4 6-11.5 1.6-3.3 3.2-7.3 4.1-10.4.3-1.1.3-2.3 1.1-3.8.9-1.9 1.9-4.2 2.5-6.3 1.2-4.2 3.8-7.8 3.4-12.5.2.2 1 .1 1.2-.1.1 1.8.9 3.4 2.5 4.4-2 1.6-2.1 5.6-2.8 7.6s-3.3 5.4-4.1 6.9c-1.3 2.5-1.5 5.9-2.3 7.9-1 2.8-2.3 4.6-2.3 8 3-2.4 3.1-4.7 4.6-7.6.8-1.5 1.3-2.5 1.9-4.3.3-.9 1.1-2.1 1.3-2.9s-.2-1.3.4-2.5c.5-1.1 1.3-2.7 1.6-3.7.8-2.4 3.3-6 2.6-8.7 5.9 3.5 8.6-1 11.1-6.1.7-1.4 2.2-3 3-4.7.8-1.6 1-4.5 2.5-5.6-.7.5 1.9.6 2.3.7 1.9.4 3.4-.1 4.3 1.3.4.6-.7 2.3.5 2.8-.4-.2-1 4.2-1.1 4.3.9 1.2-1.2 6.2.6 6.7.5.1-.7 2.5-.9 2.7s-2.7.4-3.3.5c-1.8.3-4.8.5-6.5.4-.4 1.9-8.8.1-11.4 2 2.3 1.6 5.9.8 8.1.9 3 .2 4.6.5 7.7-.2.7-.2.9-.7 1.4-.8s1.3 0 1.9-.1c1.1-.2 1.9-1.2 2.7-.4.4.4.3 3.2.4 3.7.4 1.7.8 2.7 2.9 3.5 1 .4 8.1.2 7.9 0 .9 1.1 5.6-.2 7.1-.7-.1-.2-.2-1.2-.3-1.2 1.3 1.3 3.4 1.1 4.4-.2-.2.2 1.5-.4 1.7-.5.8-.5.3-.8.8-1.3-.1.2 1.5.4 1.8.1.1-.1-.3-.4-.2-.4.9-.1 2.9-2.6 2.9-2.6.2.1.5.3.8.3.1-.2-.3-.3-.3-.4.2.5.9-.5 1.1-.3.5.6.3 1.4.5 2.2.3 1 .4 2.3.5 3.4.5 2.8.6 5.9.9 9.2.2 2.3.3 4.7.6 7.2.2 1.5.3 8 1.8 8.7.1 0 .3 5.3.4 6 .4 3.8 1.5 4.1-2 4.5-2.1.3-5.9 1.1-8.1.1-.7.7-10.3.2-9 2.6-.4-.5-.7 5.3-.7 6.1.1 2.3.2 4.8.3 6.8.1 1.7 1.2 12.8.8 13.2-1 1-.2 7.3.2 8.9.1 0 1.4-.1 1.3 0-1.7 1.3-1.5 3.8-.7 5.4 0 0-.1 1.8 0 2.2.2.8.7 1 1 1.5-.4-.8-.9 3.1-.4 2-.3 1 1 4.5.9 4.7-.1.1-.7.5-.7.5.1.3.4-.1.6 0-.5-.1 0 3.5.1 3.9.2 1.2 2.1 4.2 2.1 4.5 0 .1-.6.4-.3.5 4.2 2.1 8.3 3 13.3 2.7 2.2-.1 4.7-1.1 6.1-1.4 1.3-.3 5-1.1 4.5.2.4.4.3 3.9.4 4.5s1.3 4.5.5 4.5c.2 0 .3-.1.5-.2-.5-.2 1.8 13.2 1.6 13.4-.1.1-.7-.1-.6.2.8 2.1.8 5.3 1 7.5.1 1.1-.2 6.5.5 7.1-.4-.3-5.3 2-5.9 2.1-1.5.4-3.5.2-5.1 1.1zm-65.7-73.8c0 .1-.4.6-.5.3-.2-.4.5-.6.5-.3zm-5.1 51.9c-.4.4-.4-.4-.3-.5 0 0 .8 0 .3.5zm-10.1-61.6c.9-.2 0 0 0 0zm85.6 91.7c-.5.8.4-.5 0 0zm6.3 4.7c-.1.9.2-.8 0 0zm12.4 3.8c-.1.6.1-.7 0 0zm14.7 6.5c-.4.4.2-.5 0 0zm.1-.4c-.1.1-.3.8-.3.3-.1 0 .4-.6.3-.3z" fill="#222525"/></svg>