<?xml version="1.0" encoding="UTF-8"?>
<svg width="20px" height="26px" viewBox="0 0 20 26" version="1.1" xmlns="http://www.w3.org/2000/svg" xmlns:xlink="http://www.w3.org/1999/xlink">
    <!-- Generator: Sketch 64 (93537) - https://sketch.com -->
    <title>Group 3</title>
    <desc>Created with Sketch.</desc>
    <defs>
        <polygon id="path-1" points="0 0 19.8095238 0 19.8095238 26 0 26"></polygon>
    </defs>
    <g id="Page-1" stroke="none" stroke-width="1" fill="none" fill-rule="evenodd">
        <g id="Group-3">
            <mask id="mask-2" fill="white">
                <use xlink:href="#path-1"></use>
            </mask>
            <g id="Clip-2"></g>
            <path d="M18.2844145,12.929913 C18.2844145,12.5277674 17.968733,12.2078544 17.5752498,12.17891 L17.5752498,12.1850091 L2.32423555,12.1850091 L2.32423555,12.1682629 L2.28765083,12.1682629 C1.86821615,12.1682629 1.525083,12.5094702 1.525083,12.929913 L1.525083,23.7150233 C1.525083,24.1354398 1.86821615,24.4766734 2.28765083,24.4766734 L17.521873,24.4766734 C17.9412813,24.4766734 18.2844145,24.1354661 18.2844145,23.7150233 L18.2844145,12.929913 Z M3.84934488,10.6449363 L16.0501405,10.6449363 L16.0501405,7.61658038 C16.0501405,4.25613953 13.3141031,1.5233003 9.94975585,1.5233003 C6.58538232,1.5233003 3.84934488,4.25613953 3.84934488,7.61658038 L3.84934488,10.6449363 Z M19.8095238,12.929913 L19.8095238,23.7150233 C19.8095238,24.9747745 18.7831248,26 17.521873,26 L2.28765083,26 C1.02637265,26 0,24.9747745 0,23.7150233 L0,12.929913 C0,11.6701355 1.02637265,10.6449363 2.28765083,10.6449363 L2.32423555,10.6449363 L2.32423555,7.61658038 C2.32423555,3.41677856 5.74503905,0 9.94975585,0 C14.1544463,0 17.5752498,3.41677856 17.5752498,7.61658038 L17.5752498,10.6510354 C18.8121031,10.678455 19.8095238,11.6884065 19.8095238,12.929913 L19.8095238,12.929913 Z M11.4748389,16.7564874 C11.4748389,17.3140283 11.1591574,17.7801618 10.7122974,18.0452356 L10.7122974,21.3264408 L9.18718803,21.3264408 L9.18718803,18.0467341 C8.73880142,17.7816866 8.42464653,17.3155531 8.42464653,16.7564874 C8.42464653,15.9156279 9.10635947,15.2331871 9.94975585,15.2331871 C10.7900728,15.2331871 11.4748389,15.9140768 11.4748389,16.7564874 L11.4748389,16.7564874 Z" id="Fill-1" fill="#FFFFFF" mask="url(#mask-2)"></path>
        </g>
    </g>
</svg>