<svg fill="none" height="410" width="390" xmlns="http://www.w3.org/2000/svg"><path d="m127.599 345.599c.2 2.2 22.001 4.1 28.901 4.1 5.9 0 16.5-5.6 19.8-15.7-7.5-.6-14.201-4.1-14.201-4.1s-34.7 13.6-34.5 15.7z" fill="#f45d48"/><path d="m177.5 320.8s-10.5.7-15.6-2.7c-.3-.2.2 11.8.2 11.8s6.8 3.6 14.2 4.1c.6-1.9 1-3.9 1-6.1zm18.9 48.3c2.1-7 2.5-13 2.5-13.2-7.9.4-19.9-3.8-19.9-3.8l.5 12.1s-.2.2-.4.7c4.4 2 10.9 4.5 17.3 4.2z" fill="#dbafab"/><path d="m179.199 364.8c-2.9 4.4-19.9 30.8-22.2 34.3-2.5 3.8-2.6 7.5-1.2 8s16-10.1 28.8-19.3c6.2-4.5 9.8-12 11.7-18.7-6.3.3-12.8-2.2-17.1-4.3z" fill="#f45d48"/><path d="m185.199 238.9c.7-3.4 3.7-4.8 6.8-5.2.5-.1.9 0 1.3.2.7-.6 1.3-1.4 1.5-2.5 1-6-7.9-5.9-11.5-5.7-2.8.2-11.6.8-10.4 5.7-.5.8-1.2 1.9-1.7 3-.8.7-1.8 1.2-3 1.3-2.8.7-1.8 4.9.9 4.6-.2 1.8 0 3.5 1.1 4.9.5.7 1.5.8 2.3.6.5-.1 1-.3 1.4-.5.3.5.8.9 1.3 1.2 1 .5 2 .3 2.9-.4.2-.1.3-.2.4-.4.5.6 1.1 1.2 1.9 1.5.5.2 1.1.1 1.6-.1 1.2 1.2 3.8.2 4.1-1.7-.8-2.1-1.3-4.4-.9-6.5zm60.2-116.1s-7.3 4.9-10.4 7.5-10.1 7.5-10.1 7.5 2.2 3.2 5.5 3.1c0 0-3.5 17 11.6 17.1l-2.2 7.9 18.3-1.5 14.9-21.9s2.5-2.9 1.8-4.2-4.2-2.3-4.2-2.3l-5.2.3-2.8-.4c.2.1-17.2-13.4-17.2-13.1z" fill="#dbafab"/><path d="m263.799 116c-3.5-3.5-11.2-7-16-5.1-.2.1-.4.2-.6.4-2.1.2-4.1.6-6.2 1-1.1.2-1.6.9-1.7 1.7-1.5.5-3 1.1-4.4 1.8-1.2.6-1.4 1.7-1.1 2.6-2.4 2.1-3.6 4.7-5.4 7.7-1.6 2.6 2.5 5 4.1 2.4.6-.9 1-1.8 1.5-2.7.5.1 1.1 0 1.7-.3 2-1.3 4.1-2.5 6.3-3.6.9-.5 1.8-.9 2.8-1.4 0 .3.1.6.2 1 2.2 4.6 4.3 9.6 8.6 12.7.5.4 1.2.8 1.8 1 2.9 2.5 7.4 3.5 10.6 1.3l.3-.3c1.1.2 2.2-.2 2.5-1.7 1.4-6.7 0-13.7-5-18.5zm10.301 29.8s0-.1-.1-.2c-.7-2-3.1-2.2-4.3-.6-.1.2-.2.4-.4.5-.8-.8-2.3-1.2-3.4-.2-2.9 2.2-5.2 5.1-6.6 8.5-1.1 2.5-2.3 6.3-.8 8.9.9 1.6 2.6 2.3 4.1 1.9.7.5 1.8.7 3.4.1 4.5-1.5 7.7-7.2 8.5-12.5 1-2.3 1.3-4.8-.4-6.4z" fill="#a34942"/><path d="m209.599 175.6c-.8.7-.899 1.5-.699 2.2-3.1 2.8-5.8 7-7 9-3.2 5.7-6.5 11.2-9.1 17.1-2.6 6-4.5 12.2-7.9 17.8-1.5 2.4 1.899 4.6 3.699 2.9.3.1.701.2 1.101.1l10.5-1.2c1.7-.2 4.2 0 5.6-1.1s1.7-3.4 2-5c.8-3 1.3-6 2.2-8.9 1.9-6.3 4.7-12.2 7-18.3.8-2 2.099-4.7 2.599-7.4.2-.2.501-.5.601-.9 2.4-6.1-6.201-10.1-10.601-6.3z" fill="#88d8d8"/><path d="m291.4 204.5c-.1-1.2-.2-2.4-.2-3.6.3-.3.5-.8.5-1.4.1-2 .2-4.1.2-6.2.1-3.5.1-7 0-10.5-.1-4.1-.1-9-1.9-12.8-3.1-6.6-10.2-7.3-15-2.2-5.9 6.3-8.5 16.1-11 24.1-2.6 8.7-3.8 17.5-6 26.3-1.4.6-3 1.2-4.5 1.6-.4-.1-.8-.2-1.3 0-6.2 1.6-12.5-.4-18.8 1.1-.8.2-1.3.6-1.5 1.2-1.3 0-2.6.1-3.8.2-9.5.5-19 1-28.4 2.3-1.2.2-2.1 1.8-1.7 2.9 1.6 4.3 2 6.4 6.7 6.7 5.7.5 11.2 2.2 17 2.7 12 1 23.8 4.8 35.2 8.5.2.6.7 1.1 1.5 1.4 19.4 5.9 32.7-10.3 33.3-28.5 0-.6-.1-1.1-.4-1.4.3-4.1.3-8.3.1-12.4z" fill="#88d8d8"/><path d="m129.9 79.5c10 17.1 13.5 52.2 4.4 54.1s-28.4 0-36.7-2.6c0 0 1.8-24.9-1.3-41.2s-7.5-32.5-7.5-32.5 11.9 12.5 24.8 4.5l7.9 4z" fill="#2badad"/><path d="m67.3 264.1c-3.4-.4-5.4-2.8-7.2-5.3-.5-.7-1.2-1-1.8-1-.2-.2-.3-.4-.5-.5-5.7-4-12.4 2.2-13.3 7.9v.4c-2.5 3.9-2.1 7.2-.4 12.2 2 6 5.2 11.4 9.2 16.3.4.5.9.8 1.4.8 1 .4 2.2.3 2.8-1l1.5-3.3c.5-1.1 1.1-1.4 2.1-2.1 1.9-1.3 3.7-2.8 5.5-4.2 1.1-.3 2-1.3 1.5-2.8-.8-2.1-1.5-4.1-2-6.3-.8-3.2.5-5 2.9-7 1.8-1.4.1-3.9-1.7-4.1zm16 29.7c-1.2-.1-2-1-3.2-1.1-.2-.3-.4-.5-.7-.7-.4-.6-1-1-1.8-1-.8-1.2-2.4-1.8-3.5-.4s-2.2 2.8-3.3 4.3c-1.6 2.2 1.3 4.1 3.3 3.1.4.3.9.5 1.5.4.9 0 1.7-.2 2.6-.5.2 0 1.8-.5 1.1-.6.3 0 1.2.7 1.6.8.8.3 1.5.3 2.3.4 3.1.2 3.1-4.6.1-4.7zm-14.1-160.5c-1.7-2.4-4.3-4.2-7.1-4.9-1.5-.4-3.1-.4-4.7 0s-3.3 1.9-5 2.5c-.4-.7-.7-1.5-1.2-2.2-.5-.6-1.6-.9-2.3-.6-3.4 1.1-6.5 4-8.1 7.3-.8.1-1.6.6-1.9 1.6-1.9 6.2-.5 14.2 5.2 18 2.7 1.8 5.6 1.7 8.5.3 4.3-2 8-5.1 12.4-7.2 2.7-1.3 5.5-2.7 6.4-5.8.8-2.9-.4-6.5-2.2-9zm138.4-65.5c-.7-1.7-2.2-2.9-3.2-4.3-.6-.9-1-1.9-2.1-2.4-3.4-1.5-5.1 2.3-6.5 4.6-1.2 1.8-8.2 12.4-10.3 9.6-.4-.6-1-.9-1.5-1 .5-1.1.9-2 1.2-2.8 1-2.9-3.6-4.2-4.6-1.3-2.5 7.5-7.7 17 3.2 20.1 8.4 2.4 17.9-4.5 21.8-11.5 1.7-3.3 3.6-7.2 2-11zm-98.2-53.6s3.7 13.4 17.4 15.8c0 0 0 3.9-6.6 3.6 0 0-2.3 14.2-14.2 14.4l5.2 14.1s-9.3 6-19.4-1.9-6-18.1-6-18.1l-5.7-9.2.8-6.6 12.2-4.4z" fill="#bd7b77"/><g fill="#222525"><path d="m175.899 234.1c-.2-.3-.5-.7-.7-1-.9.4-2.7 2.8-1.5 3.7-.4-.4-1.4 1.9-1.4 2-.2 1.6.1 1.2 2 1.7-.1-.3-.2-.6-.4-.8.9.4 2.6-5 2-5.6z"/><path d="m171.499 239.899c-.6.3-.5 4 .5 3.7-1.7.6-.3 3.2.4 4 1.3-1 1.8-1.8 1.8-3.4 0-.3.7-2.9-.2-2.9.3-.2.5-.4.7-.6-1-.3-2.1-.5-3.2-.8zm9.601-4.6c-.2-1-.3-1.6-1.1-2.4-.9.7-2.2 3.6-.9 4.4-1.2-.7-2.7 8.8-.6 7.6-1.7.9.3 3.6 1.3 4.3 1.9-2.5 0-6.1 1-7.8l-1-1.1c.5.4 1.4-4.3 1.3-5zm2.9 4.501c.6.3 1.6.4 2.3.4-.2-.2-.4-.5-.6-.7.4-.2.6-.5.7-.9 0-.8 0-1 .1-1.8.1-1.4.2-2.3-1.1-3.7-.9.6-1.9 3.2-.6 3.9-.6-.2-1.3 2.6-.8 2.8z"/><path d="m187.4 244.8c-.7.1-.2-4.4-1.2-3.9.2-.2.4-.4.6-.7-1.7 0-3.1-.6-3.4 1-.1.6.7 2.9 1.5 2.4-1.6.9.8 3.1 1.7 3.5.1-.1 1-2.3.8-2.3zm83.6-94.2c-1.6-3.3-3.5.7-1.9 1.9-.2-.2-2 1.6-2 1.8 0 .5 1.7 1.8 1.7 1.8s0-.8-.1-.9c.4.9 2.8-3.4 2.3-4.6z"/><path d="m267.9 156.8c.4 0 .7 0 1.1-.1-.8-.9-1.8-2.4-2.8-2.1-.4.1-1.8 1.7-1.4 2.2-.7-.8-2.6 0-3 .8-.8 1.6.6 1.2 1.7 2 .3.2 5.1-2.5 4.4-2.8zm-15.7-9.201c-.9-.5-1.5 0-2.3-.4.4.2-3.5 1.6-3.3 2-.2-.2-.4-.3-.5-.5.2.1-.7 1.1-.7 1.2 0-.8-2.1-.8-2.5-.9.3.1-2 0-1.3-.4-.6.4-1.7.5-2.3.8.3 1.1 2.9 2.7 3.7 1.4-.3.5 2 1 2.1 1 1.6-.2 1.2-.2 1-2.1.2 2-.3 2.7 1.7 2.3.5-.1 2.4-1.1 1.7-1.8 1.4 1.1 2.5-1.6 2.7-2.6zm-10.6-12.699c.9.4-.2 2.9 1.5 2.6-.8.1 1.6 3 2.2 3.2.7.2 4.7-.5 3.5-1.5 1.3 1 2.4-1.7 1.8-2.6-.8-1.3-2.1-.1-2.4.9-.1.3-1.7-.3-1.9.9-.1-.2-.2-.4-.3-.7-.2.4-.5.7-.8.9.4-.9-.6-1.5-.8-2.1.1.3-1.2-1.5-.4-1.2-.4-.1-1.7-1.4-2-1.3-.1.1-.8.8-.4.9zm-66.7 248.2c.1-.5-.4.3 0-.4 0 0-1.3.4-.5-.5-.2-.1-.9-1.4-1.3-.5.1-.2.2-.4.2-.7-.8.8-1.6 1.6-2.3 2.5-.2.6 1.7.2 1.8.1-.1.2-.2 1-.1 1 .8-.2 2-.4 2.2-1.5zm4-5.001c.1 0-.4-.6-.9-.7 0-.2 0-.4.2-.5-.1-.1-1.1-1.5-1.5-.6.1-.2.1-.4.2-.6 0 .7-2 1.9-2.4 2.4-.2.5 1.7.8 2 .3-1.7 2.4 3.3-.3 2.4-.3zm-113.8-233.599c-.1-.1.9-.1.9-.1l-.3-2.4c-.3.2-.6.4-.9.7-.1-.3-.3-.5-.7-.5-1 .2-1.9.3-2.9.5-1.7.5-4.1 1.1-4.1 3.2 1.1.3 4.3-.1 4.6-1.6 0 .7 3.3 0 3.4.2z"/><path d="m74.5 142.199c-.4-1.5-8-1.3-8.8-.6.3 1.9-.3 3.1 1.6 3.3.5.1 3.2-.6 2.9-1.4.7 1.6 4 .4 4.9-.2-.2-.4-.4-.7-.6-1.1zm-4.5-6.8c-.9.5-3.3.3-3.8.1.1 0-1 1.2-1 1.2 0-1-7.4 0-7.4 2.9 1.6.5 2.9-.5 4.3-.9.7-.2 1.3-.4 2.5-.3.7.1 6.4.9 5.7-.9.7 1.6 3.7.4 4.7-.2-1.3-1.7-2.2-2.1-4.3-2.1.9.1-1.5.6-.7.2zm-12-.099c0-1.1 2.8-.2 2.7-1.7 0 .5 7 .3 6-1.6.8 1.6 6.1-1.6 1.2-2.4-.7-.1-4.4.5-4 1.4-.3-.2-.6-.3-.9-.4-.1.4-.2.9-.4 1.3 0-.6-8 .7-4.6 3.4zm142.4-70.5c-.1.4-.7.9-.1 1.2-1.1-.5-1 1.1-.6 1.6-.3-.6-3.9 3.2-4 3.2.1 1-.6 1.6-.4 2.7 1.6 0 2.3-1.4 3.2-2.4.5-.5 1.2-1.3 2.2-2 .6-.4 4.5-3.9 2.5-4.4 1.8.4 1.8-3.1 1.6-4.1-1.6.3-4 2.3-4.4 4.2zm4.599 2.3c-.3.4-2.2 2.5-1.3 2.9-1.1-.5-1 1.1-.6 1.6-.3-.6-3.9 3.2-4 3.2.1 1-.6 1.6-.4 2.7 1.6 0 2.3-1.4 3.2-2.4.5-.5 1.2-1.3 2.2-2 .6-.4 4.5-3.9 2.5-4.4 1.8.4 1.8-3.1 1.6-4.1-1.7.3-2.5 1-3.2 2.5zm-107.799-27.8c1.2-.6 2 2.3 3.299 1-.9 1.1 7.6 3.8 6.4 1 .8 1.6 3.1-.5 3.5-1.4-.7-.3-1.6-.6-2.1-1.2.6.6-1.6.4-1.3.3-1.3.2-2 .6-2.8 0 .1.1-1 .9-1 1 .2-.5-3.7-2-3.6-2.1-1.4.7-2.3-.3-2.4 1.4zm7.3-9.7c.9 1.1 1.8 2.1 3.2 1.2.4-.2 1.5-2.3 1-2.8-1.2-1.6-5 .9-3.8.9-.2 0-.3.7-.4.7zm3.9.4c.2.1 0-.1 0 0zm-1.8 1.1c.1 0 0 .2 0 0zm255.699 272.7h.1c-.2 0-.3.1-.5.1.1.1.2.1.4-.1zm-267.599-238.6h-.2c.1 0 .1.1.2 0 0 .1 0 .1 0 0zm30.799-16.7c0-.1-.1-.1-.1-.1 0 .1.1.2.1.3zm-4.999-13.2c.1-.2 0-.3-.2-.3 0 .1 0 .1.1.1 0 0 .1.1.1.2zm97.1 174.4c.1-.3 0-.2 0 0zm21.7-98.1v.1c.1 0 .1 0 0-.1zm-191.8 14.4c.2.2.5.3.6.1-.1-.1-.1-.2-.2-.3-.2 0-.6 0-.4.2zm124.899 255.5c.1-.1.3-.1.4-.2-.1 0-.3.1-.4.2zm50.601-188.3s.1 0 .1-.1c0-.2 0-.1-.1.1zm4.2-59.4s-.1-.1 0 0c-.1-.1-.1-.1 0 0zm-38.9 23.5c.1-.1.2-.1.2-.1h-.2zm54.9 82.8h.2c-.1-.1-.1-.1-.2 0zm-82.2-124.6h-.2c.1 0 .1.1.2 0 0 0 0 .1 0 0zm97.1 13.7.2.2c.4-.3-.1-.3-.2-.2zm-189.7 138.2v-.2c-.1.1-.1.2 0 .2zm166.699-139.7v-.3l-.2.2c.1.1.2.2.2.1z"/><path d="m389 301.9c-3.2-1.3-6.8-.4-10.1-.2-4.3.2-8.7-.3-12.9-.5-5.5-.2-10.4.3-15.7.4-18.1.1-36.3-.3-54.4-.3 0 .1.2 1.5-.1 1.3-2.6-2.1-5.2-1.3-8.4-1.3-2.3 0-5.2-.9-6.9.6.5-.5-4.9-.6-5.2-.7-1.3-.1-2.2-.2-3.6 0-.2 0-3.9.5-3.2-.4 1.8-1.9 6.2-.7 7.9-3.5-.7-.2.8-1 1.1-1.6 1.2-.6 2.2-2.6 3.1-3.5 1.2-1.2 2.3-2.4 3.2-3.8 2.2-3.3 3.3-7.3 4.2-11.1 1-4 1.8-8 2.1-12.1 0-.3.5-7.3-1.1-6.3.2-1.2.6-.5 1-1.6.4-1.3.5-3.4.5-4.7 0-1.6-.4-2.3-.3-3.7.1-1.2.3-2.3.6-3.3 1.4-4.5 1.7-10.2 1.8-15.1 0-1.6-.4-2.8-.3-4.2.3-2.4.6-5 .8-7.5.8-10.6 1.6-21.6 1.2-32.2-.1-3.9 0-8.1-1.3-11.8-.4-1-3.7-5.6-3.6-6.1 1.5-1.6-5.5-5.5-7.4-5.9-3.3-.8-6.8-.2-10.2-.3-2.3-.1-3.6-.7-4.8 1.5.1 0 1.3 0 1.3.1-.1.3-8.6-.7-10.1-.6.9-.6 1.1-6.4-.1-6.4 1.6-.2.2-3.9 1.9-3.7-1.4-1.4 6.9-7.8 6.9-7.8-.2 1.6 4-.5 4.6-.6 2.6-.4 1.1 1.8 3.1 2.3-.5-.1-.5 3.2-.3 3.5-.9.7-.5-.6-1.1.8-.2.4-.6 2.4.1 2.6-1.5-.3-2.4 2.5-2.6 3.5 2.5.6 4.5-1.6 5.4-3.7.4-.6.4-1.3 0-1.9l.6-.6c0-.4-.4-1.6-.5-2.2-.3-2.1.1-3-1.1-5-.6-1-2.1-1.8-2.2-2.1-.1-.1 1.8.2 1.7.4.1-.1-.5-.9-.3-1.1.3-.3.8-.3 1-.8.1-.3.8-1.9.6-2-.3-.1-.7-.1-1-.3.3 0 .5-.1.5-.4-.4.7-.9-1.6-1.1-1.6 1.4-.3 2-6.7.6-7.1.8.3-.7-5.1-.2-5.5-.8-.1-3.8-5.9-4.3-6.5-.8-.8-4.7-4.2-5.6-3.6.7-.6-4-2.6-4.6-2.8-.5-.2-2.1-1.2-2.6-1-1 .4 0 1.5-.3 1.9-.2.2-.6-1.7-.4-1.6-.4-.1-3.7-.7-3.6-.8-.1.3-.3.6-.5.9.1-.3.1-.5-.2-.6 0 .2-.1.4-.1.6-2.1-1.2-3.6-1-6.1-.6-1.7.3-3.7.3-5.3.9-2.1.8-.5 1-1.4 2-.2.2-.4-.3-.4-.5 0 .5-1.9.4-1.7.2-.2.1-1.3 1.8-.5 1.8-.3.1-1.6-.4-1.4.4-.4-1.2-6.7 4.8-7 5.2-.3.3-2.1.9-1.8 1.7-.2-.1-.5-.2-.7-.4.6 1.9-.3-.3-.3 1.2 0-.6-4-.3-3.8-.6-.5.6-1.5.8-2 1.3.5.9 2.9 1.9 3.6.6-.2.4 3.8.7 4.4.8-1.8-.5-.5 7 .7 5.3.5 1.5-6 4.5-6.8 5.9-1.3 2.1.1 3.7 1.8 4.9.1 0 3.3 2.1 3 1.1.2.7 2.3 1.3 2.5.7-.1.3.1.4.4.2.2.1-.4 1.8.8 1.3-2.5 1.3-.5 4.2-.4 5.9.2.1.3.3.5.4-.3.3-.5.6-.6 1 0 .3.4.9.4.6 0 .3 1.6 3.6 1.7 3.2-.2.2-.3.4-.5.7.1 0 .2 0 .3-.1-.1.9 5.3 4.2 5.2 3.8.4 1.1.5.3 1.8 1 .5.2.3-.2.7.1.3.2.2.9.7 1.1-.5-.3-1.5 1.3-1.3 1.5.1 0 .3.1.4.1-.5-.1-.9-.2-1 0-.4.5 0 1.8.7 1.9-.8 0-1 .3-.6 1-5.9.5-12.1 1.1-17.8 2.8-.7.2-6.1 2.1-4.6 3-.4.2-.7.3-1.1.2v-.6c-1.3-.7-5.7 3.6-6.2 4.5-1 1.6-1.6 2.9-3.1 4.1-5.1 4-7 10-9.9 15.7-.8 1.5-1.8 2.8-2.4 4.4-.7 1.7-.7 3.5-1.5 5.1-1.8 3.4-3.5 6.8-5.1 10.4-.9 2.1-1.8 4.2-2.3 6.4-.2.7 0 2.2-.6 2.7-1 .9-6.5-.5-6.4 1.8-.8-3.1-7.2 7.1-7.4 7.3-.5.6-2.5 2.5-3.4 2.6-1.4 0-1.3-1.2-1.8-2.3-.2-.5-1.6-3.9-2.4-3.2 1.3-1.1-2.2-4-1.5-4.9-1.1 0-2.7-4.6-3.2-5.5-.5-1-3.1-5.8-4-5.7.7-.1-1.8-4.4-2.1-5.1-.3-.6-.7-1.7-1.2-1.9-1.2-.4-.8 1-1.4 1-.3 0 .8-1.6 1-1.4-.3-.5-.8-.4-1.1-1.2-.2-.4-.1-2-.4-2-.3.1-.6.1-1 .1.3 0 .4-.2.4-.5-.2.1-.3.1-.5.2.3-3.1.1-6 1.1-9.3.4-1.3 2.5-7.3.7-8.2 2.4-.3 2.7-10.1 3-11.2.6 1.8 7.8 3.2 9.2 3.1 1 0 1.9 0 2.9-.1 1.9-.2 3.9.3 5.7-.6 1.6-.8 3.2-2 4.1-3.6 1.4-2.2 1.3-4.4.9-6.8-.3-1.8-.1-5.2-1.4-6.5 1.2-.2 3 .7 4.3.8.9 0 1.7 0 2.7.1.9.1 2.2.7 3.2.4l1.5-.3c1.4-1.4 9.6-2.3 8.3-5.4.1.2 3.2-5 3.5-5.7 1.7-4.7 1.8-10.4 2.2-15.3.2-2 0-4 .1-5.9.1-1.2.3-2.6.3-4.1 0-1 .1-7.5-1.4-6.2 1.9-1.9 1.2-3.2 1.1-5.8 0-.7.3-1.5.2-2.3-.1-.5-.8-1.6-.8-1.9 0-.6.8-1.3.9-2-.1.4-.2-1.5-.2-1.9-.1-.8-.4-1.7-.4-2.5 0-.2.3-1.2.4-1.3-.2-.1-.3-.1-.5 0-.5-.2.1-11 .4-12.1.7-2.8 4.3-5.2 6.1-7.2.8-.9 1.9-2 2.3-3.2.3-.8.3-1.7.6-2.3 1.3-2.1 3.2-3.2 2.6-6.3-4.1 1.6-5.6 7.7-8.8 10.3-1.6 1.3-3.3 2.4-4.5 4.1-1.7 2.5-1.5 5.2-1.8 8.1-1.6-1.7-7.3-1.5-9.6-2.3 0 .1-.1.2-.1.4h-.5c-1.9-.5-3.7-1.6-5.4-2.6-2.5-1.6-2.6-3.2-1.9-6.1.4-2.1 1-4.8 1.9-6.8.7-1.5 3.1-2.9 3-4.6 0 .6 0 .1.3-.3 0 .3 0 .9.2.7-.5.4-.5.5-.1.4-1.6.3-2.1 5.7-1.3 6.8 2 2.6 5.6-1.2 6.9-2.6 2.1-2.2 3.1-4.6 4.8-6.9 1.1-1.5 2.8-2.4 3.8-4.1 1.1-1.8 2.1-3.9 2.3-6.1-5.3 4.5-9.2 10.7-14 15.7 1.3-2.1 4.5-8.5.6-9.7-3.7-1.2-7.3 5.4-8.6 7.9-2.3 4.4-3.4 9.8-3.7 14.8-.2 2.2.4 3.7.8 5.8.1.4 0 3.3.3 2.9-1.3.3-.1 7.6 0 9.3.2 2.2.3 4.4-.1 6.7-.3 2-1.3 3.1.1 4.7l.6-1c1 1.2-3 2-4 1.3-.2-.1-2.9-3.7-4.1-4.4-.4-1.4-2.3-3.3-3.1-4.7-2-3.4-3.9-6.8-6.3-10-2-2.8-2.9-3.9-1.6-7.1.5-1.2 1-2.4 1.2-3.8.1-.7-.2-.7-.2-1.3 0-.5.7-.8.6-1.2 0 0-.3 0-.6-.1 1.6-.3-.1-4.4 1.1-5.1-.6-.3-.4-2.5-.5-3.1-.4-1.7-1-3.7-1.8-5.3-.6-1.2-4.2-6.8-6.2-5.2.2-.1-7.1-2.9-8.9-1.4-.2-.1-.4-.1-.5.1.2-.5 1.4-2.5 1.1-2.8-.3-.1-.6-.3-.8-.5.3.1.5 0 .6-.2-1.1.9.5-2.7.5-2.4.4-2.3-1.2-5.9-2.9-7.4-.8-.8-7.1-4.3-6.3-1.3-.7.2-.2-.5-.3-.8.1.5-1.6-.2-1.7-.2-.4 0-2.1 1.4-1.6 1.4-.6.1-1.6-.9-1.6 0 .1-1-2.4-.6-2.5.2.1-.6 0 .1-.1.1-.2-.1-.4-.6-.7-1.3-.2.1-.8 0-.6-.2.1-.1.3-.1.5-.1-.5-1.2-1.1-2.8-1.5-3.3-.2-.3-1-.1-1.3-.4-.4-.4-.2-1-.8-1.4-1.6-1.3-3.4-.2-4.6-1 .5-.1.6-.4.2-.8-.1-.1 3.7-.2 4-.7-.2.3 2.8 1.3 3.1 1.3 1.2.2 2.4-.7 3.4-.5 2 .3 2.5 4.1 4.1.9.1.3.2.5.2.8.4-1.2.6.6.8.2.3-.5.3-.9 0-1.4.2.1.3.3.4.5-.1-.4 0-.4.4 0-.1-.1-.1-.2-.1-.3 1.1 2.2 2.6-2.2 1.7-2.2.6 0 .6-.4.7-.3-.2-.2-.3-.5-.5-.6.3 0 .5 0 .6-.1.1-.4-.1-.7-.1-1.1.1-.8-.7-1.7-1.5-2.1-.4-.2-5-1.5-4-.5-.3-.3-.5-.4-.4.3-.2-1.1-4.4 2.8-1.5 2.8-.3-.1-.2-.1.1-.1-.1.3-1.1-.1-1.1 0 .3.1.4.3.6.5-.8.1-2.3-.4-2.7.7-.2-.2-.5-.4-.7-.6-.2.4-.5.7-.8 1.1.5-1-4.8-.9-4.6-1-.1-.5 1.4-3 1-3.9 0 0-.1-.1-.1-.2-.2-.1-.4-.2-.9-.1.4.2-.3.4-.5.1 0 0 .9-.3 1.3-.1-.1-.3-.3-.6-.1-.6.4.2 1.8 1.2 2 .8l.3-.9c-.1.3 0 .5.3.6-.9-1 1.7-.3 1.6-.2 1.8-.5 3.1-1.5 3.9-3.4 1.1-2.8-3-7.7-3.9-4.7-.4 0 .1-.9.1-.9-.4.1-1.1-.8-1.2-.9-.2-.4-1.1.7-1.2.5.2.2 2.6-4.7 2.7-5.4.8-3.8-1-6.9-3.1-9.5-2.1-2.7-5.8-2.2-8.1-4.4-2.1-2.1-3.2-3.8-6.5-4.9-10-3.3-22.4 3.2-29.8 9.6-7.7 6.8-12.2 16.6-12.2 27 .4-.2.8-.2 1.3-.1-1.2 2.4-5.9-.1-7.7-.5-1.7-.3-3.7-1.5-5.5-1.1-.4.1-1.6.7-1.7.7-.4 0-1-.4-1.4-.4-1.9.1-3.4.7-5.2 1.3-.6.2-7.1 4.2-6.9 4.6.7.6-.1.3-.7 1.2-.7 1-1.4 1.7-2.1 2.9-.9 1.7-1.2 4.2-2.4 5.8-1.1 1.4-1.3 1-2.8 1-3.6 0-7.3 1.2-10.3 3.1-5.6 3.4-9.1 10.6-7.8 17.1.6 3 2.6 4.3 4.1 6.7 2 3 4.1 4.1 7.7 4.5-2.4 1.8-4.7 4.5-7 6.6-2.9 2.7-5.8 5.8-8 9.2.1 0 1.4.7.9.9-2.5 1.1-3.1 1.4-4.7 3.8-1.1 1.7-1.9 3.4-2.8 5.1-1.2 2.2-1.9 3.5-1.4 6.1.1.6.6 1 .6 1.4.1.5-.5.7-.4 1.3.5 2.2 1.7 4.7 3 6.5.5.7 4.8 5.3 4.4 5.6.6-.5 1.2.9 1.9 1.8 1.1 1.3 2.4 2.5 3.7 3.7 2.3 2.2 5.2 4 7.4 6 3.4 3.2 7.9 6 11.8 8.8.9.6 6.9 6 8.8 5-.7 1.6 3 2.7 4.2 3-4.3 4.3.5 13.5 5.7 14.5-2.9 3.9 2.1 11.7 4.1 14.9 3.1 4.9 5.9 8.6 10.5 12.3 1.8 1.5 4.6 2.9 6.1 4.6 1.7 1.9.8 2.2-.3 4-1.5 2.8-3.2 5.3-4.6 7.7-.9 1.5-2.5 2.6-3.1 4.3-.5 1.3-.1 1.6-.9 3-2.2 4-4.5 7.8-6.7 11.8-1.7 3.1-3.8 6.9-5.4 9.5-.5.8-4.9 8.4-2.9 7.9-1.8.4-3.5 2.2-3.5 4.2 0 .3-1.3 2.4-1.4 2.7-.2.4.2.7 0 1s-1.2.8-1.5 1.2c.1-.2-.8 2.2-1 2.6-.2.6-.1 1.4-.3 2-.1.3-.8.2-.9.4.1.1.2.2.3.2-.6.7.7 9.5 1.5 8.7-.8.8 2.2 7.6 2.9 9.1.6 1.2 5.6 7.5 5.7 7.2-.7 1.8 2 2.2 2.5 3.5.2.5-.7 3.4-.8 3.4-.9-.9-5.3-10.1-7.1-8.6-.4-.2.6-.7.6-.7-1.4-.4.2-.8-.4-1.5-.1-.1-1.6-.8-1.6-.2-.1-.6.3-.7.3-1.4-.1 0-.2 0-.4.1 2.3-.4-4-8.1-4-8.1.5-.5-1.1-4.7-1.4-4.8-.9-.3-1.5-1-2.4-1.2-.4 1.1.3 3.9 1.7 3.9-.6 0 1.5 5.5 1.8 6.2.8 2.1 1.9 3.6 3 5.8 1.2 2.3 2.3 4.8 3.6 7.1.4.6 3.8 4.8 4 4-.1.7.2.5.6 1 0 0-1.3.1-1.1.3-1-1-2.9-.1-4.6-.2-2.2-.1-4.6-.5-6.9-.5-3.8 0-7.9-.3-11.7.3-3.9.6-7.9.1-11.7 1.6 3.1 2.1 8.5 1.7 12.2 1.7 4.8-.1 9.5.1 14.3.1 4.9.1 9.8-.1 14.7-.1 2 0 9.6 1.2 11.3-.7.2.1.3.3 0 .4 0-.1 16.1 2.1 16.6-1.1.4.5 8.2 1.8 8.2.2.1.6 2.2.5 3.7.6 4 .4 8 .4 12 .6.8 0 12.1.7 10.9-1.4 1.2-.2.3.3.6.8.6 1 5.6-.4 6.2-.4 1.2-.1 1.9.4 2.8.7 1.8.4 3.4.4 5.2.3 4.1-.2 8.4-.1 12.4-.7 4.3-.7 9.4-.1 13.8-.1-.7 1.9.1 5.4.2 7.6 0 3.2.4 6.4.5 9.6.1 2.1.9 5.1.3 7.1-.8 2.6-2.8 2.2-5 3.3.1 0 .7 1.3.4 1.2-3.6-1-6.1 1.1-9.3 2.5-1.3.5-2.9.6-4 1.4-.6.4-1.2 1.2-1.5 1.4-1.8.8-3.6 1.1-5.3 1.7-.6.2-6.4 3-6.5 2.8.5.9-3.7 1.8-4.2 3.4-.9 3.1 4.4 3.8 6.4 3.9 5.4.4 10.7 1.1 16.2 1.7 2.7.3 5.2.7 7.9.5.5 0 1.1-.6 1.4-.6.1 0 .3.5.6.5 1 0 2 .2 3.1.1 2.2-.2 4.4-.9 6.6-1 3.2-.2 6.9.6 9.8-1.3 0 .2-.4 2.6 0 2 .6.8-.3 11.1.2 11.1.9-.1 0 2.3-.5 3.1-1.2 2.4-3.4 4.3-4.8 6.7-1.7 2.9-3.5 5.1-5.2 8-.6 1.1-12.2 17-10.3 17.9-.9-.5-1.8 2.1-2.4 3-.8 1.3-2.2 3-2.2 4.6-.1 4.6 4.9 2.5 7.3 1.2 1.9-1.1 3.3-2.5 5.2-3.7 3.3-2.1 6.6-4.2 9.8-6.4 7.8-5.2 16.6-10.9 23-17.8 3-3.2 4-7 4.8-11.2 1-5.1 2.1-10.2 2.9-15.3-.1 0-1.5 0-1.2-.3 1.6-1.9 1.9-2.4 2.3-4.9.3-2.2.5-4.4.9-6.6.5-3 .9-6 1.5-8.9.3-1.4 2.6-12.5 2.4-12.6-.7-.1.4-3 .6-4.2.7-3.7.6-7.7 1.8-11.3 3.1 1.4 6.7.3 9.9.4 2.6.1 5.1.3 7.7 0 5-.5 10.3.5 15.4.3 6.1-.2 12.1-.3 18.2.1 2.4.1 4.6.1 6.9-.2.6-.1 3.6-.8 3.7-.7.3 1.4 7.9.7 9.7.6 2.4-.1 4.8.2 7.2.1 3-.2.9-1.9 1.5-2.1.7-.4 1.1 1.2 1.4 1.2 1 .3 2.2 0 3.2.1 1.6.2 3.9 1.3 4.9.3-.3.3 1.6-.5 1.8-.6-.6.3 4.1.6 4.7.7 4.8.4 9.6.3 14.5.5.9 0 13.9.5 12.8-1.4 1.5-.2.3.2.7.8.8 1.4 8.1-.7 9.8-.3 3.7.9 7.4 1 11.5.9.9 0 1.8-.3 2.7-.5-.1-.2.2-.9.6-.5.1.2 0 .4-.2.4.3-.1.6-.1.9-.1 1.1 0 1.9.4 2.9.5 1.8.1 3.4-.7 5.1-.8 5.6-.1 13.1 1.7 18.3-1.3 1.1-1 .9-1.1.6-1.2zm-160.9-178.4c0-.1.1-.1 0 0zm-26.6-39.9c0 .1.7.4.4.6-.2 0-.7-.2-.4-.6zm-2.8 32.6c.2 0 .2.1 0 .4-.3.1-.3-.3 0-.4zm-.4.9c.6-.6.3 0 0 .6-.1-.2-.1-.4 0-.6zm-14.3-44c-.2-.3-.1-.4.2-.4.1.3 0 .4-.2.4zm1.7 2.5c.2.5-.1.2 0 0zm-1-3c-.6.1-.9-.1-.4-.6.3-.2.4.5.4.6zm-27.1 11.2c-.2 0-.3-.1-.3-.1.1 0 .2.1.3.1zm-22.5-43.3c.1-.1.4.1.5.2s-.5-.2-.5-.2zm-122.5 27.1c.2 0 2 .3 2 .4-.7-.1-1.3-.2-2-.4zm2.9-5.6c-.3.2-.4.1-.3-.2.2-.2.3-.1.3.2zm.5-.4c-.1 0-1.6-.4-.2-.7.2.2.3.5.2.7zm26.2 220.7c-.9.5.7-.4 0 0zm-5.4 19.6c-.2-.1-.2-.3 0-.4.2.2.2.3 0 .4zm.4.3c0-.1-.4-.8 0-.7.5.1.4.7 0 .7zm16.2-1.9.2-.1c-.1 0-.2.1-.2.1zm235.5-38.9c-.3.1-.4-.4.2-.4.2.2.1.3-.2.4zm2.1-48c.2-.3.3-.3.4 0-.2.4-.3.4-.4 0zm1.3 15.5c-.2-.2-.3-.4-.3-.7.1-.8 1 .6.3.7zm-.7-16.1c-.2.1-.3.1-.5.2-1.1-1.3 1.2-.5.5-.2zm-6.7-46.1c1.8 1.4 2.8 3.1 3.8 5.3.3.7 2.6 5.9 1.9 5.9 1.2-.3.7 5.5.7 6.9 0 3.4.3 6.9-.1 10.1-.6 5.1-.5 10.3-.8 15.4-.1 1.3-1.5 8.9.5 9.8h-.8c.7 3 0 6.6-.4 9.6-.3 1.9-1.9 6.5-.1 8.1-.2-.1-.4 4.6-.5 5.1-.3 3.4-.5 6.7-.8 10.1-.1.6.1 2.9-.6 3.3s-2.7-1.4-3.3-1.7c-1.4-.7-2.8-1-4.2-1.6h-1.1l-1-1c-.1.4-.3.7-.5 1-.1-.8-.7-1.6-1.6-2-1.8-.9-3.3-1.2-4.9-1.8-2.4-1-4.8-1.8-7.2-2.8-1.4-.6-7.8-3.9-9.4-2.6.3-.3-4.9-2.1-5.5-2.3-1.1-.4-2.5-1.3-3.6-1.4-.1 0-2.3-.3-2 .7-.2-.3-.4-.6-.3-.7-.3.1-.8.6-1 .5-.5-.3-.7-.8-1.2-1-.3-.1-2.2-1.1-2.3-1-.2.3-.5.5-.8.7.2-.3.1-.5-.2-.7.5.9-3.3-1.1-3.5-1.3-2-.8-4.2-.9-6.3-1.5-1.1-.3-8.7-2.8-8.3-.2-.8 0-.2-.5-.3-.8.1.5-1.7-.6-1.8-.6-1.6-.3-1.7.8-2.2.8-.7-.2-1.3-1.5-1.8-.7.6-.9-4.9-1.6-5.5-1.6-1.5-.1-2.9.2-4.3.1-.7-.1-2.8-.3-2.5-.6-.4.4-.4-3.4-1.7-2.8.2-.2.3-.5.4-.7h-1.2c1.4-.7-.7-2-.7-2.2.2-.1.2-.2.1-.2 4.2-.7 8.4-.5 12.6-1.1.7-.1 5.4-1.6 5.6-1.3.4 1.5 6.5-.1 8-.3 2.3-.3 8.9.7 9.3-2 0 0-1.1 0-1-.1.8-.9 1.1.3 1.9.4s2.3-.1 3.3 0c.2 0 4.2 0 5.2-.6 1.6.5 5.5-.2 7.5-.2 3.8-.2 7.7-.5 9.5-4.3.5-1 3.3-13.2 1.3-12.4 0-1.3.3-.3.9-.5 1.1-.4.9-5.8 1-6.7.4-2.1 1.9-3.3 2.6-5.4 1-2.9 1.6-5.9 2.3-8.9.2-1 2.8-6 1.2-6.3.9.3 5.1-7.9 6.2-8.8 2.6-2.2 7-3.1 9.5-1.1zm-10.7 86.3c.5-.3 0 .8 0 0zm0-.5c0 .2-.1 1-.4.4-.1 0 .3-.4.4-.4zm-30.3-11.3c.2 0 .3 0 .5.2.3.6-.1.3-.5-.2zm-23.1-5c-.2 0-.3-.2-.1-.4 0-.3.1.3.1.4zm-15.9-3.1c.1-.2.1-.3.4-.4.7-.1-.9.9-.4.4zm-3.8-.4c0-.1 0-.1 0 0zm7.2-17.6c-.2 0-.5-.1-.2-.2.4 0 .9.2.2.2zm.1.1c-.1.1-.5.2 0 0zm.9 2.8c.2-.1.5-.2.7-.3.1-.1-.1-.2-.3-.3 1-.3.2-3 1.5-3-1.4-1.1 2-2.4 2.2-2.4.5-.1 1.7.7 2.2.2.3-.3-.4-2.4-.3-2.4-.1.2-.2.5-.4.7 0-.9-2-.4-2.4-.4 0 .2 0 .3-.2.5.5-.4.3-5.4 1-5.7.5-.2.7-.3.1-.8.7.5 1.9-3.6 2.1-4.2.5-2.5-.3-1-1.3-2-.1-.1 1.7-.3 1.6-.1.2-.6-.7-.5.2-1.2.5-.4 2.6-.6 2.8-1.4-.1 1 6.4.8 6.5-.1 0 .3 11.7-.3 11.8-.4 0-.2 0-.4.1-.6.3.6 4.3.7 4.1-.8.1.5.3 1.3.6 1.2.5-1 1.9.5 1.8-.5.2 0 1.5-.7 1.7-.8-.7.6 1.7 1.2.9.5 0 0 2.2 0 2.2-.4.1.2.1.4.2.6v-.4c.4.7 3.8-.1 3.7-.3 0 .2 0 .4.1.6.3-1 4 .5 5.1-.2.3-.2.5-.5.6-.8.1.4.2.8.6.9.6.2 2.2-.6 2-1.3.3.8 1.1.7 1.6.3-1.4 2.4-1.7 5.9-2.2 8.6-.1.8-.9 6.5-1.7 5.3.4.6-2.1-.2-2.1.3 0-.7-1.3-.1-1.2-.3-.3.1-.4.4-.5.7-.3-1.5-3.1.3-3.5-.8-.4 1.3-8.8-.3-9.2 1.3 0-.2 0-.3-.1-.5-1.2.3-2.5.4-3.7.6 0 0-2.6-.7-2.1.4-.1.1-.1.3-.2.4-.7-.4-1.9-.6-2.1-.8 0 .3-.1.6-.2.9.1-.2 0-.4-.2-.6v.6c-.9-.7-9.6-1.8-8.8.9-.2.1-.4-.8-.4-.8-.5 1-1.8-1.5-1.7 1.1-.3-.1-.8-.6-.9-.8 0 .1 0 .2-.1.4.3-1.8-2.8-.7-4.1-.1v.2c-.1.5 0 0 0-.2-.3.2-.5.3-.5.4-.6-1.6-.6.6-1.5-.4.1 1 .2 1.9.3 2.9.4-1.2 3.9.5 4.1-1 0 .8 7-.5 7.8-.5.4 0 4.4.1 4.4.1 0-.2 0-.4.1-.6.4.7 4.5.7 4.3-.9.1.5.3 1.3.6 1.2.5-.9 2 .5 1.9-.5.2 0 1.6-.6 1.8-.7-.3.2.8 1 1 1v-.5s2.3 0 2.3-.4c.1.2.1.4.2.6.1-.1.1-.3 0-.4.4.7 4-.1 3.9-.3 0 .2 0 .4.1.6.2-.6 9.3.9 8.7-1.4.2.7 1.9.6 1.8.3.6 1.3-.7 4.9-1.3 6.1-1.3 2.7-4 2.3-6.8 2.7-5.2.8-10.8.5-16.1 1.6 0 .1.2 1.4 0 1.3-2.7-2.2-5.9-.6-9-.4-.9.1-2.1-.2-3 .1-.6.2-1.4 1-1.9 1-.7.1-2.9-.3-3.2-.3-1.2.1-2.3.1-3.5.2-1 .1-1.9.3-2.9.4-.4 0-1.3-.3-1.6-.2-.2.2-.2.4 0 .6-.7 1.2-.3-2-.3-1.5.2-.2 1.3-2.6.2-2.6zm4.7-19.7c.7.2-.5-.1 0 0zm5.8-13.5c0-.3.9-.1.9 0-.5-1 1.2-.7.8-1.2-.3-.3 0-.7-.8-1.1.1-.1 1.1-.6 1.1-.5-.1-.1-.2-.1-.3-.2.3.2 2.5-.9 3.2-1 1.9-.3 3.8-.3 5.7-.5 4.5-.7 8.9-1 13.5-1.2 4.2-.2 7.9-.7 12.1-1.3 1.8-.3 3.5.3 5.3.2.9 0 4.9-.2 5.7-.6 0 .1-.6 1-.4 1.1.7.3-4.2 8.8-2.8 10.2-.5-.5-.6 3.1-1.5 1.6.4.7-2-.3-2 .3 0-.7-1.6-.3-1.6.4l-.6-.6v.4c-.1-.2-.3-.4-.6-.6-.9-.4-1.9.9-2.2-.1-.3 1.2-8.5-.2-8.8 1.4 0-.2 0-.3-.1-.5-1.2.3-3.1.1-4 .4-.3-.3-.6-.4-.9-.2-.4.1-.5.4-.3.8-.2.1.4 1 .3 1.2 0 .1-.6-1-.7-1.4-.1.2-.1.4-.3.6-.7-.5-1.8-.6-2-.8 0 .3-.1.6-.2.9.1-.2 0-.4-.2-.6v.6c-.9-.7-9.2-1.7-8.5.9-.3-.2-.4-.5-.3-.8-.8 1.3-.6-.8-1.1-.4-.3.3-.4.4-.1.2-.2.4-.5.4-.5 1.2-.2-.2-.3-.4-.4-.6-.1.5-.3.4-.5-.1v.4c.2-1.7-2.6-.8-3.8-.2v.1c0 .1-.2.6-.2.2v-.2c-.3.2-.4.3-.4.4-.4-.6-1.8-.7-1.9.5 0-1.5-3 .3-3.2-.1-.3-1.3 5.9-8.7 2.6-9.2zm-.6.6c.1-.2.4 0 .6.1-.3.1-.5 0-.6-.1zm37.5 7.5c.2-.5.2.7 0 0zm-15.5.3c0-.1 0-.1-.1-.2.1 0 .1.1.1.2zm19.9 12.9c-.2.2-.4.2-.6.1.1-.3.4-.4.6-.1zm-8.3 3.3c-.2.6-.1-.5 0 0zm-.1.1c-.1.3-.3-.5-.1-.6 0 .2.1.5.1.6zm-15.2.3c0-.3.1-.4 0 0zm-.4-.1s-.3-.3-.4-.7c.1.1.1.2.2.2.1.1.6-.6.2.5zm-.6 0c0-.1 0-.2-.1-.3 0 .1.1.2.1.3zm-.1-1.4c0-.1 0-.1.1-.1-.1 0-.1.1-.1.1zm-11.1 1.9c-.2 0-.1-.4-.1-.6.1.3.1.5.1.6zm6.6 11c0 .3-.6-.2-.6-.1-.1-.3.7-.2.6.1zm35.8-39c.3-.2.4.4.4.6-.1.5-.9-.4-.4-.6zm2.1-18c.2 0 .4 0 .6.2.3.4-1.1 0-.6-.2zm3.1-22.1c.6.4-.5-.3 0 0zm.3-16.2s-.6.3-.6.1c0-.3.9-.3.6-.1zm-.4.3c-.6-.1.5-.3 0 0zm-14.6-14.4c-.2.6.1-.8 0 0zm-17.3.6c-.1-.2-.2-.3-.2-.5 0 0 .3.6.2.5zm-9.8 5.8c-.5-.3.9.5 0 0zm9 41.3c.1-.2-.1.3 0 0zm1.4 3.4-.5-.5c1 .2.9-.8 1.1-1.3-.2 0-.3-.2-.4-.4.1-.1.6-.4.7-.6 1.9.9 8.6-2.2 8-2.9 1.3 1.3 3.5-1.3 3.9-2.4-1.7-.9-2.7-.4-4.3.1-.5.2-3.5.8-3 1.6-.8-1.6-4.1 1.5-4.7-.3-.9 2-8.8-2.6-8.8-4.4 0-.6.6-.7-.4-.8.4 0-.3-4.4-.3-5.2 0-.4.3-1.8 0-2.1-.6-.9-1.5.4-1.9.1-.3-.2 1.5-.9 1.5-.7 0-.2-.6-.6-.7-1s.7-.7.7-1.2c-.2-1.6-1.2-2.5-2.4-1.1.4-.4.1-.3-.2-.6 0 .2-.1.4-.2.5-1.2-.5-3-3.2-4.9-3.5 1.1.1 3.1-2 1.8-3.1.3-.4.5.1.6.3-.1-.3 1.5-.8 1.1-.5.6-.4 1.5-.5.6-1.8.3-.2 1.7.5 1.3-.5.6 1.7 3.6-1.9 4.8-3.3-.1-.2-.2-.5-.1-.5s.2.1.3.2c.1-.2.2-.3.3-.3.3-.3 1-.1 1.5-.5.6-.4.8-1 .8-1.8.4-.1.8-.1 1.1-.2 1.3-.9 4.1-1.6 4.7-3.2 0 1.8 1.7 3.4 2.6 4.8 1.1 1.8 1.8 3.9 2.9 5.8 1.5 2.5 3 2.6 5 4 2.1 1.5 3.6 3.2 6.8 2.1-3-3-7.5-5-10.3-8.3-2.5-2.9-3.3-8.3-7.1-10.6 0 1.3-1.1.5-2 1.1-.6.4-1.4 1.6-1.9 1.9-.9.5-2.6.7-3.6 1.4-.9.6-2.7 1.8-3.5 2.6-.5.5-1 1.4-1.4 1.8-.6.5-1.5.6-2 1.2 1.1-1.5.1-3.1.4-4.3.2-.6 1.5-1.9 1.8-2.4 1.1-1.8 2.5-4.2 3.8-5.4 2.4-2.2 6.8-4.2 10-4.7.5-.1 5.3.1 5.4-.2 0-.2.1-.4.1-.6.4.7 6.7 1.4 6.2-.4.6 2.5 3.5 2.6 5.6 2.6-.5 0 .6 1.1.8 1.3.1 0 .5.1.5.1.3.2 2.5 1.6 2.4 1.2-.1.3-.1.5-.2.8l.3-.3c0 .8 3.9 3.6 3.8 3.7-.3.7.9 2.3 1.2 3.5.5 1.5.5 4 2 4.1-2.5.7.3 3.8.3 3.8-.9.3-.5 2.4-.6 2.4-1.2.4-6.6-.8-7 .9.2-1-1.8.1-1.9.6-.4 0 .1-.9.1-.9-1.1.3-.7-2.4-2.4-.5-.2-.3 0-1.4-.6-1.1 1.5-.9-1.7-3.2-2.9-4.2-.3.2-.6-.2-.3-.2h.1l-.3-.3c.4-.6-.3-2.5-1.5-2.3.9 0-.4-3-.5-3.2-.5-1.5-.6-2.4-2.3-3.3-.6 1-.6 4.1.9 4.2-1.1-.1 1.1 5.1 1.4 5.5 1.1 2 1.9 3 3.5 4.4 2.7 2.4 4.4 3.6 8.2 3.3.5 0 5.5-.1 5.1.2.1-.1.2-.3.3-.4 0 .8.5.9.6 1.5.1.7-1.3 2.4.4 2.6-.3 0-3.2-.5-3.1.6-.3-.3-1.4 1-1.7 1.4.2-.4-2.3-.5-2.3-.4-.7.3-1.2.9-1.8 1.2-.2.1-.8.1-1 0 0 .1.1.2.1.2-.7-.3-4.8 3.3-4.2 3.6-1.1-.4-3.4 4.1-3.8 5.4-.3.9-.5 7 .7 6.3-1.3.7 0 2.8.5 3.6 0 0-2.4.7-2.8 1 .1-.1.1-.2.3-.3-1.7-.5-4.9.4-6.7.3-2.1-.1-4.8-.8-6.8.4.1-.1.9-1.4-.1-1.4.2-.1.4-.1.7-.2-.3-.1-.9-.3-1.6-.6.6.8 1 .9 1.4 1zm2.5-4.4s.2.8.1.7c-.3 0-.3-.6-.1-.7zm.2.3c.2.1.2.1 0 0zm20.6-22.4c-.3.9.1-.9 0 0zm-7.7 17.1c.3 0 .8.3.1.3-.2 0-.4-.2-.1-.3zm-.1.4c-.4-.4.6 0 0 0zm-29.9 16.2c2.1-1.9 8.2-1.6 10.9-1.9 9.3-1.1 18.7-1.3 28-2.6 0-.1-.4-1.5.1-1.3 1.8.8 1.6 1.3 3.9 1.2 1.8-.1 3.6-.2 5.4-.2-1.2 1.7-3.1 3.1-4.3 4.8-1.4 1.9-2.3 3.8-3.3 5.9-3.3-2.1-9.1-.8-12.8-.9-3.1 0-6.9.4-9.5 1.1-3.1.9-6.4.2-9.7.9-4.1.8-9 .6-12.6 3.1-.2-.4 2.2-3.5.7-3.4.6-.1 1.7-1.6.7-2.3.3 0 .5 0 .7-.1.1.2 1.4-4 1.8-4.3zm-3.7 7.3c.2 0 .4.2.4.4.1.2-.7-.4-.4-.4zm-4.9-7.4c.3.1.4.2.4.5-.3.1-.6-.1-.4-.5zm-21.7 23.4c.5.1-.3.9-.3 1 0-.2 0-.4-.1-.5.1-.2.3-.4.4-.5zm-8.2 23.3c1.3-3 2.4-5.9 3.8-8.8 1.8-3.9 3.9-7.6 5.8-11.5 1.3-2.6 3.4-5.2 4.4-7.8 1.6-4.2 4.5-8.2 7.7-11.7 2.3-2.5 5.1-4 8.2-5.2.9-.3 5.4-2.5 6.1-1.6.6.9-2.3 4.3-2.8 5.3-1 1.9-1.2 3.4-1.9 5.3-.3.9-5.3 11-4.9 11.3.2.1.3.2.5.3-.7.1-3.1 5.4-.8 5-2.7 0-2.5 2.9-2.2 4.6-.2-1.1-1.6 1.6-.9.9-.3.2-1 2.8-.5 2.7h-.8c.1.1.2.1.3.2-.8.2-1.5 4.4-1.3 4.4-.2-.1-.4-.1-.6-.1.1 0-3.3 10.3-1.6 10.1-1 .1-1.3 1.6-.7 2.2-4 .3-7.8 1-11.6 1-1.3 0-2.7.3-4 .4-.8.1-4.9-.2-5-.1-.6-1.8 2.1-5.3 2.8-6.9zm-5.5 8.8s-.2-.5-.2-.6c.3-.5.8.5.2.6zm-.6-.7c.2.1.3.3 0 .4-.2-.1-.2-.2 0-.4zm-23.3 3.2c.2-.1.3-.2.6-.1-.1 0-.9.7-.6.1zm-10.6-46.3c-.5-.5.6-.3 0 0zm.4-.5s-.7.2-.6-.1c.3-.7.8 0 .6.1zm20.9-6.4s-.6-.6-.3-.6c.2-.2.7.2.3.6zm3-40.2c-.1-.1-.1-.2 0-.3.2 0 .2.1 0 .3zm4.2-20.5c.1-.3.2-.4.4-.3.2.4-.6 1-.4.3zm-28.9-47.9c.7-.1-.5.2 0 0zm-6.4-1.5v.4c.2-.3.3-.2.3.1-.6.2-.5-.1-.3-.5zm-7.2 10.9c10.4 5.4 16.6 15.4 22.9 24.8 2.2 3.3 12.5 23.2 18.7 17.9-1.7-.5.3-.9.7-1.4 1.2-1.5 1.5-2.1 1.8-4.4.5-3.8-.1-7.6-.4-11.2-.2-1.8 0-3.7-.2-5.3-.1-1.1-.9-7.4-.4-8.1.7 1.4 3.2 1.9 4.6 2.7 1.4.9 2.3 1.9 3 1.7.2.4.5.8.9.8.3.3.9.5 2.1.6.7 0 1.6-.4 2.2-.4 1 .1.9.4 1.8.6 1.8.3 3.3-.6 4.1 1.4.6 1.5-.1 4.5 0 6.2.1 1.3.6 3.1.7 4 .1 1.5-.2 3.4-.2 5 0 1.5 0 3-.1 4.5 0 0 .3 3.4 1 3.1-.2.2-.3.3-.3.2-.1.5.1 1.3.1 2-.1 2.2-.6 2.2.2 4.1-.4-.4-.5.2-.6.3.5-.6-.3 3.6-.4 4.1-.5 2.3-.3 4.8-.5 7.1-.1.8-1.7 9.4.4 8.9 0 .9-.4.2-.9.3-.1 0-.6 2.6-.7 3-.1.6.6.9.3 1.6-.1.3-.9 1.4-.8 1.3-1.1 1.2-3.7 4.2-6.1 5.9.4.1-.2.4-.1.5 0 0-.1-.2-.1-.3-1 .6-2 1-2.7.9.5-1.7.7-2 .2-3.6-.2-.5-.8-2.8-1.8-2.4.7-.6.3-.7-.3-.6.1-1-.7-3.8-1-3.2.5-.3-4.7-9.4-5.7-9.2 1.3-.3-2.9-5.6-2.8-5.6-.5.1-.9.3-1.3.7.1-.4.7-.8.6-.9-.3-.5-.5-.1-.9-1-.3-.7-.4-1.3-.4-1.5-.3.1-.6.2-.9.2.2-.1.4-.2.4-.5-.2.1-.3.2-.5.2-.1-.4.2-1.1 0-1.8-.5-1.4-1.9-2.6-2.7-3.8-.6-1-1.7-4.7-3.4-2.7-.3-.1.5-.8.5-.8-1.5-.2.5-1.9-1.9-1.1-.1-.2 0-1.1 0-1.2-.1 0-.2.1-.4.1 1.7-.6-1-3.1-2.4-4-.1.1-.7.3-.6.1.1-.1.2-.2.4-.2-.3-.2-.5-.3-.5-.2.3-.7-.7-2.2-1.8-1.7.1 0-4.6-9.1-6-7.4-.6-.9.1-.4.5-.8.5-.6-2-3.7-2.3-4.1-.7-.9.2 1-1-1.1 0 0-.4-1.3-.4-1.2-.2-.8-.2-1.8-.6-2.8-1-2.6-2.9-5.2-4.5-7.4-.2-.3-.8-.1-1-.4-.1-.2-.2-1.1-.3-1.4-.6-1-1.2-1.8-2-1.7.2-.3-.6-.6-.8-1.2-.3-1-.8-2.5-1.4-3.4-.8-.7-4.8-3.3-4-4.8zm30.3 60.2c.1 0 .1-.2.1-.4.1.2.2.5.3.9-.9.2.1-.3-.4-.5zm.2 1.3c.2-.3.4.2.2.4-.2.1-.3 0-.2-.4zm0-13.7c.1-.2.3-.3.5-.3-.2.2-.6.4-.5.3zm-12.2-15.5c-.2-.2-.1-.4.2-.4.5-.2-.2.4-.2.4zm-9.4-18.7c.2 0 .4 0 .6.2.5.5-1.3-.2-.6-.2zm-25.6-20.9c3.5 1.3 6 5.1 8.2 8 .9 1.2 1.4 2.5 2.1 3.9 1.3 2.4 1.3 2.8 3.8 1.3-1.7-3.4-5.2-6.4-6.7-9.9 1.4.2 2.4 1.5 3.6 2 2 .8 1.7.3 2.8 2.3 2 3.5 5 6.5 7 10.1 2.6 4.6 5.7 8.5 8.1 12.9 3.7 7 7.2 14 10.4 21.1.6 1.3 1.5 2.7 2 4 .4 1.2.7 2.4 1.2 3.7.7 1.6 1.3 3 1.9 4.6 0 .1 1.5 4.6 2.3 2.6-1.4 2.7.3 4.1 1.1 6.7.2.7.2 1.5.5 2.2.4 1 1 1.3 1.5 2.1.2.4.1 3.1.2 3.5.2 1.1.6 2 1 3.1.2.5.6 1 .8 1.6.1.3-.6.7-.5.9.2.1.4.1.6-.1.5.1 1.9 9.3 1.9 10.2 0 .7.6 3.2.5 4.1-.5 3.6-4 5-7.1 5.3-3.4.2-5.6.4-8.7-.6-4-1.4-4-2.3-3.5-6.3.4-3.1.7-6.3.6-9.4 0-.7-1.1-5.7-1-5.8 1.6-1.1.3-6.7.1-8.3-.2-2.1.8-6.6-1.9-6.9-.2.2.2.8-.1 1-1.2.6.6-2.1.6-1.5 0-1-.5-2-.5-3.1 0-.4.4-5.3-1-4.7.5-.3.2-1.7 0-3.2-.3-3.3-1.1-6.4-2-9.6-.2-.7-3.3-13.4-5.2-11.5-.6-.9.2-.4.5-.8.7-.8-2.4-4.7-2.7-5.4-.9-1.8-.5-3.5-1.3-5.4-1.1-2.7-2.8-5-4.4-7.4-1.5-2.4-1.7-4.7-5-2.7 2.2 1.3 3.6 9.7 6.1 9.7.2 0 2.8 6.6 3 7 1.6 3.9 3.3 7.8 4.6 11.8 1.1 3.6 1.8 7.2 2.9 10.8.2.7 1.9 5.7.5 5.1.8.4-1.4.8-1.2.7-.4.3-2.3.9-1.9 1.7-.3-.1-.5-.2-.8-.3.2.5.4 1 .7 1.5-.3-.5-.6-.9-1.3-1-.3-.1-2.2.6-2 .8-.1-.3-9 2.2-9.1 2.9 0-.2-.1-.3-.1-.5-1.3.6-2.9.5-4.1.7-.3-.2-.7-.3-1-.4-.4.2-.5.5-.4.9-.2.2.5.9.4 1.2 0 .1-.9-1.4-.6-1.5-.7 0 0 .5-.9.2-.7-.3-1.4-.2-1.7-.4 0 .3-.1.6-.3.9 0-.2 0-.4-.2-.6 0 .2 0 .4-.1.6-1.1-.8-9.3-3-9.3-.4-.2-.3-.3-.6-.2-.9-.2.2-1.3-.3-1.4-.4-.2-.2-.5.3-.7 1-.2-.1-.7-.8-.7-1-.1.1-.1.2-.2.3.7-1.6-2.5-1.6-4-1.4 0-.1 0-.1 0 0-.4.1-.7.1-.7.2-.1-.7-1.7-1.3-2.2-.2.4-.8-1.8-1.2-2.2-1.4-1.6-.5-1.6 0-1.9-2.2-.5-3.3.5-7.3.5-10.7-.1 0-1.5.2-1.3-.1 2.6-3.1 1.1-7.1.8-10.8-.1-1.6.3-3.1-.2-4.6.1.3-.7-1.6-.8-1.4 0-.6.6-.7.6-1.3 0-1.2-1.6-12.4-1.5-12.4-.9.2-1.1-5.9-1.3-7.3-.4-2.1-1.1-3.9-1.6-6-.5-1.9-.5-3.8-1.1-5.9.2.5.5.6 1 .4-.8.4 4.4 5.7 4.8 6.4.3.4 2.9 4.5 3.4 4.3.2-.1.3-.2.5-.3-.2.7 3.9 4.7 4.2 2.3-.3 1.2-.2 1.1.3 1.9.1.2 1.9 1.1 1.5.6.6.8.3 1.6 0 2.6-.6 2.8-1.5 3.3 1.3 3.3-.1 0-1.5.8-1.5.6 0 .4.4.2.3.9-.1.8 0 1.6 0 1.9h1c-.3 0-.4.1-.5.4.2 0 .4-.1.5-.1-.9 2.4 1.4 4.7 3.8 5.7 1 .4 5.4 1.5 3.8-.9.3-.3.6.7.7.7.2-.6 3.1-.4 1.1-2 .3-.1.5 0 .7.1-.1 0 .6-.3.2-.7 1.6 1.5 1.9-2.8 1.6-4.4-.1.1-.8-.2-.6-.2.1-.1.4 0 .5.1-.1-.4-.2-.6-.4-.5 1.2-.7-.2-.5.2-1.8-.3.1-.5.1-.8.2.5-.2.9-.6 1-1 .3-1.1-1.5-1.8-.8-2.6-1.7.2-3.6-6.1-2.8-6.1.2.1.4.1.6.1 0-1.5 1.4-5.3.4-6.5-.2-.2-.5-.4-.8-.5.2 0 .5 0 .7-.1.5-.5-.7-3.3-1.6-2.8 1-.4.6-1.3.9-1.5zm32.4 70.9c-.3.1-.3-.1-.1-.4.3-.2.4.3.1.4zm-7-33.2c-.2.2-.7.3-.5.2.1-.3.3-.3.5-.2zm-8.3-19.5c-.1.1-.6-.2-.6-.4.1-.4.9.1.6.4zm7.4 45.8c0-.5.4.6 0 0zm0 .3c-.2 0-.4-.5-.3-.7.1 0 .4.7.3.7zm-16 3c.1-.5.1-.1 0 0zm-28-21.4c-.3.2-.3-.5-.1-.6.4-.1.2.6.1.6zm-5.9-50.9c.4-.2.2-1.1 0-1.3 3.8 2.5 9.8 4.6 14.4 3.5 1-.2 2.6-1.5 3.4-1.6.3 0 2 1.2 2.4 1.4 1.3.6 4.3 1.3 2.4 3.1.6-.6.4 1.6.3 1.4.1.4.3 2.8 1 2.4-.2.2-.4.4-.5.6h.5c-.3.1-.5.4-.7.6-.5.9 1.1 2.1-.1 2.4.8.3-.1 3.5-.4 4-.8 1.3-1.5 1.8-3.1 1.8-.7 0-1.5-.3-2.2-.5-.4-.1-.6-1.1-.8-1.1-1.4-.1-.8 1.2-1.4 1.6 0 0 .1-1.8.4-1.6-.6-.5-.3.5-.8-.3-.4-.7-.9-1.1-1-1.4-.2.2-.5.4-.8.5.2-.1.3-.3.3-.6l-.4.4c-.2-1.3-5.1-8.6-6.7-6.7-.3-.1.4-.8.5-.8-1 0-.1-1.3-.7-1.2-.1-.5-1.2.2-1.3.3-.1-.2.1-1.1.1-1.2-.1.1-.2.1-.4.2 1.6-.7-.9-2.9-2.1-3.7-.1.1-.7.2-.5.1.1-.1.2-.2.4-.2-.2-.2-.4-.2-.4-.2.6-.7-.4-1.7-1.4-1.1.2-.1.4-.3.6-.4-.5-.2-.7-.3-1-.4zm6.3 9s-.5.4-.4.3c.1-.2.2-.3.4-.3zm17.9 25.3c.2 0 .2.4.2.5-.1-.1-.2-.3-.2-.5zm2.4-9.6c-1 .5.9-.6 0 0zm-.9-13.6c.2 0 .5 0 .2.2-.4 0-.8 0-.2-.2zm-.1-.1c0-.1.1-.1.1-.2 0 .1-.1.2-.1.2zm.6 15c.2.1.5.2.8.2-.2.1-.5.1-.7.2 1.3.4-.6 3.4.6 3.7-.1 0-2.1 3.4-3.9 3-.5-.1-3.3-2.8-2.8-2.9-.2.1-.4.1-.5.2.5-.7-.6-4.4-2-3.8 1.2-.6 1.7-2.2 1.6-2.2.4-.2-.3-1.6-.3-1.9.1.7 1.9-.4.9-.4.5 0 .5-.3.2-.3.2 0 .4 0 .6.1-.1-.1-.1-.4 0-.6-.1-.1 3.3.4 3.3.3-.1.2-.2.3-.3.5.9-.8 1.7 3.5 2.5 3.9zm6.3-62.5c.4-.5-.5 1.2 0 0zm-8.6-7.7c0 .2-1 .7-1.2.9zm-26.1-15.2c.3.2.2.3-.1.4-.1-.1-.2-.7.1-.4zm1.6 28.2c4.2 1.3 7.6-2.5 10.6-4.8 1.7-1.4 3.5-2.6 4.9-4.3.9-1.1 1.6-2.3 2.4-3.4.3-.4-.6-.5-.4-.7 1.5 1 1.8-2.8 3.3-3.7.3-.4 1.9 3.9 2.1 4.4.6 1.1 1.7 2.8 2.7 3.7 2.2 2 6 4.6 8.7 6-.5-.1.6.2-.3.2.8.1-1.9 2.7-2 2.2.1.2.1.3.2.5-1.4-1.1-7.2 1.8-4.5 2.2-2.6 0-2.5 3.1-2.5 4.7 0-.6-2.2.6-1.1.6-.2.1-1.9 2.3-1.3 2.3-.2-.1-.5-.2-.7-.3.1.1.1.2.2.3-.8-.2-3.1 3-3.4 2.9-.1-.2-.2-.4-.4-.5.3 1.6-9.8 1.3-9.5 2.8-.4-1.3-5-1.3-3.1 1.2.4.5 1.7 1 2.5 1 .3 0 3.6.3 3.1-.5.3 1.2 1.8-.1 2.4.4-1 4.1 1.4 10.4 3.7 13.7-4.3-.7-7.3.6-11.4-1.6-3.7-2-5.6-4.6-8.7-7.2.3 1 .7 2 1 3.1-.6-1.8-1.7-3.2-2.2-5-.6-2.3-.3-4.8-.5-7.2-.1-2-.9-3.5-1.5-5.3-.8-2.2-.9-4.5-1.4-6.8 2.4 0 4.8-.3 7.1-.9zm14.3 15.3s-.2-.8-.1-.7c.2.1.2.7.1.7zm-.2-.4c-.1.5-.3-.7 0 0zm-14.1 14.7c-.1 0 0-.1 0 0zm-.4-.5s0-.1 0 0zm-1.8-2.6-.3-.6c-.1.1 1 1.6.3.6zm.2.3c-.3 0-.9-1.1-1-1.3.3.4.7.9 1 1.3zm-20.1-7.5c-.3.2 1.2-.4.8 0-.2.2-1.3.3-.8 0zm-26.2 16.5c.3.1.4.2.3.5-.3 0-.8-.6-.3-.5zm-36.3 35.6c.4 0-.2.6-.4.6-.3 0 .3-.6.4-.6zm29.5 48.1c0 .2-.1.3-.1.5-1.7.2.2-1.2.1-.5zm.1.9c-.1-.3-.1-.4.2-.3.2.2.1.4-.2.3zm11.5 15.9c-2.2-2.7-.3-6.1-1-9.1 3.3.6 5.7-2.1 8.1-4 2.9-2.2 5.8-4 9.2-5.2-6.9-2.3-8.9 4-14.7 5.7s-10.2-5.1-14.6-7.7c1.3-.5 1.7-3.3 2.2-4.4.9-2.2 2.1-4.8 3-6.7s2-3 3.5-4.5c1.3-1.3 3.8-2.8 4.3-4.6 2.4 1 2 5.1 5.3 4.2 2.6-.7 6.6-4.2 8.2-6.2-2.9-.4-4.7 1.7-7 2.9-.5.3-1.4.9-2 .9-1.6-.1-.1-.2-.8-1-1.2-1.3-1.6-3-2.2-4.6-.7-1.6-1.7-2.4-2.5-3.6-1.6-2.5-3-8.2-2.1-11 .9-3 3.8-4.8 5.9-6.9.4-.4 3.9-4.7 4.2-4.7 1.9 0 6.1-5.1 7.4-6.4-.2-.1-.7-1-.8-1 2.4.4 5.8-4.2 7-3.2.2.1.2 1.9.3 2.3-.1-.3.9 1.1 1.2 1.6.4.7 1.2 1.3 1.6 2 .1.1.3 1.2.3 1.4.2 0 .3-.1.4-.2-.3 0 3.2 6.6 3.4 7.3.3 1.1-.2.7.2 1.9.5 1.7 1.3 2 1 3.8-.5 2.7-4.8 5.3-6.7 7.3-.9.9-1.7 1.6-2.4 2.1-1.9 1.3-3.7 2.3-4.8 4.6 5 0 8.7-4.3 12.6-7.1 7.1-5.1 4.8-10.6 1.4-17.4-1.3-2.7-3-4.8-4.5-7.3-1-1.5-1.6-4.7-3.7-5.4-1.8-.6-3.8 1.3-5.2 2.3 0 0-2.9 2.6-2.1 3.1h-.3c-.7.3-1.3 1.3-2.1 1.9-.6.5-1.5.6-2.1 1.2-.4.4 0 .7-.3 1.4.2-.5-.8-.2-.7-.2.9-.1-3.2 2.6-3.5 2.8-2.3 1.6-4.2 4.1-6.1 6.1-.6.6-6.2 7.9-3.4 7.2 0 1-.4.2-.8.4.3-.1-.2 2.4-.2 2.5.1.6 1.7 2.4 1.7 1.9.4 2.7-.2 4 1.3 7 .3.5 1.8 2.7 2.5 4 .2 0 .3.1.2.3.2.3.3.6.3.6-3.6.2-8 6.6-10.2 9.1-1.8 2.1-1.6 3.3-2.4 5.6-.5 1.6-3 3.6-1.8 5.4-6-2.3-11.6-8.1-16.4-12.1-2.9-2.4-5.5-5-8-7.8-.2-.3-4.5-4.5-4.3-4.8.7-.5-.5-2.2-.8-3.4-.8-2.7-.6-5 .4-7.6.8-2.1 2.1-3.5 3.5-5.2.1-.1 3-3.7 1.1-3.7 0 0-.9 1-1 .9-.6-1.3 1.2-.9 1.8-1.3.8-.5.7-1.1 1.5-1.9 1.6-1.7 5.1-2.9 5.1-5 0-.1.9-.9 1.1-1.5 1.1-.5 2.2-2.4 3.2-3.2 1.5-1.3 3-2.4 4.5-3.7 3.1-2.7 6-5.6 9.1-8.3 2.8-2.5 5.8-4.8 8.6-7.3.5-.4 4.1-3.8 2.5-4.2 1.2-1 .3-.1 1.1.1 0 0 2.2-1.7 2.5-1.9 1.7-1.2 2.6-2.8 4-4.1 1.9-1.8 4.3-1.8 6.4-3.3 3.5-2.4 6-5 10.3-5.7 1.3-.2 8.2 1.5 8.2.2 0 0 .3.6.9.7.8.1 1.6.4 2.4.6 1.4.5 3.8 1 4.7 2s1 3.1 1.2 4.4c.4 2.3.9 4.5 1.6 6.7 1.8 6 3.5 12.4 4.4 18.6.4 2.5.8 4.7 1.4 7.1.1.5.9 3.4.9 3.4-1.5.5.1 7.6.3 9.4.3 2.8-1.1 10.2 1.7 11.5 0-.1.1-1.2.1-1.1 1.4.5-.2 1.1-.3 1.7-.3 0-.5.2-.7.4.1.3.3.5.5.8-.4 1.6-1.7 6.1-1 7.7.6-.6-.1 1.9.8 1.9-.7 0-1.3 5.4-1.6 6.9-1 4.4-1.6 8.9-3.2 13.2-.4 1-6 12.8-4.8 12.8-.7 1.4-.4.2-1.1.2-1.4 0-3.8 5.5-4.3 6.1-.5.5-1.9 1.6-2.5 1.9-.5.2-1.7.2-2.3.4-1.1.4-2 1.3-3.1 1.7-3.2 1.3-8.7 1.9-11.8 1.5-1.3-.1-8.5.5-8.9-1-1-1.4-4.4-1.9-5.4-3.1zm14.3-78.8c.1-.1.2-.2.4-.3.6 0 .1.2-.4.3zm1.4-.2c0 .2-.4.2-.5 0 0-.2.5-.2.5 0zm13 21.4c-.1 0-.5-.3-.5-.3-.1-.5.8-.1.5.3zm-32.7-1.9c-.1.3-.4.1-.6-.1.2-.1.4 0 .6.1zm44.6 50.1c-.2.3-.5.3-.6-.1.2-.1.4-.1.6.1zm-23.5 14c0 .1-.7.4-.8.3-.3-.3.7-.9.8-.3zm-3 19.5c0 .3-.1.4-.3.3 0-.3.1-.4.3-.3zm.4.8c-.2.1-.4.2-.6 0 .3-.6.9-.3.6 0zm6 26.3c.2-.3.4.3.4.4-.1.4-.7-.3-.4-.4zm-8.7 13.5c.2 0 .4.1.5.3-.2 0-.6-.3-.5-.3zm-5.1 12.8c1.3-1.7 2.1-3.8 3.3-5.7.5-.8 5.1-7.5 2.9-7.8.2-.8.6 0 .9 0 1.1.2 1.2-3.2 1.3-3.5.5-1.4 1.8-1.8 2.9-2.9 1.3-1.2 1.8-4.5 3.3-5.3 1.3-.8 3.9.9 5.3 1.4 5.6 1.9 9.5 4.4 13.8 8.4 2.1 2 4.5 3.7 6.1 6.2.8 1.3 4.5 5.5 4.3 6.8-.2.9-3.4 2.9-4.2 3.3-2 1.1-3.6 2.5-5.5 3.9-3.8 2.7-7.5 6.1-10.8 8.9-.9.8-2.3 1.5-3.3 2.2-.9.7-2.9 2.9-4 3-.8.1-3.2-2-4.4-2.7-1.4-.8-2.7-1.7-4-2.6-.4-.1-.8-.2-1.2-.2-.2-.4-.5-.9-.7-1.3-1.1 1.3-6.4-7.3-8.3-8.8 0 0 .1-.1.4-.2-1.2.3 1.7-3 1.9-3.1zm42.8 1.6c-.3.1-.7-.4-.4-.6.1.1.7.5.4.6zm-26.8 19.8c-.2.2-.3.2-.5 0-.1-.2.5-.3.5 0zm-1.4.2c.1-.2.2-.3.4-.3.7.1.2.2-.4.3zm-17.1-18.4c-.1-.1-.2-.1-.2-.2.1.2.2.2.2.2zm-3.6 5.3c0 .2-.1.4-.3.5-.7.2-.3-.2.3-.5zm-2.6 30.9c-.7 0 .4-.5 0 0zm.2-.5s-.5.5-.6.2c-.1-.5.7-.3.6-.2zm3.9 3.5c-1.1-1.8-2.1-3.9-2.8-5.9-.9-2.6-2-5.2-2.8-8-.4-1.5-1.2-3.3-1.2-4.8 0-1.1 1.7-3.8 1-4.8.3.4 2.7-4.6 3-5.2.5-1 1.7-2.2 2-3.3 0-.1.7-2.5-.4-2 .6-.3 1.1-.4.9 0 .3-.6 0-1.3.6-1.8.4-.4 1-.6 1.3-1.2.8.4 1.9 2.7 2.5 3.5 1.4 1.9 2.7 4.1 4.3 5.7 1.7 1.8 3.6 2 5.7 3.2.7.4 1.2 1.1 1.9 1.5.9.4 2.3.1 3.1.7-.5.2-.6 1.4-.1 1.7-.4 0-.8 0-1-.1 0 .3-.1.6-.2.9-.4.1-.7.2-1.1.2-.6.4-1.6.5-2.1 1.1-.6.7-.5.9-.6 1.6-.2.7.9 1.7.2 1.1-.2.4.7 1.7.9 2.6.6 2.7 1.3 5 2 7.7-1.9-.4-7.6 5.5-8.7 6.7-.6.5-4 5.3-2.9 5.3-.6 0-1-.4-1.3-.9-.4-1.7-3.4-4.1-4.2-5.5zm19.4 6.4c-.2.1-2.9 3.4-1.1 3.6-.9 0-2 1.7-1.1 2.4-1.3-.5-3 .2-4 .2-1.1 0-2.2-.2-3.3-.2-1 0-2.1-.1-3-.1-.7 0-.8.9-1.8.5-1.4-.6-.4-.7-.3-1.4.2-1.3 1.8-2.6 2.5-3.7 1-1.5 2.2-3.5 2.9-4.7 1.1-1.7 7.1-5.2 7.2-7 1.2.8.9 3.4 1.9 4.5.6.7 2 .8 2.4 1.7.3.7-.3 1.2.1 1.7-.4-.6-2.2 2.3-2.4 2.5zm5.3-4.2c.8 0 .6 1.3 1.2 1.5.7.1 1.6-.7 2.1-.5 1.1.4 1.7 2.3 2.5 2.9.3.2 4.1 2.7 3.7 3-.3.2-1-.6-1.4-.4-.2.1-.4.2-.5.3-.1-.1-.3-.1-.4-.1s-.2 0-.4.1h-.1c-.4.2-.8.4-1.1.6-.4-.2-.8-.3-1.2-.4-1.5 0-3-.1-4.4-.1-.8 0-1.9.3-2.7.1-.5-.2-.5-.6-1-.8.3-.1.6-.2.9-.4l-.6-1.2c.6.5 3.7-4.1 3.4-4.6zm9.3 6.3c0-.2.8.4.8.4-.1 0-.7-.1-.8-.4zm-12.9.6c.3 0-.4-.1 0 0zm45.7 5.6c-.2-.2-.2-.3-.2-.6.3.1.4.4.2.6zm22.5.8c-.5.5-.3-1 .2-.5.1.3.1.5-.2.5zm19.1-2.3c-1.8 1-5.1.2-7 .1-4.8-.3-9.8-.7-14.6-.8-1.4 0-3 .5-4 .7-1.3.2-2.8 0-4.1 0-5.8 0-11.6 0-17.4-.1-4.7-.1-9.6.4-14.2.1-1.9-.1-3.4-.5-5.5-.3-2.5.3-4.5-.4-7-.5-1.2-.1-7.8 1.1-8.3-.4-.5 1.1-5.5.1-6.6.4-.3-1.6 1.9-1.2 2.8-1.2 1.1 0 2.5-.5 3.4-.5 1.1 0 2.4.6 3.5.7 1.3.1 1.9.2 2.1-.2.1.1.2.1.3.1v.2c1.6-1.2 5.5.3 6-2.5.3-1.8-2-3.4-3.2-4.1-2.1-1.2-5.1-2.5-7.4-3.7-3.9-2-5.9-2.5-7.2-7-.7-2.3-1.7-4.5-2.4-6.7-.2-.5-.8-4.1-1.4-4.1 1 0 4.1-3.3 2.5-3.6 2.5 1 3.8-1.3 5.3-2.5.4-.4 1.1-.5 1.5-1 .3-.3.9-1.5 1.1-1.6.4-.3 1.1-.2 1.7-.5.4-.2.5-.7.3-.6.1 0 4.1-3.4 3.8-3.4.3.1.5.2.8.3 0-.2-.1-.4-.3-.5.1.5 6.8-5.2 6.9-5.2 1 .3 3.3-1.9 4.5-2.7s6.1-3.5 6-5.4c1.8 2.2 4-4.2 4.6-4 1.8.7 3.6-2.4 4.6-3.3 1.5.9 2.3 3.9 3.1 5.4 1 1.7 2 3.4 3.1 5 .4.5 5.2 7.5 6 5.6.9.9 0 .4-.2 1-.4 1.1 4.2 4.1 4.8 4.7 1.9 1.7 2.5 4 4.6 5.8 2.3 2 5 3.3 7.5 5 2.1 1.4 3.2 3.1 4.7 1.7 0 .1-.1.2-.1.4-.4 2.4 13.8 8.4 15.8 7.8-.3 5.8.4 11.5.7 17.2.1 2.2.6 3.3-1.1 4.2zm-57.9-81.4c.2-.4.6.3.4.4-.3.2-.4-.4-.4-.4zm1 1.6c.1 0 .2.1.3 0-.4 0 .7 2.1-.6.8.3-.3.6-.5.3-.8zm.8 2c.3 0 .8.2.9.5-.8-.3-.4 0-.9-.5zm18.3 28.8c0-.2.1-.4.3-.5.2.3 0 .5-.3.5zm16.8 16.8c.1-.1.7 0 .7.1.1.5-.9.3-.7-.1zm23 27.1c0-.4.3-.5.6-.3-.2.3-.4.4-.6.3zm.1-28.1c.3-.3.8.7.3.8-.1 0-.4-.7-.3-.8zm-8.1 65c.1-.1.7-.2.7 0-.1.3-.9.2-.7 0zm-1.2 17.1c-.5.5-.9-.6-.2-.6.1.1.3.6.2.6zm.3.1c-.3-.2-.2-.3 0-.4.3.2.3.3 0 .4zm22.3-2.8c-3.5-.2-7.3 0-10.8.3-3.1.2-5.4.1-8.5-.1-7.2-.4-15.1-.2-22.1-1.7-3.9-.8-1.4-1.6.9-2.9.6-.3 4.1-2.2 4.1-2.2 1 1.5 9.2-3.3 11.2-3.9-.9.3.4 1.3-.6 1.8-.4.4 1.3 1.1 1.7.9-.3.2-.5.6-.4 1 1.7.4 1.6.3 2.9-.8-.3-.1-.5-.2-.7-.4.1-.2.2-.3.4-.4-.1-.4-.2-1.5-1.1-1.1.2-.2.3-.4.4-.6-.4.1-.7.1-1.1.1 1-.5 0-1.6-.5-1.5 1.5-1.3 4.1-.7 5.3-1.1-.8.2.2 1.3-.6 1.8-.4.4 1.3 1.1 1.7.9-.3.2-.5.6-.4 1 1.7.4 1.6.3 2.9-.8-.3-.1-.5-.2-.7-.4.1-.2.2-.3.4-.4-.1-.4-.2-1.5-1.1-1.1.2-.2.3-.4.4-.6-.4.1-.7.1-1.1.1 1.4-.7-.5-1.5-.5-1.5 0-.3.1-.5.2-.8-.6.1-1.1-.8-1.6-.9.5.1 1.3.7 1.9.7.8-.1.8-.9 1.4-1.1 2.2-.7 4.5-.4 6.7-.1 1.8.2 1.7.5 3.2 1.1 1.2.5 1.8.9 2.1.7.1.2.2.4.4.5 0 .2.1.3.2.4.4.4 4.1.5 3.8-.5.3 1.2 1.7.7 2.5.6-.3 1.7.2 3.3.3 5 .1 1.4-.3 2.8-.3 4.2-.1 4 1.6 4.1-2.9 3.8zm2.3-17.7c0 .6 0 1.2.1 1.8-.7 1.2-.2.7-1.5.7-1.4 0-3.4-.3-4.1-.9.1.1 0 .3-.1.6-.1 0-.1-.1-.2-.1h-.1v-.1c-.3.1-.7.2-1 .3.3-.6-5.5-2.9-6.1-2.4.1-.5.1-1 0-1.5-.1.1-.1.1-.2.1 0-.2-.4-1.1-.6-1.5.2.2.3-1.8.3-2 0-1.2-.5-3.5.1-4.6 1 .3 2.4.5 2.9.6.6.2 1.1.7 1.8.9.4.1.8.1 1 .1.2.2.5.3.8.3.2.2.4.4.9.5s3.1-.2 2.7-1.1c.5 1.5 2.2-.3 2.9.3 1.3 1 .2 5.3.4 6.6.1 0 1.5-.4 1.3.1zm.2-48.9c0-.4.3-.6.6-.3-.2.2-.4.3-.6.3zm1.2 51.9c-.3.1-.5-.8 0-.6.1 0 0 .6 0 .6zm-17.5 58.8c.4-.5.9-.1.6.4 0 0-.9.1-.6-.4zm.1.5c.1.3 0 .4-.3.4-.2-.3-.1-.4.3-.4zm-5 13.2c-.8.7 0-1 .4-.4-.2.1-.3.2-.4.4zm25.3-14.3c-.3-.1-.4-.2-.3-.5.4.1.7.6.3.5zm15.3-14.5c-2.6 2.9-6.1 5.3-9.2 7.6-.7.5-10 7.3-8.2 7.8-1.3.8-.4.1-1.1-.1-1.1-.4-5.8 4.3-6.3 4.8-1.8 1.6-3.2 1.9-5.4 2.7-2.4.8-4.7 3-7 4.2-1.8.9-2.2 1.4-3.2 1 1.1.3 5.6-8.5 6.2-9.5 2.6-4.4 4.9-10.2 8.8-13.5-.2.2.1 1.6.4 1.5.3-.3.8-1.2 1.2-1.6-.1 0-.1.1-.2.1.8-.8-.4-1.4-.8-1-.4-1.2 2-3.9 2.8-4.5-.5.4.6 1.6.6 1.6.6-.6 1.1-1.2 1.7-1.7-.2.1-.5.1-.7.2.8-.8-.6-1.5-1-1.2 2-2.7 4-5.5 5.4-8.5.8 1.4 3.9 1.2 5.3 1.8 1.3.5 3.7 2.5 4.2 1-.1 2.3 1.6 1.4 3.9.9.9-.2 1.5-.2 2.4-.3s2.4-.8 3.3-.8c0 .3-.1.7-.1 1 .8 1.8-1.9 5.1-3 6.5zm3.7-7.8c-.6.7 0-.2 0 0zm2.2-11.8c-.6.2-1.2 3.5-1.1 4 .1-.1.2-.1.3-.1.1.2-.3 1.4-.2 2-.4.9-1.1 3.5-1 4.5-1.7-1.2-7.4-.3-9.3-.1-1.3.2-1.5.1-2.5-.1-1.3-.3-2.7-1-4-1.4-.9-.3-2.5-.3-3.2-1.1-.7-.9-.1-3.1-.2-4.2-.1-1.5-.6-2.8-.7-4.2-.1-.9.4-2.2-.1-3-.2-.4 3.4 1.1 4.3 1.3.8.2 1.1-.2 1.8 0 .9.2 1.8.7 2.6 1.1 1.4.6 2.5 1.3 3.9 1.4.4 0 4.9-.7 4.6-1.1 1.2 1.7 3.8-.2 5.1-.5.3.6.1 1.1-.3 1.5zm3.1-8.4c-.3.2-.2-.6.1-.7.4-.1 0 .6-.1.7zm2.4-29.4c-.2 1.1.3 8-.4 8.4-1.4 0-1.9 8.3-2.1 10.1-.3 2.5-.7 4.9-1.3 7.4-.6 2.2-1.7 4.2.3 5.7.2-.3.4-1.3.8-1.3.5-.1-1.2 2-1.2 2-.3.9.1 2.1-.2 2.8-1.6-1.2-4.7-.5-6.7-.5-1 0-2.3.2-3.2.2-.5 0-1.3-.2-1.8-.3-.1 0-1.2.1-1.5.1-.8 0-2.4-.7-3.2-.9-1.9-.5-4.7-2-6.6-1.3-.7-4.6-.3-9.5-.5-14.2-.1-2.6 1.3-6.2-1.4-7.5 0 0 0 1.4-.1 1.4-1.3-.7.4-1.3.4-1.9.1-.7 0-1.6 0-2.4 0-2.4 1.4-5.4.5-7.7-.5.5-.4-1-.6-1.7.4-1.2-.1-3.2-.1-4.5.1-2 .4-4 .4-5.9.1-4.3-.2-8.6-.3-12.8 0-3.8.1-7.5 0-11.2 0-.7-.2-5.6-1.6-4.7.1-1.1.6-.6.9-1.7.4-1.8.2-4.2.1-5.9-.1-3.5.7-5.5 4.1-7.2-1.1 3 3 8 4.3 10.5 2 3.8 5 7.1 7.5 10.7 2.7 4 5.8 7.7 9 11.2.9 1 7.4 5.9 7.1 7.6-.8 5.1-1.7 10.3-2.6 15.5zm-1.1-48c.3-.1.4 0 .4.3-.3.1-.4 0-.4-.3zm.5.9c0-.2 0-.4.1-.6.2.1.4.3.6.4-.2.2-.4.3-.7.2zm56.7 28.9c-.3-.1-.2.7-.6.2-.2-.5.9-.2.6-.2zm2.3-.1c-.4.1-.6.2-1 .2 0-.4 1.2-.3 1-.2zm.4 0c-.1-.1.6 0 .7.2-.3-.1-.5-.1-.7-.2zm1-.6c-2.5-.7-3.9-.3-6.5.2-1.6.3-3.2.7-4.7.1-1.4-.5-2.5-1.9-4-2.4-.4-.1-1.6-.1-1.9-.3-.8-.4 0-.5-.7-1-1.5-.9-12.1-7.1-12-7.2-.4.7-1.4-.6-2.3-1.2-1.4-1-2.9-1.9-4.3-2.8-2.9-1.9-6-3.3-8.6-5.3-3.7-2.8-8-5.4-12-7.9-1-.7-8.9-6.8-9.6-4-.1-.1.6-1.1.7-1.2-3.1-.7-5.9-3.6-8.6-5.2-3-1.7-6.3-2.7-9.7-1.7-7.8 2.2-7.8 11.7-7.6 18.2.2 8.9.1 17.8.5 26.6.1 2.2.2 4.5.3 6.7.1 1.6.8 5.4.1 6.9-.6 1.3-1.5.6-3.1.5-.5 0-2.4-.4-2.7.4-.1 0-.2 0-.2-.1-.1-.2-.3-.3-.5-.5 0 .2 0 .3-.1.4-.1 0-.3 0-.4.1 0 0 .1-.1.2-.1-.8.3-2.9-.4-4.4-.8-2.2-.6-1.8-.9-1.9-3.4s-.3-5.1-.3-7.6c-.1-3-.1-6.1-.2-9.1 0-.7 0-5.8-1.5-4.7-.2-1.5.2-.3.8-.7 1.3-.8-1-8.2-.6-9.9.8-4.2 1.2-8.9.6-13.4-1.4-9.3-.3-19.7-1.4-29.6-1.7 2.5-1.7 5.8-1.5 8.7.2 3.5 0 6.9-.1 10.4-.1 3.4-.2 6.6 0 10 .1 1.5-1 6 .5 6.9-.5-.3-.3 2.1-.2 2.4-3.2-1.7-6.6-2.5-9.5-4.6-.6-.4-4.1-3.4-5.6-2.8.1-.2.3-.4.5-.6-2.1-.3-4.4-2.6-6-3.9-1.5-1.3-3.4-2.4-4.7-3.2-4.3-2.7-7.9-7.6-11.1-11.4-4.4-5.1-7.4-11-10.9-16.7-2.7-4.4-4.1-9.9-8-13.8 0 .1-1 .9-1 .8 0-3.5-3-4.4-5.7-5.9-1.1-.7-2.1-1.8-3.3-2.3-.6-.2-1.5-.1-1.9-.3-1-.5-2.1-1.7-2.7-2.1-.9-.5-1.7-1.2-2.6-1.7-.7-.5-1.6-.9-2.3-1.3-.5-.2-.8-.9-1.1-1.1-.3 0-.4.2-.3.4-.3.2-7.6-5-8.4-5.5-.5-.3-1.1-.6-1.5-1-.3-.3.3-.5 0-.8-1.1-1-2.8-1.5-3.9-2.5-3.1-2.9-6.5-6.5-9.2-9.9-1.1-1.4-1.7-2.9-2.8-4.3-.7-.9-1.8-1.6-2.2-2.6s-.1-2.5-.5-3.7c-.2-.6-.7-1.1-.9-1.8-.2-.5-.1-2-.4-2.4 6.1 2.4 14.9 2.8 20.6 0 3.1-1.5 5.9-2.6 8.6-5 4.2-3.8 6.3-8.8 9.7-13.2.5 1.6 4 1.7 5.2 1.5 2.3-.3 3.7-1.5 5.2-3.1 1.2-1.2 1.7-1.5 2.1-3.3 0-.2.5-4.2-.1-4 2.1-.9.9-5.2.2-6.7-1.8 1.8-2 4-2.4 6.4-.2 1-.2 2.3-.6 3.3-.1.3-.9 1.6-.9 1.7 1.5.8-1.6 3-2.4 3.3-2.1.9-4.1-.9-6-.2 3.1-7 5.4-14.7 6-22.4.3.5 1.8.6 2.1.1-1 1.2 8.4 2.7 9 2.8.7.1 10.6 2.4 11 1.6 0-.2.1-.4.1-.5.3.6 5.5 1.2 4.6-1 .2.4.1 1.4.7 1.5.5.1 1.9 0 2.1-.5.1.1 1.1.1 1.1.1.4 0 .5-.8.8-.9-.6.4 1.9 1.2 1.1.4.1 0 2.5-.3 2.4-.7l.3.6v-.4c.5.6 4.2-1 4.1-1.1 0 .2.1.4.2.6 0-.1 9.8-3.2 8.4-4.7.5.5 1.1 0 1.7-.1.6 2.1.4 4.3.8 6.4.1-.1 1.3-.1 1.3-.1-1.9 2.4-.7 4.4-.4 7.2.1.7-.1 1.5 0 2.2.1 1.3.6 1.6.9 2.7.1.3-.5 2.9-.5 3.1 0 .9-.1 1.8-.1 2.8 0 .8 0 1.6.1 2.4 0 .4-.4 1.2-.4 1.3.2.2.4.2.6.1 0 0-.4 8.3-.5 9-.1 1.1-.6 1.6-.7 2.1-.3 1.3.1 2.8-.1 4.1-.5 3.3-1.4 6.7-1.8 10.1-.2 2.1-.4 4.2-.6 6.4-.1 1.9-1.9 5.8-1.3 7.5-1.1-.9-1.8-7.1-4.1-5.1-.4-.4.4-.5.6-.6.9-.6-1.6-2.7-2-2.1 0-.2.1-.4.3-.5-.4.4-.2-.7-.2-.7 0 .3.2-.4.1-.8-.3-1.2-1.1-2.3-1.8-3.2s-2.5-4.4-3.5-4.2c.8-.4-1.8-5-1.9-5-1-.3-1.4-1.1-2.6-1.1-.3 1.1.6 4.2 2.2 4-1 .1 5.1 10.7 5.4 11.4 1.3 2.7 3.1 5.1 4.2 7.9.3.7 2 5.4 2.5 5.4.2-.1.4-.1.5-.1-.4.9 2.7 6.9 3.8 5-.6.8-.4 4.3.7 3.8 0 .2.5 1.3.5 1.3.4.7.7.3 1.3.7-.8-.6.2 2.5.2 1.5-.1.6 1.9 2.9 1.9 2.8-.2.2-.3.4-.5.6.1 0 .2-.1.4-.1-.4.8 2.9 4.7 2.8 4.9-.5.5 1.1 3.7 1.6 4.7.3.5 4.4 6.7 4.9 6.1-1.1 1.4 2.7 2.7.6 2.8 6 6 10.1-6.1 14.3-7.9 2.9-1.3 6.6-1.1 9.7-1.2 1.9-.1 3.8-.3 5.7-.5.9-.1 1.8-.5 2.7-.2.4.1 1.2.8 1.6.7-.7.1-.5 5.3 1.5 4.1-.8.6-.6.7-.4.7-.2.1-.6.1-1.1.3-.9.2-2.1 0-3 .1-1.9.2-3.9.4-5 2.1 2.7 1.1 6.2-.2 9.1 0 1.5.1 2.9.4 4.4.7 3 .5 5.7.1 8.4.4 4.6.5 9.4 1.3 13.9 2.3 1.9.4 3.8 1 5.7 1.6-.1 0 4.1 1.1 3.5.3.9 1.3 9.4 2.7 8.8 1.4.9 2.2 2.6 1.9 4.7 2.6.4.1 1 .7 1.7.8.8.1 1.3-.2 2-.2.1 0 1.2 1.4 1.5 1.6-.4-.2 1.3.3 1.7.4.7.2 1.5.3 2.3.4.4.1 1.1.9.9.9.2-.1.3-.3.2-.5-.3.4 4.5 2 4.7 2 .8.2 1.7.4 2.4.7.6.3 0 .6.4.7 1.5.7 2.8 1 4.3 1.7 1.5.8 4.4 2.5 6.2 2.5.5 0 .9-.1 1.2-.4 0 .4.1.8.6 1.2.9.8 2.9.5 3.9.7 1.6.3 4.3 2.4 6 1.8-2.5 15.6-2.3 33.8-19.6 40.5-.3.2-.7.3-1 .5-.4-.2.4 1.1-.1 1zm-125.8-107.4c-.1.1-.5.3-.5.2.2-.2.3-.2.5-.2zm-5-10c-.1-.3.4-.3.6-.2.2.2-.7.4-.6.2zm131.6 118.5c-.1.3.3-.4 0 0zm24.5.9c-.2 0-.3-.1-.5-.2-.1-.5.9.1.5.2zm42.5.6c-.2-.1-.3-.3-.2-.6.4.1.5.4.2.6z"/></g></svg>