<?xml version="1.0" encoding="UTF-8"?>
<svg width="390px" height="483px" viewBox="0 0 390 483" version="1.1" xmlns="http://www.w3.org/2000/svg" xmlns:xlink="http://www.w3.org/1999/xlink">
    <!-- Generator: Sketch 64 (93537) - https://sketch.com -->
    <title>Artboard Copy</title>
    <desc>Created with Sketch.</desc>
    <g id="Artboard-Copy" stroke="none" stroke-width="1" fill="none" fill-rule="evenodd">
        <g id="rightimage" transform="translate(0.000000, 73.000000)" fill-rule="nonzero">
            <path d="M127.599,345.599 C127.799,347.799 149.6,349.699 156.5,349.699 C162.4,349.699 173,344.099 176.3,333.999 C168.8,333.399 162.099,329.899 162.099,329.899 C162.099,329.899 127.399,343.499 127.599,345.599 L127.599,345.599 Z" id="Path" fill="#F45D48"></path>
            <path d="M177.5,320.8 C177.5,320.8 167,321.5 161.9,318.1 C161.6,317.9 162.1,329.9 162.1,329.9 C162.1,329.9 168.9,333.5 176.3,334 C176.9,332.1 177.3,330.1 177.3,327.9 L177.5,320.8 Z M196.4,369.1 C198.5,362.1 198.9,356.1 198.9,355.9 C191,356.3 179,352.1 179,352.1 L179.5,364.2 C179.5,364.2 179.3,364.4 179.1,364.9 C183.5,366.9 190,369.4 196.4,369.1 Z" id="Shape" fill="#DBAFAB"></path>
            <path d="M179.199,364.8 C176.299,369.2 159.299,395.6 156.999,399.1 C154.499,402.9 154.399,406.6 155.799,407.1 C157.199,407.6 171.799,397 184.599,387.8 C190.799,383.3 194.399,375.8 196.299,369.1 C189.999,369.4 183.499,366.9 179.199,364.8 L179.199,364.8 Z" id="Path" fill="#F45D48"></path>
            <path d="M185.199,238.9 C185.899,235.5 188.899,234.1 191.999,233.7 C192.499,233.6 192.899,233.7 193.299,233.9 C193.999,233.3 194.599,232.5 194.799,231.4 C195.799,225.4 186.899,225.5 183.299,225.7 C180.499,225.9 171.699,226.5 172.899,231.4 C172.399,232.2 171.699,233.3 171.199,234.4 C170.399,235.1 169.399,235.6 168.199,235.7 C165.399,236.4 166.399,240.6 169.099,240.3 C168.899,242.1 169.099,243.8 170.199,245.2 C170.699,245.9 171.699,246 172.499,245.8 C172.999,245.7 173.499,245.5 173.899,245.3 C174.199,245.8 174.699,246.2 175.199,246.5 C176.199,247 177.199,246.8 178.099,246.1 C178.299,246 178.399,245.9 178.499,245.7 C178.999,246.3 179.599,246.9 180.399,247.2 C180.899,247.4 181.499,247.3 181.999,247.1 C183.199,248.3 185.799,247.3 186.099,245.4 C185.299,243.3 184.799,241 185.199,238.9 L185.199,238.9 Z M245.399,122.8 C245.399,122.8 238.099,127.7 234.999,130.3 C231.899,132.9 224.899,137.8 224.899,137.8 C224.899,137.8 227.099,141 230.399,140.9 C230.399,140.9 226.899,157.9 241.999,158 L239.799,165.9 L258.099,164.4 L272.999,142.5 C272.999,142.5 275.499,139.6 274.799,138.3 C274.099,137 270.599,136 270.599,136 L265.399,136.3 L262.599,135.9 C262.799,136 245.399,122.5 245.399,122.8 Z" id="Shape" fill="#DBAFAB"></path>
            <path d="M263.799,116 C260.299,112.5 252.599,109 247.799,110.9 C247.599,111 247.399,111.1 247.199,111.3 C245.099,111.5 243.099,111.9 240.999,112.3 C239.899,112.5 239.399,113.2 239.299,114 C237.799,114.5 236.299,115.1 234.899,115.8 C233.699,116.4 233.499,117.5 233.799,118.4 C231.399,120.5 230.199,123.1 228.399,126.1 C226.799,128.7 230.899,131.1 232.499,128.5 C233.099,127.6 233.499,126.7 233.999,125.8 C234.499,125.9 235.099,125.8 235.699,125.5 C237.699,124.2 239.799,123 241.999,121.9 C242.899,121.4 243.799,121 244.799,120.5 C244.799,120.8 244.899,121.1 244.999,121.5 C247.199,126.1 249.299,131.1 253.599,134.2 C254.099,134.6 254.799,135 255.399,135.2 C258.299,137.7 262.799,138.7 265.999,136.5 L266.299,136.2 C267.399,136.4 268.499,136 268.799,134.5 C270.199,127.8 268.799,120.8 263.799,116 L263.799,116 Z M274.1,145.8 C274.1,145.8 274.1,145.7 274,145.6 C273.3,143.6 270.9,143.4 269.7,145 C269.6,145.2 269.5,145.4 269.3,145.5 C268.5,144.7 267,144.3 265.9,145.3 C263,147.5 260.7,150.4 259.3,153.8 C258.2,156.3 257,160.1 258.5,162.7 C259.4,164.3 261.1,165 262.6,164.6 C263.3,165.1 264.4,165.3 266,164.7 C270.5,163.2 273.7,157.5 274.5,152.2 C275.5,149.9 275.8,147.4 274.1,145.8 L274.1,145.8 Z" id="Shape" fill="#A34942"></path>
            <path d="M209.599,175.6 C208.799,176.3 208.7,177.1 208.9,177.8 C205.8,180.6 203.1,184.8 201.9,186.8 C198.7,192.5 195.4,198 192.8,203.9 C190.2,209.9 188.3,216.1 184.9,221.7 C183.4,224.1 186.799,226.3 188.599,224.6 C188.899,224.7 189.3,224.8 189.7,224.7 L200.2,223.5 C201.9,223.3 204.4,223.5 205.8,222.4 C207.2,221.3 207.5,219 207.8,217.4 C208.6,214.4 209.1,211.4 210,208.5 C211.9,202.2 214.7,196.3 217,190.2 C217.8,188.2 219.099,185.5 219.599,182.8 C219.799,182.6 220.1,182.3 220.2,181.9 C222.6,175.8 213.999,171.8 209.599,175.6 L209.599,175.6 Z" id="Path" fill="#88D8D8"></path>
            <path d="M291.4,204.5 C291.3,203.3 291.2,202.1 291.2,200.9 C291.5,200.6 291.7,200.1 291.7,199.5 C291.8,197.5 291.9,195.4 291.9,193.3 C292,189.8 292,186.3 291.9,182.8 C291.8,178.7 291.8,173.8 290,170 C286.9,163.4 279.8,162.7 275,167.8 C269.1,174.1 266.5,183.9 264,191.9 C261.4,200.6 260.2,209.4 258,218.2 C256.6,218.8 255,219.4 253.5,219.8 C253.1,219.7 252.7,219.6 252.2,219.8 C246,221.4 239.7,219.4 233.4,220.9 C232.6,221.1 232.1,221.5 231.9,222.1 C230.6,222.1 229.3,222.2 228.1,222.3 C218.6,222.8 209.1,223.3 199.7,224.6 C198.5,224.8 197.6,226.4 198,227.5 C199.6,231.8 200,233.9 204.7,234.2 C210.4,234.7 215.9,236.4 221.7,236.9 C233.7,237.9 245.5,241.7 256.9,245.4 C257.1,246 257.6,246.5 258.4,246.8 C277.8,252.7 291.1,236.5 291.7,218.3 C291.7,217.7 291.6,217.2 291.3,216.9 C291.6,212.8 291.6,208.6 291.4,204.5 L291.4,204.5 Z" id="Path" fill="#88D8D8"></path>
            <path d="M129.9,79.5 C139.9,96.6 143.4,131.7 134.3,133.6 C125.2,135.5 105.9,133.6 97.6,131 C97.6,131 99.4,106.1 96.3,89.8 C93.2,73.5 88.8,57.3 88.8,57.3 C88.8,57.3 100.7,69.8 113.6,61.8 L121.5,65.8 L129.9,79.5 Z" id="Path" fill="#2BADAD"></path>
            <path d="M67.3,264.1 C63.9,263.7 61.9,261.3 60.1,258.8 C59.6,258.1 58.9,257.8 58.3,257.8 C58.1,257.6 58,257.4 57.8,257.3 C52.1,253.3 45.4,259.5 44.5,265.2 L44.5,265.6 C42,269.5 42.4,272.8 44.1,277.8 C46.1,283.8 49.3,289.2 53.3,294.1 C53.7,294.6 54.2,294.9 54.7,294.9 C55.7,295.3 56.9,295.2 57.5,293.9 L59,290.6 C59.5,289.5 60.1,289.2 61.1,288.5 C63,287.2 64.8,285.7 66.6,284.3 C67.7,284 68.6,283 68.1,281.5 C67.3,279.4 66.6,277.4 66.1,275.2 C65.3,272 66.6,270.2 69,268.2 C70.8,266.8 69.1,264.3 67.3,264.1 L67.3,264.1 Z M83.3,293.8 C82.1,293.7 81.3,292.8 80.1,292.7 C79.9,292.4 79.7,292.2 79.4,292 C79,291.4 78.4,291 77.6,291 C76.8,289.8 75.2,289.2 74.1,290.6 C73,292 71.9,293.4 70.8,294.9 C69.2,297.1 72.1,299 74.1,298 C74.5,298.3 75,298.5 75.6,298.4 C76.5,298.4 77.3,298.2 78.2,297.9 C78.4,297.9 80,297.4 79.3,297.3 C79.6,297.3 80.5,298 80.9,298.1 C81.7,298.4 82.4,298.4 83.2,298.5 C86.3,298.7 86.3,293.9 83.3,293.8 L83.3,293.8 Z M69.2,133.3 C67.5,130.9 64.9,129.1 62.1,128.4 C60.6,128 59,128 57.4,128.4 C55.8,128.8 54.1,130.3 52.4,130.9 C52,130.2 51.7,129.4 51.2,128.7 C50.7,128.1 49.6,127.8 48.9,128.1 C45.5,129.2 42.4,132.1 40.8,135.4 C40,135.5 39.2,136 38.9,137 C37,143.2 38.4,151.2 44.1,155 C46.8,156.8 49.7,156.7 52.6,155.3 C56.9,153.3 60.6,150.2 65,148.1 C67.7,146.8 70.5,145.4 71.4,142.3 C72.2,139.4 71,135.8 69.2,133.3 L69.2,133.3 Z M207.6,67.8 C206.9,66.1 205.4,64.9 204.4,63.5 C203.8,62.6 203.4,61.6 202.3,61.1 C198.9,59.6 197.2,63.4 195.8,65.7 C194.6,67.5 187.6,78.1 185.5,75.3 C185.1,74.7 184.5,74.4 184,74.3 C184.5,73.2 184.9,72.3 185.2,71.5 C186.2,68.6 181.6,67.3 180.6,70.2 C178.1,77.7 172.9,87.2 183.8,90.3 C192.2,92.7 201.7,85.8 205.6,78.8 C207.3,75.5 209.2,71.6 207.6,67.8 Z M109.4,14.2 C109.4,14.2 113.1,27.6 126.8,30 C126.8,30 126.8,33.9 120.2,33.6 C120.2,33.6 117.9,47.8 106,48 L111.2,62.1 C111.2,62.1 101.9,68.1 91.8,60.2 C81.7,52.3 85.8,42.1 85.8,42.1 L80.1,32.9 L80.9,26.3 L93.1,21.9 L109.4,14.2 Z" id="Shape" fill="#BD7B77"></path>
            <g id="Group" fill="#222525">
                <path d="M175.899,234.1 C175.699,233.8 175.399,233.4 175.199,233.1 C174.299,233.5 172.499,235.9 173.699,236.8 C173.299,236.4 172.299,238.7 172.299,238.8 C172.099,240.4 172.399,240 174.299,240.5 C174.199,240.2 174.099,239.9 173.899,239.7 C174.799,240.1 176.499,234.7 175.899,234.1 L175.899,234.1 Z" id="Path"></path>
                <path d="M171.499,239.899 C170.899,240.199 170.999,243.899 171.999,243.599 C170.299,244.199 171.699,246.799 172.399,247.599 C173.699,246.599 174.199,245.799 174.199,244.199 C174.199,243.899 174.899,241.299 173.999,241.299 C174.299,241.099 174.499,240.899 174.699,240.699 C173.699,240.399 172.599,240.199 171.499,239.899 L171.499,239.899 Z M181.1,235.299 C180.9,234.299 180.8,233.699 180,232.899 C179.1,233.599 177.8,236.499 179.1,237.299 C177.9,236.599 176.4,246.099 178.5,244.899 C176.8,245.799 178.8,248.499 179.8,249.199 C181.7,246.699 179.8,243.099 180.8,241.399 L179.8,240.299 C180.3,240.699 181.2,235.999 181.1,235.299 L181.1,235.299 Z M184,239.8 C184.6,240.1 185.6,240.2 186.3,240.2 C186.1,240 185.9,239.7 185.7,239.5 C186.1,239.3 186.3,239 186.4,238.6 C186.4,237.8 186.4,237.6 186.5,236.8 C186.6,235.4 186.7,234.5 185.4,233.1 C184.5,233.7 183.5,236.3 184.8,237 C184.2,236.8 183.5,239.6 184,239.8 L184,239.8 Z" id="Shape"></path>
                <path d="M187.4,244.8 C186.7,244.9 187.2,240.4 186.2,240.9 C186.4,240.7 186.6,240.5 186.8,240.2 C185.1,240.2 183.7,239.6 183.4,241.2 C183.3,241.8 184.1,244.1 184.9,243.6 C183.3,244.5 185.7,246.7 186.6,247.1 C186.7,247 187.6,244.8 187.4,244.8 Z M271,150.6 C269.4,147.3 267.5,151.3 269.1,152.5 C268.9,152.3 267.1,154.1 267.1,154.3 C267.1,154.8 268.8,156.1 268.8,156.1 C268.8,156.1 268.8,155.3 268.7,155.2 C269.1,156.1 271.5,151.8 271,150.6 L271,150.6 Z" id="Shape"></path>
                <path d="M267.9,156.8 C268.3,156.8 268.6,156.8 269,156.7 C268.2,155.8 267.2,154.3 266.2,154.6 C265.8,154.7 264.4,156.3 264.8,156.8 C264.1,156 262.2,156.8 261.8,157.6 C261,159.2 262.4,158.8 263.5,159.6 C263.8,159.8 268.6,157.1 267.9,156.8 Z M252.2,147.599 C251.3,147.099 250.7,147.599 249.9,147.199 C250.3,147.399 246.4,148.799 246.6,149.199 C246.4,148.999 246.2,148.899 246.1,148.699 C246.3,148.799 245.4,149.799 245.4,149.899 C245.4,149.099 243.3,149.099 242.9,148.999 C243.2,149.099 240.9,148.999 241.6,148.599 C241,148.999 239.9,149.099 239.3,149.399 C239.6,150.499 242.2,152.099 243,150.799 C242.7,151.299 245,151.799 245.1,151.799 C246.7,151.599 246.3,151.599 246.1,149.699 C246.3,151.699 245.8,152.399 247.8,151.999 C248.3,151.899 250.2,150.899 249.5,150.199 C250.9,151.299 252,148.599 252.2,147.599 L252.2,147.599 Z M241.6,134.9 C242.5,135.3 241.4,137.8 243.1,137.5 C242.3,137.6 244.7,140.5 245.3,140.7 C246,140.9 250,140.2 248.8,139.2 C250.1,140.2 251.2,137.5 250.6,136.6 C249.8,135.3 248.5,136.5 248.2,137.5 C248.1,137.8 246.5,137.2 246.3,138.4 C246.2,138.2 246.1,138 246,137.7 C245.8,138.1 245.5,138.4 245.2,138.6 C245.6,137.7 244.6,137.1 244.4,136.5 C244.5,136.8 243.2,135 244,135.3 C243.6,135.2 242.3,133.9 242,134 C241.9,134.1 241.2,134.8 241.6,134.9 L241.6,134.9 Z M174.9,383.1 C175,382.6 174.5,383.4 174.9,382.7 C174.9,382.7 173.6,383.1 174.4,382.2 C174.2,382.1 173.5,380.8 173.1,381.7 C173.2,381.5 173.3,381.3 173.3,381 C172.5,381.8 171.7,382.6 171,383.5 C170.8,384.1 172.7,383.7 172.8,383.6 C172.7,383.8 172.6,384.6 172.7,384.6 C173.5,384.4 174.7,384.2 174.9,383.1 L174.9,383.1 Z M178.9,378.099 C179,378.099 178.5,377.499 178,377.399 C178,377.199 178,376.999 178.2,376.899 C178.1,376.799 177.1,375.399 176.7,376.299 C176.8,376.099 176.8,375.899 176.9,375.699 C176.9,376.399 174.9,377.599 174.5,378.099 C174.3,378.599 176.2,378.899 176.5,378.399 C174.8,380.799 179.8,378.099 178.9,378.099 L178.9,378.099 Z M65.1,144.5 C65,144.4 66,144.4 66,144.4 L65.7,142 C65.4,142.2 65.1,142.4 64.8,142.7 C64.7,142.4 64.5,142.2 64.1,142.2 C63.1,142.4 62.2,142.5 61.2,142.7 C59.5,143.2 57.1,143.8 57.1,145.9 C58.2,146.2 61.4,145.8 61.7,144.3 C61.7,145 65,144.3 65.1,144.5 L65.1,144.5 Z" id="Shape"></path>
                <path d="M74.5,142.199 C74.1,140.699 66.5,140.899 65.7,141.599 C66,143.499 65.4,144.699 67.3,144.899 C67.8,144.999 70.5,144.299 70.2,143.499 C70.9,145.099 74.2,143.899 75.1,143.299 C74.9,142.899 74.7,142.599 74.5,142.199 L74.5,142.199 Z M70,135.399 C69.1,135.899 66.7,135.699 66.2,135.499 C66.3,135.499 65.2,136.699 65.2,136.699 C65.2,135.699 57.8,136.699 57.8,139.599 C59.4,140.099 60.7,139.099 62.1,138.699 C62.8,138.499 63.4,138.299 64.6,138.399 C65.3,138.499 71,139.299 70.3,137.499 C71,139.099 74,137.899 75,137.299 C73.7,135.599 72.8,135.199 70.7,135.199 C71.6,135.299 69.2,135.799 70,135.399 L70,135.399 Z M58,135.3 C58,134.2 60.8,135.1 60.7,133.6 C60.7,134.1 67.7,133.9 66.7,132 C67.5,133.6 72.8,130.4 67.9,129.6 C67.2,129.5 63.5,130.1 63.9,131 C63.6,130.8 63.3,130.7 63,130.6 C62.9,131 62.8,131.5 62.6,131.9 C62.6,131.3 54.6,132.6 58,135.3 L58,135.3 Z M200.4,64.8 C200.3,65.2 199.7,65.7 200.3,66 C199.2,65.5 199.3,67.1 199.7,67.6 C199.4,67 195.8,70.8 195.7,70.8 C195.8,71.8 195.1,72.4 195.3,73.5 C196.9,73.5 197.6,72.1 198.5,71.1 C199,70.6 199.7,69.8 200.7,69.1 C201.3,68.7 205.2,65.2 203.2,64.7 C205,65.1 205,61.6 204.8,60.6 C203.2,60.9 200.8,62.9 200.4,64.8 L200.4,64.8 Z M204.999,67.1 C204.699,67.5 202.799,69.6 203.699,70 C202.599,69.5 202.699,71.1 203.099,71.6 C202.799,71 199.199,74.8 199.099,74.8 C199.199,75.8 198.499,76.4 198.699,77.5 C200.299,77.5 200.999,76.1 201.899,75.1 C202.399,74.6 203.099,73.8 204.099,73.1 C204.699,72.7 208.599,69.2 206.599,68.7 C208.399,69.1 208.399,65.6 208.199,64.6 C206.499,64.9 205.699,65.6 204.999,67.1 L204.999,67.1 Z M97.2,39.3 C98.4,38.7 99.2,41.6 100.499,40.3 C99.599,41.4 108.099,44.1 106.899,41.3 C107.699,42.9 109.999,40.8 110.399,39.9 C109.699,39.6 108.799,39.3 108.299,38.7 C108.899,39.3 106.699,39.1 106.999,39 C105.699,39.2 104.999,39.6 104.199,39 C104.299,39.1 103.199,39.9 103.199,40 C103.399,39.5 99.499,38 99.599,37.9 C98.199,38.6 97.299,37.6 97.199,39.3 L97.2,39.3 Z M104.5,29.6 C105.4,30.7 106.3,31.7 107.7,30.8 C108.1,30.6 109.2,28.5 108.7,28 C107.5,26.4 103.7,28.9 104.9,28.9 C104.7,28.9 104.6,29.6 104.5,29.6 L104.5,29.6 Z M362.299,303.8 L362.399,303.8 C362.199,303.8 362.099,303.9 361.899,303.9 C361.999,304 362.099,304 362.299,303.8 Z M94.7,65.2 L94.5,65.2 C94.6,65.2 94.6,65.3 94.7,65.2 C94.7,65.3 94.7,65.3 94.7,65.2 Z M125.499,48.5 C125.499,48.4 125.399,48.4 125.399,48.4 C125.399,48.5 125.499,48.6 125.499,48.7 L125.499,48.5 Z M120.5,35.3 C120.6,35.1 120.5,35 120.3,35 C120.3,35.1 120.3,35.1 120.4,35.1 C120.4,35.1 120.5,35.2 120.5,35.3 L120.5,35.3 Z M47.5,126 C47.7,126.2 48,126.3 48.1,126.1 C48,126 48,125.9 47.9,125.8 C47.7,125.8 47.3,125.8 47.5,126 Z M172.399,381.5 C172.499,381.4 172.699,381.4 172.799,381.3 C172.699,381.3 172.499,381.4 172.399,381.5 Z M223,193.2 C223,193.2 223.1,193.2 223.1,193.1 C223.1,192.9 223.1,193 223,193.2 Z M188.3,157.3 C188.4,157.2 188.5,157.2 188.5,157.2 L188.3,157.2 L188.3,157.3 Z M243.2,240.1 L243.4,240.1 C243.3,240 243.3,240 243.2,240.1 Z M161,115.5 L160.8,115.5 C160.9,115.5 160.9,115.6 161,115.5 C161,115.5 161,115.6 161,115.5 Z M258.1,129.2 L258.3,129.4 C258.7,129.1 258.2,129.1 258.1,129.2 Z M68.4,267.4 L68.4,267.2 C68.3,267.3 68.3,267.4 68.4,267.4 Z M235.099,127.7 L235.099,127.4 L234.899,127.6 C234.999,127.7 235.099,127.8 235.099,127.7 Z" id="Shape"></path>
                <path d="M389,301.9 C385.8,300.6 382.2,301.5 378.9,301.7 C374.6,301.9 370.2,301.4 366,301.2 C360.5,301 355.6,301.5 350.3,301.6 C332.2,301.7 314,301.3 295.9,301.3 C295.9,301.4 296.1,302.8 295.8,302.6 C293.2,300.5 290.6,301.3 287.4,301.3 C285.1,301.3 282.2,300.4 280.5,301.9 C281,301.4 275.6,301.3 275.3,301.2 C274,301.1 273.1,301 271.7,301.2 C271.5,301.2 267.8,301.7 268.5,300.8 C270.3,298.9 274.7,300.1 276.4,297.3 C275.7,297.1 277.2,296.3 277.5,295.7 C278.7,295.1 279.7,293.1 280.6,292.2 C281.8,291 282.9,289.8 283.8,288.4 C286,285.1 287.1,281.1 288,277.3 C289,273.3 289.8,269.3 290.1,265.2 C290.1,264.9 290.6,257.9 289,258.9 C289.2,257.7 289.6,258.4 290,257.3 C290.4,256 290.5,253.9 290.5,252.6 C290.5,251 290.1,250.3 290.2,248.9 C290.3,247.7 290.5,246.6 290.8,245.6 C292.2,241.1 292.5,235.4 292.6,230.5 C292.6,228.9 292.2,227.7 292.3,226.3 C292.6,223.9 292.9,221.3 293.1,218.8 C293.9,208.2 294.7,197.2 294.3,186.6 C294.2,182.7 294.3,178.5 293,174.8 C292.6,173.8 289.3,169.2 289.4,168.7 C290.9,167.1 283.9,163.2 282,162.8 C278.7,162 275.2,162.6 271.8,162.5 C269.5,162.4 268.2,161.8 267,164 C267.1,164 268.3,164 268.3,164.1 C268.2,164.4 259.7,163.4 258.2,163.5 C259.1,162.9 259.3,157.1 258.1,157.1 C259.7,156.9 258.3,153.2 260,153.4 C258.6,152 266.9,145.6 266.9,145.6 C266.7,147.2 270.9,145.1 271.5,145 C274.1,144.6 272.6,146.8 274.6,147.3 C274.1,147.2 274.1,150.5 274.3,150.8 C273.4,151.5 273.8,150.2 273.2,151.6 C273,152 272.6,154 273.3,154.2 C271.8,153.9 270.9,156.7 270.7,157.7 C273.2,158.3 275.2,156.1 276.1,154 C276.5,153.4 276.5,152.7 276.1,152.1 L276.7,151.5 C276.7,151.1 276.3,149.9 276.2,149.3 C275.9,147.2 276.3,146.3 275.1,144.3 C274.5,143.3 273,142.5 272.9,142.2 C272.8,142.1 274.7,142.4 274.6,142.6 C274.7,142.5 274.1,141.7 274.3,141.5 C274.6,141.2 275.1,141.2 275.3,140.7 C275.4,140.4 276.1,138.8 275.9,138.7 C275.6,138.6 275.2,138.6 274.9,138.4 C275.2,138.4 275.4,138.3 275.4,138 C275,138.7 274.5,136.4 274.3,136.4 C275.7,136.1 276.3,129.7 274.9,129.3 C275.7,129.6 274.2,124.2 274.7,123.8 C273.9,123.7 270.9,117.9 270.4,117.3 C269.6,116.5 265.7,113.1 264.8,113.7 C265.5,113.1 260.8,111.1 260.2,110.9 C259.7,110.7 258.1,109.7 257.6,109.9 C256.6,110.3 257.6,111.4 257.3,111.8 C257.1,112 256.7,110.1 256.9,110.2 C256.5,110.1 253.2,109.5 253.3,109.4 C253.2,109.7 253,110 252.8,110.3 C252.9,110 252.9,109.8 252.6,109.7 C252.6,109.9 252.5,110.1 252.5,110.3 C250.4,109.1 248.9,109.3 246.4,109.7 C244.7,110 242.7,110 241.1,110.6 C239,111.4 240.6,111.6 239.7,112.6 C239.5,112.8 239.3,112.3 239.3,112.1 C239.3,112.6 237.4,112.5 237.6,112.3 C237.4,112.4 236.3,114.1 237.1,114.1 C236.8,114.2 235.5,113.7 235.7,114.5 C235.3,113.3 229,119.3 228.7,119.7 C228.4,120 226.6,120.6 226.9,121.4 C226.7,121.3 226.4,121.2 226.2,121 C226.8,122.9 225.9,120.7 225.9,122.2 C225.9,121.6 221.9,121.9 222.1,121.6 C221.6,122.2 220.6,122.4 220.1,122.9 C220.6,123.8 223,124.8 223.7,123.5 C223.5,123.9 227.5,124.2 228.1,124.3 C226.3,123.8 227.6,131.3 228.8,129.6 C229.3,131.1 222.8,134.1 222,135.5 C220.7,137.6 222.1,139.2 223.8,140.4 C223.9,140.4 227.1,142.5 226.8,141.5 C227,142.2 229.1,142.8 229.3,142.2 C229.2,142.5 229.4,142.6 229.7,142.4 C229.9,142.5 229.3,144.2 230.5,143.7 C228,145 230,147.9 230.1,149.6 C230.3,149.7 230.4,149.9 230.6,150 C230.3,150.3 230.1,150.6 230,151 C230,151.3 230.4,151.9 230.4,151.6 C230.4,151.9 232,155.2 232.1,154.8 C231.9,155 231.8,155.2 231.6,155.5 C231.7,155.5 231.8,155.5 231.9,155.4 C231.8,156.3 237.2,159.6 237.1,159.2 C237.5,160.3 237.6,159.5 238.9,160.2 C239.4,160.4 239.2,160 239.6,160.3 C239.9,160.5 239.8,161.2 240.3,161.4 C239.8,161.1 238.8,162.7 239,162.9 C239.1,162.9 239.3,163 239.4,163 C238.9,162.9 238.5,162.8 238.4,163 C238,163.5 238.4,164.8 239.1,164.9 C238.3,164.9 238.1,165.2 238.5,165.9 C232.6,166.4 226.4,167 220.7,168.7 C220,168.9 214.6,170.8 216.1,171.7 C215.7,171.9 215.4,172 215,171.9 L215,171.3 C213.7,170.6 209.3,174.9 208.8,175.8 C207.8,177.4 207.2,178.7 205.7,179.9 C200.6,183.9 198.7,189.9 195.8,195.6 C195,197.1 194,198.4 193.4,200 C192.7,201.7 192.7,203.5 191.9,205.1 C190.1,208.5 188.4,211.9 186.8,215.5 C185.9,217.6 185,219.7 184.5,221.9 C184.3,222.6 184.5,224.1 183.9,224.6 C182.9,225.5 177.4,224.1 177.5,226.4 C176.7,223.3 170.3,233.5 170.1,233.7 C169.6,234.3 167.6,236.2 166.7,236.3 C165.3,236.3 165.4,235.1 164.9,234 C164.7,233.5 163.3,230.1 162.5,230.8 C163.8,229.7 160.3,226.8 161,225.9 C159.9,225.9 158.3,221.3 157.8,220.4 C157.3,219.4 154.7,214.6 153.8,214.7 C154.5,214.6 152,210.3 151.7,209.6 C151.4,209 151,207.9 150.5,207.7 C149.3,207.3 149.7,208.7 149.1,208.7 C148.8,208.7 149.9,207.1 150.1,207.3 C149.8,206.8 149.3,206.9 149,206.1 C148.8,205.7 148.9,204.1 148.6,204.1 C148.3,204.2 148,204.2 147.6,204.2 C147.9,204.2 148,204 148,203.7 C147.8,203.8 147.7,203.8 147.5,203.9 C147.8,200.8 147.6,197.9 148.6,194.6 C149,193.3 151.1,187.3 149.3,186.4 C151.7,186.1 152,176.3 152.3,175.2 C152.9,177 160.1,178.4 161.5,178.3 C162.5,178.3 163.4,178.3 164.4,178.2 C166.3,178 168.3,178.5 170.1,177.6 C171.7,176.8 173.3,175.6 174.2,174 C175.6,171.8 175.5,169.6 175.1,167.2 C174.8,165.4 175,162 173.7,160.7 C174.9,160.5 176.7,161.4 178,161.5 C178.9,161.5 179.7,161.5 180.7,161.6 C181.6,161.7 182.9,162.3 183.9,162 L185.4,161.7 C186.8,160.3 195,159.4 193.7,156.3 C193.8,156.5 196.9,151.3 197.2,150.6 C198.9,145.9 199,140.2 199.4,135.3 C199.6,133.3 199.4,131.3 199.5,129.4 C199.6,128.2 199.8,126.8 199.8,125.3 C199.8,124.3 199.9,117.8 198.4,119.1 C200.3,117.2 199.6,115.9 199.5,113.3 C199.5,112.6 199.8,111.8 199.7,111 C199.6,110.5 198.9,109.4 198.9,109.1 C198.9,108.5 199.7,107.8 199.8,107.1 C199.7,107.5 199.6,105.6 199.6,105.2 C199.5,104.4 199.2,103.5 199.2,102.7 C199.2,102.5 199.5,101.5 199.6,101.4 C199.4,101.3 199.3,101.3 199.1,101.4 C198.6,101.2 199.2,90.4 199.5,89.3 C200.2,86.5 203.8,84.1 205.6,82.1 C206.4,81.2 207.5,80.1 207.9,78.9 C208.2,78.1 208.2,77.2 208.5,76.6 C209.8,74.5 211.7,73.4 211.1,70.3 C207,71.9 205.5,78 202.3,80.6 C200.7,81.9 199,83 197.8,84.7 C196.1,87.2 196.3,89.9 196,92.8 C194.4,91.1 188.7,91.3 186.4,90.5 C186.4,90.6 186.3,90.7 186.3,90.9 L185.8,90.9 C183.9,90.4 182.1,89.3 180.4,88.3 C177.9,86.7 177.8,85.1 178.5,82.2 C178.9,80.1 179.5,77.4 180.4,75.4 C181.1,73.9 183.5,72.5 183.4,70.8 C183.4,71.4 183.4,70.9 183.7,70.5 C183.7,70.8 183.7,71.4 183.9,71.2 C183.4,71.6 183.4,71.7 183.8,71.6 C182.2,71.9 181.7,77.3 182.5,78.4 C184.5,81 188.1,77.2 189.4,75.8 C191.5,73.6 192.5,71.2 194.2,68.9 C195.3,67.4 197,66.5 198,64.8 C199.1,63 200.1,60.9 200.3,58.7 C195,63.2 191.1,69.4 186.3,74.4 C187.6,72.3 190.8,65.9 186.9,64.7 C183.2,63.5 179.6,70.1 178.3,72.6 C176,77 174.9,82.4 174.6,87.4 C174.4,89.6 175,91.1 175.4,93.2 C175.5,93.6 175.4,96.5 175.7,96.1 C174.4,96.4 175.6,103.7 175.7,105.4 C175.9,107.6 176,109.8 175.6,112.1 C175.3,114.1 174.3,115.2 175.7,116.8 L176.3,115.8 C177.3,117 173.3,117.8 172.3,117.1 C172.1,117 169.4,113.4 168.2,112.7 C167.8,111.3 165.9,109.4 165.1,108 C163.1,104.6 161.2,101.2 158.8,98 C156.8,95.2 155.9,94.1 157.2,90.9 C157.7,89.7 158.2,88.5 158.4,87.1 C158.5,86.4 158.2,86.4 158.2,85.8 C158.2,85.3 158.9,85 158.8,84.6 C158.8,84.6 158.5,84.6 158.2,84.5 C159.8,84.2 158.1,80.1 159.3,79.4 C158.7,79.1 158.9,76.9 158.8,76.3 C158.4,74.6 157.8,72.6 157,71 C156.4,69.8 152.8,64.2 150.8,65.8 C151,65.7 143.7,62.9 141.9,64.4 C141.7,64.3 141.5,64.3 141.4,64.5 C141.6,64 142.8,62 142.5,61.7 C142.2,61.6 141.9,61.4 141.7,61.2 C142,61.3 142.2,61.2 142.3,61 C141.2,61.9 142.8,58.3 142.8,58.6 C143.2,56.3 141.6,52.7 139.9,51.2 C139.1,50.4 132.8,46.9 133.6,49.9 C132.9,50.1 133.4,49.4 133.3,49.1 C133.4,49.6 131.7,48.9 131.6,48.9 C131.2,48.9 129.5,50.3 130,50.3 C129.4,50.4 128.4,49.4 128.4,50.3 C128.5,49.3 126,49.7 125.9,50.5 C126,49.9 125.9,50.6 125.8,50.6 C125.6,50.5 125.4,50 125.1,49.3 C124.9,49.4 124.3,49.3 124.5,49.1 C124.6,49 124.8,49 125,49 C124.5,47.8 123.9,46.2 123.5,45.7 C123.3,45.4 122.5,45.6 122.2,45.3 C121.8,44.9 122,44.3 121.4,43.9 C119.8,42.6 118,43.7 116.8,42.9 C117.3,42.8 117.4,42.5 117,42.1 C116.9,42 120.7,41.9 121,41.4 C120.8,41.7 123.8,42.7 124.1,42.7 C125.3,42.9 126.5,42 127.5,42.2 C129.5,42.5 130,46.3 131.6,43.1 C131.7,43.4 131.8,43.6 131.8,43.9 C132.2,42.7 132.4,44.5 132.6,44.1 C132.9,43.6 132.9,43.2 132.6,42.7 C132.8,42.8 132.9,43 133,43.2 C132.9,42.8 133,42.8 133.4,43.2 C133.3,43.1 133.3,43 133.3,42.9 C134.4,45.1 135.9,40.7 135,40.7 C135.6,40.7 135.6,40.3 135.7,40.4 C135.5,40.2 135.4,39.9 135.2,39.8 C135.5,39.8 135.7,39.8 135.8,39.7 C135.9,39.3 135.7,39 135.7,38.6 C135.8,37.8 135,36.9 134.2,36.5 C133.8,36.3 129.2,35 130.2,36 C129.9,35.7 129.7,35.6 129.8,36.3 C129.6,35.2 125.4,39.1 128.3,39.1 C128,39 128.1,39 128.4,39 C128.3,39.3 127.3,38.9 127.3,39 C127.6,39.1 127.7,39.3 127.9,39.5 C127.1,39.6 125.6,39.1 125.2,40.2 C125,40 124.7,39.8 124.5,39.6 C124.3,40 124,40.3 123.7,40.7 C124.2,39.7 118.9,39.8 119.1,39.7 C119,39.2 120.5,36.7 120.1,35.8 C120.1,35.8 120,35.7 120,35.6 C119.8,35.5 119.6,35.4 119.1,35.5 C119.5,35.7 118.8,35.9 118.6,35.6 C118.6,35.6 119.5,35.3 119.9,35.5 C119.8,35.2 119.6,34.9 119.8,34.9 C120.2,35.1 121.6,36.1 121.8,35.7 L122.1,34.8 C122,35.1 122.1,35.3 122.4,35.4 C121.5,34.4 124.1,35.1 124,35.2 C125.8,34.7 127.1,33.7 127.9,31.8 C129,29 124.9,24.1 124,27.1 C123.6,27.1 124.1,26.2 124.1,26.2 C123.7,26.3 123,25.4 122.9,25.3 C122.7,24.9 121.8,26 121.7,25.8 C121.9,26 124.3,21.1 124.4,20.4 C125.2,16.6 123.4,13.5 121.3,10.9 C119.2,8.2 115.5,8.7 113.2,6.5 C111.1,4.4 110,2.7 106.7,1.6 C96.7,-1.7 84.3,4.8 76.9,11.2 C69.2,18 64.7,27.8 64.7,38.2 C65.1,38 65.5,38 66,38.1 C64.8,40.5 60.1,38 58.3,37.6 C56.6,37.3 54.6,36.1 52.8,36.5 C52.4,36.6 51.2,37.2 51.1,37.2 C50.7,37.2 50.1,36.8 49.7,36.8 C47.8,36.9 46.3,37.5 44.5,38.1 C43.9,38.3 37.4,42.3 37.6,42.7 C38.3,43.3 37.5,43 36.9,43.9 C36.2,44.9 35.5,45.6 34.8,46.8 C33.9,48.5 33.6,51 32.4,52.6 C31.3,54 31.1,53.6 29.6,53.6 C26,53.6 22.3,54.8 19.3,56.7 C13.7,60.1 10.2,67.3 11.5,73.8 C12.1,76.8 14.1,78.1 15.6,80.5 C17.6,83.5 19.7,84.6 23.3,85 C20.9,86.8 18.6,89.5 16.3,91.6 C13.4,94.3 10.5,97.4 8.3,100.8 C8.4,100.8 9.7,101.5 9.2,101.7 C6.7,102.8 6.1,103.1 4.5,105.5 C3.4,107.2 2.6,108.9 1.7,110.6 C0.5,112.8 -0.2,114.1 0.3,116.7 C0.4,117.3 0.9,117.7 0.9,118.1 C1,118.6 0.4,118.8 0.5,119.4 C1,121.6 2.2,124.1 3.5,125.9 C4,126.6 8.3,131.2 7.9,131.5 C8.5,131 9.1,132.4 9.8,133.3 C10.9,134.6 12.2,135.8 13.5,137 C15.8,139.2 18.7,141 20.9,143 C24.3,146.2 28.8,149 32.7,151.8 C33.6,152.4 39.6,157.8 41.5,156.8 C40.8,158.4 44.5,159.5 45.7,159.8 C41.4,164.1 46.2,173.3 51.4,174.3 C48.5,178.2 53.5,186 55.5,189.2 C58.6,194.1 61.4,197.8 66,201.5 C67.8,203 70.6,204.4 72.1,206.1 C73.8,208 72.9,208.3 71.8,210.1 C70.3,212.9 68.6,215.4 67.2,217.8 C66.3,219.3 64.7,220.4 64.1,222.1 C63.6,223.4 64,223.7 63.2,225.1 C61,229.1 58.7,232.9 56.5,236.9 C54.8,240 52.7,243.8 51.1,246.4 C50.6,247.2 46.2,254.8 48.2,254.3 C46.4,254.7 44.7,256.5 44.7,258.5 C44.7,258.8 43.4,260.9 43.3,261.2 C43.1,261.6 43.5,261.9 43.3,262.2 C43.1,262.5 42.1,263 41.8,263.4 C41.9,263.2 41,265.6 40.8,266 C40.6,266.6 40.7,267.4 40.5,268 C40.4,268.3 39.7,268.2 39.6,268.4 C39.7,268.5 39.8,268.6 39.9,268.6 C39.3,269.3 40.6,278.1 41.4,277.3 C40.6,278.1 43.6,284.9 44.3,286.4 C44.9,287.6 49.9,293.9 50,293.6 C49.3,295.4 52,295.8 52.5,297.1 C52.7,297.6 51.8,300.5 51.7,300.5 C50.8,299.6 46.4,290.4 44.6,291.9 C44.2,291.7 45.2,291.2 45.2,291.2 C43.8,290.8 45.4,290.4 44.8,289.7 C44.7,289.6 43.2,288.9 43.2,289.5 C43.1,288.9 43.5,288.8 43.5,288.1 C43.4,288.1 43.3,288.1 43.1,288.2 C45.4,287.8 39.1,280.1 39.1,280.1 C39.6,279.6 38,275.4 37.7,275.3 C36.8,275 36.2,274.3 35.3,274.1 C34.9,275.2 35.6,278 37,278 C36.4,278 38.5,283.5 38.8,284.2 C39.6,286.3 40.7,287.8 41.8,290 C43,292.3 44.1,294.8 45.4,297.1 C45.8,297.7 49.2,301.9 49.4,301.1 C49.3,301.8 49.6,301.6 50,302.1 C50,302.1 48.7,302.2 48.9,302.4 C47.9,301.4 46,302.3 44.3,302.2 C42.1,302.1 39.7,301.7 37.4,301.7 C33.6,301.7 29.5,301.4 25.7,302 C21.8,302.6 17.8,302.1 14,303.6 C17.1,305.7 22.5,305.3 26.2,305.3 C31,305.2 35.7,305.4 40.5,305.4 C45.4,305.5 50.3,305.3 55.2,305.3 C57.2,305.3 64.8,306.5 66.5,304.6 C66.7,304.7 66.8,304.9 66.5,305 C66.5,304.9 82.6,307.1 83.1,303.9 C83.5,304.4 91.3,305.7 91.3,304.1 C91.4,304.7 93.5,304.6 95,304.7 C99,305.1 103,305.1 107,305.3 C107.8,305.3 119.1,306 117.9,303.9 C119.1,303.7 118.2,304.2 118.5,304.7 C119.1,305.7 124.1,304.3 124.7,304.3 C125.9,304.2 126.6,304.7 127.5,305 C129.3,305.4 130.9,305.4 132.7,305.3 C136.8,305.1 141.1,305.2 145.1,304.6 C149.4,303.9 154.5,304.5 158.9,304.5 C158.2,306.4 159,309.9 159.1,312.1 C159.1,315.3 159.5,318.5 159.6,321.7 C159.7,323.8 160.5,326.8 159.9,328.8 C159.1,331.4 157.1,331 154.9,332.1 C155,332.1 155.6,333.4 155.3,333.3 C151.7,332.3 149.2,334.4 146,335.8 C144.7,336.3 143.1,336.4 142,337.2 C141.4,337.6 140.8,338.4 140.5,338.6 C138.7,339.4 136.9,339.7 135.2,340.3 C134.6,340.5 128.8,343.3 128.7,343.1 C129.2,344 125,344.9 124.5,346.5 C123.6,349.6 128.9,350.3 130.9,350.4 C136.3,350.8 141.6,351.5 147.1,352.1 C149.8,352.4 152.3,352.8 155,352.6 C155.5,352.6 156.1,352 156.4,352 C156.5,352 156.7,352.5 157,352.5 C158,352.5 159,352.7 160.1,352.6 C162.3,352.4 164.5,351.7 166.7,351.6 C169.9,351.4 173.6,352.2 176.5,350.3 C176.5,350.5 176.1,352.9 176.5,352.3 C177.1,353.1 176.2,363.4 176.7,363.4 C177.6,363.3 176.7,365.7 176.2,366.5 C175,368.9 172.8,370.8 171.4,373.2 C169.7,376.1 167.9,378.3 166.2,381.2 C165.6,382.3 154,398.2 155.9,399.1 C155,398.6 154.1,401.2 153.5,402.1 C152.7,403.4 151.3,405.1 151.3,406.7 C151.2,411.3 156.2,409.2 158.6,407.9 C160.5,406.8 161.9,405.4 163.8,404.2 C167.1,402.1 170.4,400 173.6,397.8 C181.4,392.6 190.2,386.9 196.6,380 C199.6,376.8 200.6,373 201.4,368.8 C202.4,363.7 203.5,358.6 204.3,353.5 C204.2,353.5 202.8,353.5 203.1,353.2 C204.7,351.3 205,350.8 205.4,348.3 C205.7,346.1 205.9,343.9 206.3,341.7 C206.8,338.7 207.2,335.7 207.8,332.8 C208.1,331.4 210.4,320.3 210.2,320.2 C209.5,320.1 210.6,317.2 210.8,316 C211.5,312.3 211.4,308.3 212.6,304.7 C215.7,306.1 219.3,305 222.5,305.1 C225.1,305.2 227.6,305.4 230.2,305.1 C235.2,304.6 240.5,305.6 245.6,305.4 C251.7,305.2 257.7,305.1 263.8,305.5 C266.2,305.6 268.4,305.6 270.7,305.3 C271.3,305.2 274.3,304.5 274.4,304.6 C274.7,306 282.3,305.3 284.1,305.2 C286.5,305.1 288.9,305.4 291.3,305.3 C294.3,305.1 292.2,303.4 292.8,303.2 C293.5,302.8 293.9,304.4 294.2,304.4 C295.2,304.7 296.4,304.4 297.4,304.5 C299,304.7 301.3,305.8 302.3,304.8 C302,305.1 303.9,304.3 304.1,304.2 C303.5,304.5 308.2,304.8 308.8,304.9 C313.6,305.3 318.4,305.2 323.3,305.4 C324.2,305.4 337.2,305.9 336.1,304 C337.6,303.8 336.4,304.2 336.8,304.8 C337.6,306.2 344.9,304.1 346.6,304.5 C350.3,305.4 354,305.5 358.1,305.4 C359,305.4 359.9,305.1 360.8,304.9 C360.7,304.7 361,304 361.4,304.4 C361.5,304.6 361.4,304.8 361.2,304.8 C361.5,304.7 361.8,304.7 362.1,304.7 C363.2,304.7 364,305.1 365,305.2 C366.8,305.3 368.4,304.5 370.1,304.4 C375.7,304.3 383.2,306.1 388.4,303.1 C389.5,302.1 389.3,302 389,301.9 L389,301.9 Z M201.5,83.6 C201.5,83.7 202.2,84 201.9,84.2 C201.7,84.2 201.2,84 201.5,83.6 Z M198.7,116.2 C198.9,116.2 198.9,116.3 198.7,116.6 C198.4,116.7 198.4,116.3 198.7,116.2 Z M198.3,117.1 C198.9,116.5 198.6,117.1 198.3,117.7 C198.2,117.5 198.2,117.3 198.3,117.1 Z M184,73.1 C183.8,72.8 183.9,72.7 184.2,72.7 C184.3,73 184.2,73.1 184,73.1 Z M184.7,72.6 C184.1,72.7 183.8,72.5 184.3,72 C184.6,71.8 184.7,72.5 184.7,72.6 Z M157.6,83.8 C157.4,83.8 157.3,83.7 157.3,83.7 C157.4,83.7 157.5,83.8 157.6,83.8 Z M135.1,40.5 C135.2,40.4 135.5,40.6 135.6,40.7 C135.7,40.8 135.1,40.5 135.1,40.5 Z M12.6,67.6 C12.8,67.6 14.6,67.9 14.6,68 C13.9,67.9 13.3,67.8 12.6,67.6 Z M15.5,62 C15.2,62.2 15.1,62.1 15.2,61.8 C15.4,61.6 15.5,61.7 15.5,62 Z M16,61.6 C15.9,61.6 14.4,61.2 15.8,60.9 C16,61.1 16.1,61.4 16,61.6 Z M36.8,301.9 C36.6,301.8 36.6,301.6 36.8,301.5 C37,301.7 37,301.8 36.8,301.9 Z M37.2,302.2 C37.2,302.1 36.8,301.4 37.2,301.5 C37.7,301.6 37.6,302.2 37.2,302.2 Z M53.4,300.3 L53.6,300.2 C53.5,300.2 53.4,300.3 53.4,300.3 Z M288.9,261.4 C288.6,261.5 288.5,261 289.1,261 C289.3,261.2 289.2,261.3 288.9,261.4 Z M291,213.4 C291.2,213.1 291.3,213.1 291.4,213.4 C291.2,213.8 291.1,213.8 291,213.4 Z M292.3,228.9 C292.1,228.7 292,228.5 292,228.2 C292.1,227.4 293,228.8 292.3,228.9 Z M291.6,212.8 C291.4,212.9 291.3,212.9 291.1,213 C290,211.7 292.3,212.5 291.6,212.8 Z M284.9,166.7 C286.7,168.1 287.7,169.8 288.7,172 C289,172.7 291.3,177.9 290.6,177.9 C291.8,177.6 291.3,183.4 291.3,184.8 C291.3,188.2 291.6,191.7 291.2,194.9 C290.6,200 290.7,205.2 290.4,210.3 C290.3,211.6 288.9,219.2 290.9,220.1 L290.1,220.1 C290.8,223.1 290.1,226.7 289.7,229.7 C289.4,231.6 287.8,236.2 289.6,237.8 C289.4,237.7 289.2,242.4 289.1,242.9 C288.8,246.3 288.6,249.6 288.3,253 C288.2,253.6 288.4,255.9 287.7,256.3 C287,256.7 285,254.9 284.4,254.6 C283,253.9 281.6,253.6 280.2,253 L279.1,253 L278.1,252 C278,252.4 277.8,252.7 277.6,253 C277.5,252.2 276.9,251.4 276,251 C274.2,250.1 272.7,249.8 271.1,249.2 C268.7,248.2 266.3,247.4 263.9,246.4 C262.5,245.8 256.1,242.5 254.5,243.8 C254.8,243.5 249.6,241.7 249,241.5 C247.9,241.1 246.5,240.2 245.4,240.1 C245.3,240.1 243.1,239.8 243.4,240.8 C243.2,240.5 243,240.2 243.1,240.1 C242.8,240.2 242.3,240.7 242.1,240.6 C241.6,240.3 241.4,239.8 240.9,239.6 C240.6,239.5 238.7,238.5 238.6,238.6 C238.4,238.9 238.1,239.1 237.8,239.3 C238,239 237.9,238.8 237.6,238.6 C238.1,239.5 234.3,237.5 234.1,237.3 C232.1,236.5 229.9,236.4 227.8,235.8 C226.7,235.5 219.1,233 219.5,235.6 C218.7,235.6 219.3,235.1 219.2,234.8 C219.3,235.3 217.5,234.2 217.4,234.2 C215.8,233.9 215.7,235 215.2,235 C214.5,234.8 213.9,233.5 213.4,234.3 C214,233.4 208.5,232.7 207.9,232.7 C206.4,232.6 205,232.9 203.6,232.8 C202.9,232.7 200.8,232.5 201.1,232.2 C200.7,232.6 200.7,228.8 199.4,229.4 C199.6,229.2 199.7,228.9 199.8,228.7 L198.6,228.7 C200,228 197.9,226.7 197.9,226.5 C198.1,226.4 198.1,226.3 198,226.3 C202.2,225.6 206.4,225.8 210.6,225.2 C211.3,225.1 216,223.6 216.2,223.9 C216.6,225.4 222.7,223.8 224.2,223.6 C226.5,223.3 233.1,224.3 233.5,221.6 C233.5,221.6 232.4,221.6 232.5,221.5 C233.3,220.6 233.6,221.8 234.4,221.9 C235.2,222 236.7,221.8 237.7,221.9 C237.9,221.9 241.9,221.9 242.9,221.3 C244.5,221.8 248.4,221.1 250.4,221.1 C254.2,220.9 258.1,220.6 259.9,216.8 C260.4,215.8 263.2,203.6 261.2,204.4 C261.2,203.1 261.5,204.1 262.1,203.9 C263.2,203.5 263,198.1 263.1,197.2 C263.5,195.1 265,193.9 265.7,191.8 C266.7,188.9 267.3,185.9 268,182.9 C268.2,181.9 270.8,176.9 269.2,176.6 C270.1,176.9 274.3,168.7 275.4,167.8 C278,165.6 282.4,164.7 284.9,166.7 L284.9,166.7 Z M274.2,252.5 C274.2,252.7 274.1,253.5 273.8,252.9 C273.7,252.9 274.1,252.5 274.2,252.5 Z M243.9,241.2 C244.1,241.2 244.2,241.2 244.4,241.4 C244.7,242 244.3,241.7 243.9,241.2 Z M220.8,236.2 C220.6,236.2 220.5,236 220.7,235.8 C220.7,235.5 220.8,236.1 220.8,236.2 Z M204.9,233.1 C205,232.9 205,232.8 205.3,232.7 C206,232.6 204.4,233.6 204.9,233.1 Z M208.3,215.1 C208.1,215.1 207.8,215 208.1,214.9 C208.5,214.9 209,215.1 208.3,215.1 Z M209.3,218 C209.5,217.9 209.8,217.8 210,217.7 C210.1,217.6 209.9,217.5 209.7,217.4 C210.7,217.1 209.9,214.4 211.2,214.4 C209.8,213.3 213.2,212 213.4,212 C213.9,211.9 215.1,212.7 215.6,212.2 C215.9,211.9 215.2,209.8 215.3,209.8 C215.2,210 215.1,210.3 214.9,210.5 C214.9,209.6 212.9,210.1 212.5,210.1 C212.5,210.3 212.5,210.4 212.3,210.6 C212.8,210.2 212.6,205.2 213.3,204.9 C213.8,204.7 214,204.6 213.4,204.1 C214.1,204.6 215.3,200.5 215.5,199.9 C216,197.4 215.2,198.9 214.2,197.9 C214.1,197.8 215.9,197.6 215.8,197.8 C216,197.2 215.1,197.3 216,196.6 C216.5,196.2 218.6,196 218.8,195.2 C218.7,196.2 225.2,196 225.3,195.1 C225.3,195.4 237,194.8 237.1,194.7 C237.1,194.5 237.1,194.3 237.2,194.1 C237.5,194.7 241.5,194.8 241.3,193.3 C241.4,193.8 241.6,194.6 241.9,194.5 C242.4,193.5 243.8,195 243.7,194 C243.9,194 245.2,193.3 245.4,193.2 C244.7,193.8 247.1,194.4 246.3,193.7 C246.3,193.7 248.5,193.7 248.5,193.3 C248.6,193.5 248.6,193.7 248.7,193.9 L248.7,193.5 C249.1,194.2 252.5,193.4 252.4,193.2 C252.4,193.4 252.4,193.6 252.5,193.8 C252.8,192.8 256.5,194.3 257.6,193.6 C257.9,193.4 258.1,193.1 258.2,192.8 C258.3,193.2 258.4,193.6 258.8,193.7 C259.4,193.9 261,193.1 260.8,192.4 C261.1,193.2 261.9,193.1 262.4,192.7 C261,195.1 260.7,198.6 260.2,201.3 C260.1,202.1 259.3,207.8 258.5,206.6 C258.9,207.2 256.4,206.4 256.4,206.9 C256.4,206.2 255.1,206.8 255.2,206.6 C254.9,206.7 254.8,207 254.7,207.3 C254.4,205.8 251.6,207.6 251.2,206.5 C250.8,207.8 242.4,206.2 242,207.8 C242,207.6 242,207.5 241.9,207.3 C240.7,207.6 239.4,207.7 238.2,207.9 C238.2,207.9 235.6,207.2 236.1,208.3 C236,208.4 236,208.6 235.9,208.7 C235.2,208.3 234,208.1 233.8,207.9 C233.8,208.2 233.7,208.5 233.6,208.8 C233.7,208.6 233.6,208.4 233.4,208.2 L233.4,208.8 C232.5,208.1 223.8,207 224.6,209.7 C224.4,209.8 224.2,208.9 224.2,208.9 C223.7,209.9 222.4,207.4 222.5,210 C222.2,209.9 221.7,209.4 221.6,209.2 C221.6,209.3 221.6,209.4 221.5,209.6 C221.8,207.8 218.7,208.9 217.4,209.5 L217.4,209.7 C217.3,210.2 217.4,209.7 217.4,209.5 C217.1,209.7 216.9,209.8 216.9,209.9 C216.3,208.3 216.3,210.5 215.4,209.5 C215.5,210.5 215.6,211.4 215.7,212.4 C216.1,211.2 219.6,212.9 219.8,211.4 C219.8,212.2 226.8,210.9 227.6,210.9 C228,210.9 232,211 232,211 C232,210.8 232,210.6 232.1,210.4 C232.5,211.1 236.6,211.1 236.4,209.5 C236.5,210 236.7,210.8 237,210.7 C237.5,209.8 239,211.2 238.9,210.2 C239.1,210.2 240.5,209.6 240.7,209.5 C240.4,209.7 241.5,210.5 241.7,210.5 L241.7,210 C241.7,210 244,210 244,209.6 C244.1,209.8 244.1,210 244.2,210.2 C244.3,210.1 244.3,209.9 244.2,209.8 C244.6,210.5 248.2,209.7 248.1,209.5 C248.1,209.7 248.1,209.9 248.2,210.1 C248.4,209.5 257.5,211 256.9,208.7 C257.1,209.4 258.8,209.3 258.7,209 C259.3,210.3 258,213.9 257.4,215.1 C256.1,217.8 253.4,217.4 250.6,217.8 C245.4,218.6 239.8,218.3 234.5,219.4 C234.5,219.5 234.7,220.8 234.5,220.7 C231.8,218.5 228.6,220.1 225.5,220.3 C224.6,220.4 223.4,220.1 222.5,220.4 C221.9,220.6 221.1,221.4 220.6,221.4 C219.9,221.5 217.7,221.1 217.4,221.1 C216.2,221.2 215.1,221.2 213.9,221.3 C212.9,221.4 212,221.6 211,221.7 C210.6,221.7 209.7,221.4 209.4,221.5 C209.2,221.7 209.2,221.9 209.4,222.1 C208.7,223.3 209.1,220.1 209.1,220.6 C209.3,220.4 210.4,218 209.3,218 L209.3,218 Z M219.8,184.8 C219.8,184.5 220.7,184.7 220.7,184.8 C220.2,183.8 221.9,184.1 221.5,183.6 C221.2,183.3 221.5,182.9 220.7,182.5 C220.8,182.4 221.8,181.9 221.8,182 C221.7,181.9 221.6,181.9 221.5,181.8 C221.8,182 224,180.9 224.7,180.8 C226.6,180.5 228.5,180.5 230.4,180.3 C234.9,179.6 239.3,179.3 243.9,179.1 C248.1,178.9 251.8,178.4 256,177.8 C257.8,177.5 259.5,178.1 261.3,178 C262.2,178 266.2,177.8 267,177.4 C267,177.5 266.4,178.4 266.6,178.5 C267.3,178.8 262.4,187.3 263.8,188.7 C263.3,188.2 263.2,191.8 262.3,190.3 C262.7,191 260.3,190 260.3,190.6 C260.3,189.9 258.7,190.3 258.7,191 L258.1,190.4 L258.1,190.8 C258,190.6 257.8,190.4 257.5,190.2 C256.6,189.8 255.6,191.1 255.3,190.1 C255,191.3 246.8,189.9 246.5,191.5 C246.5,191.3 246.5,191.2 246.4,191 C245.2,191.3 243.3,191.1 242.4,191.4 C242.1,191.1 241.8,191 241.5,191.2 C241.1,191.3 241,191.6 241.2,192 C241,192.1 241.6,193 241.5,193.2 C241.5,193.3 240.9,192.2 240.8,191.8 C240.7,192 240.7,192.2 240.5,192.4 C239.8,191.9 238.7,191.8 238.5,191.6 C238.5,191.9 238.4,192.2 238.3,192.5 C238.4,192.3 238.3,192.1 238.1,191.9 L238.1,192.5 C237.2,191.8 228.9,190.8 229.6,193.4 C229.3,193.2 229.2,192.9 229.3,192.6 C228.5,193.9 228.7,191.8 228.2,192.2 C227.9,192.5 227.8,192.6 228.1,192.4 C227.9,192.8 227.6,192.8 227.6,193.6 C227.4,193.4 227.3,193.2 227.2,193 C227.1,193.5 226.9,193.4 226.7,192.9 L226.7,193.3 C226.9,191.6 224.1,192.5 222.9,193.1 L222.9,193.2 C222.9,193.3 222.7,193.8 222.7,193.4 L222.7,193.2 C222.4,193.4 222.3,193.5 222.3,193.6 C221.9,193 220.5,192.9 220.4,194.1 C220.4,192.6 217.4,194.4 217.2,194 C216.9,192.7 223.1,185.3 219.8,184.8 L219.8,184.8 Z M219.2,185.4 C219.3,185.2 219.6,185.4 219.8,185.5 C219.5,185.6 219.3,185.5 219.2,185.4 Z M241.2,193.2 C241.2,193.1 241.2,193.1 241.1,193 C241.2,193 241.2,193.1 241.2,193.2 Z M261.1,206.1 C260.9,206.3 260.7,206.3 260.5,206.2 C260.6,205.9 260.9,205.8 261.1,206.1 Z M252.7,209.5 C252.6,209.8 252.4,209 252.6,208.9 C252.6,209.1 252.7,209.4 252.7,209.5 Z M237.1,209.7 C237.1,209.7 236.8,209.4 236.7,209 C236.8,209.1 236.8,209.2 236.9,209.2 C237,209.3 237.5,208.6 237.1,209.7 L237.1,209.7 Z M236.5,209.7 C236.5,209.6 236.5,209.5 236.4,209.4 C236.4,209.5 236.5,209.6 236.5,209.7 Z M225.3,210.2 C225.1,210.2 225.2,209.8 225.2,209.6 C225.3,209.9 225.3,210.1 225.3,210.2 Z M231.9,221.2 C231.9,221.5 231.3,221 231.3,221.1 C231.2,220.8 232,220.9 231.9,221.2 Z M267.7,182.2 C268,182 268.1,182.6 268.1,182.8 C268,183.3 267.2,182.4 267.7,182.2 Z M269.8,164.2 C270,164.2 270.2,164.2 270.4,164.4 C270.7,164.8 269.3,164.4 269.8,164.2 Z M273.2,125.9 C273.2,125.9 272.6,126.2 272.6,126 C272.6,125.7 273.5,125.7 273.2,125.9 Z M240.9,112.4 C240.8,112.2 240.7,112.1 240.7,111.9 C240.7,111.9 241,112.5 240.9,112.4 Z M241.5,162.9 L241,162.4 C242,162.6 241.9,161.6 242.1,161.1 C241.9,161.1 241.8,160.9 241.7,160.7 C241.8,160.6 242.3,160.3 242.4,160.1 C244.3,161 251,157.9 250.4,157.2 C251.7,158.5 253.9,155.9 254.3,154.8 C252.6,153.9 251.6,154.4 250,154.9 C249.5,155.1 246.5,155.7 247,156.5 C246.2,154.9 242.9,158 242.3,156.2 C241.4,158.2 233.5,153.6 233.5,151.8 C233.5,151.2 234.1,151.1 233.1,151 C233.5,151 232.8,146.6 232.8,145.8 C232.8,145.4 233.1,144 232.8,143.7 C232.2,142.8 231.3,144.1 230.9,143.8 C230.6,143.6 232.4,142.9 232.4,143.1 C232.4,142.9 231.8,142.5 231.7,142.1 C231.6,141.7 232.4,141.4 232.4,140.9 C232.2,139.3 231.2,138.4 230,139.8 C230.4,139.4 230.1,139.5 229.8,139.2 C229.8,139.4 229.7,139.6 229.6,139.7 C228.4,139.2 226.6,136.5 224.7,136.2 C225.8,136.3 227.8,134.2 226.5,133.1 C226.8,132.7 227,133.2 227.1,133.4 C227,133.1 228.6,132.6 228.2,132.9 C228.8,132.5 229.7,132.4 228.8,131.1 C229.1,130.9 230.5,131.6 230.1,130.6 C230.7,132.3 233.7,128.7 234.9,127.3 C234.8,127.1 234.7,126.8 234.8,126.8 C234.9,126.8 235,126.9 235.1,127 C235.2,126.8 235.3,126.7 235.4,126.7 C235.7,126.4 236.4,126.6 236.9,126.2 C237.5,125.8 237.7,125.2 237.7,124.4 C238.1,124.3 238.5,124.3 238.8,124.2 C240.1,123.3 242.9,122.6 243.5,121 C243.5,122.8 245.2,124.4 246.1,125.8 C247.2,127.6 247.9,129.7 249,131.6 C250.5,134.1 252,134.2 254,135.6 C256.1,137.1 257.6,138.8 260.8,137.7 C257.8,134.7 253.3,132.7 250.5,129.4 C248,126.5 247.2,121.1 243.4,118.8 C243.4,120.1 242.3,119.3 241.4,119.9 C240.8,120.3 240,121.5 239.5,121.8 C238.6,122.3 236.9,122.5 235.9,123.2 C235,123.8 233.2,125 232.4,125.8 C231.9,126.3 231.4,127.2 231,127.6 C230.4,128.1 229.5,128.2 229,128.8 C230.1,127.3 229.1,125.7 229.4,124.5 C229.6,123.9 230.9,122.6 231.2,122.1 C232.3,120.3 233.7,117.9 235,116.7 C237.4,114.5 241.8,112.5 245,112 C245.5,111.9 250.3,112.1 250.4,111.8 C250.4,111.6 250.5,111.4 250.5,111.2 C250.9,111.9 257.2,112.6 256.7,110.8 C257.3,113.3 260.2,113.4 262.3,113.4 C261.8,113.4 262.9,114.5 263.1,114.7 C263.2,114.7 263.6,114.8 263.6,114.8 C263.9,115 266.1,116.4 266,116 C265.9,116.3 265.9,116.5 265.8,116.8 L266.1,116.5 C266.1,117.3 270,120.1 269.9,120.2 C269.6,120.9 270.8,122.5 271.1,123.7 C271.6,125.2 271.6,127.7 273.1,127.8 C270.6,128.5 273.4,131.6 273.4,131.6 C272.5,131.9 272.9,134 272.8,134 C271.6,134.4 266.2,133.2 265.8,134.9 C266,133.9 264,135 263.9,135.5 C263.5,135.5 264,134.6 264,134.6 C262.9,134.9 263.3,132.2 261.6,134.1 C261.4,133.8 261.6,132.7 261,133 C262.5,132.1 259.3,129.8 258.1,128.8 C257.8,129 257.5,128.6 257.8,128.6 L257.9,128.6 L257.6,128.3 C258,127.7 257.3,125.8 256.1,126 C257,126 255.7,123 255.6,122.8 C255.1,121.3 255,120.4 253.3,119.5 C252.7,120.5 252.7,123.6 254.2,123.7 C253.1,123.6 255.3,128.8 255.6,129.2 C256.7,131.2 257.5,132.2 259.1,133.6 C261.8,136 263.5,137.2 267.3,136.9 C267.8,136.9 272.8,136.8 272.4,137.1 C272.5,137 272.6,136.8 272.7,136.7 C272.7,137.5 273.2,137.6 273.3,138.2 C273.4,138.9 272,140.6 273.7,140.8 C273.4,140.8 270.5,140.3 270.6,141.4 C270.3,141.1 269.2,142.4 268.9,142.8 C269.1,142.4 266.6,142.3 266.6,142.4 C265.9,142.7 265.4,143.3 264.8,143.6 C264.6,143.7 264,143.7 263.8,143.6 C263.8,143.7 263.9,143.8 263.9,143.8 C263.2,143.5 259.1,147.1 259.7,147.4 C258.6,147 256.3,151.5 255.9,152.8 C255.6,153.7 255.4,159.8 256.6,159.1 C255.3,159.8 256.6,161.9 257.1,162.7 C257.1,162.7 254.7,163.4 254.3,163.7 C254.4,163.6 254.4,163.5 254.6,163.4 C252.9,162.9 249.7,163.8 247.9,163.7 C245.8,163.6 243.1,162.9 241.1,164.1 C241.2,164 242,162.7 241,162.7 C241.2,162.6 241.4,162.6 241.7,162.5 C241.4,162.4 240.8,162.2 240.1,161.9 C240.7,162.7 241.1,162.8 241.5,162.9 L241.5,162.9 Z M244,158.5 C244,158.5 244.2,159.3 244.1,159.2 C243.8,159.2 243.8,158.6 244,158.5 Z M257.1,153.5 C257.4,153.5 257.9,153.8 257.2,153.8 C257,153.8 256.8,153.6 257.1,153.5 Z M227.1,170.1 C229.2,168.2 235.3,168.5 238,168.2 C247.3,167.1 256.7,166.9 266,165.6 C266,165.5 265.6,164.1 266.1,164.3 C267.9,165.1 267.7,165.6 270,165.5 C271.8,165.4 273.6,165.3 275.4,165.3 C274.2,167 272.3,168.4 271.1,170.1 C269.7,172 268.8,173.9 267.8,176 C264.5,173.9 258.7,175.2 255,175.1 C251.9,175.1 248.1,175.5 245.5,176.2 C242.4,177.1 239.1,176.4 235.8,177.1 C231.7,177.9 226.8,177.7 223.2,180.2 C223,179.8 225.4,176.7 223.9,176.8 C224.5,176.7 225.6,175.2 224.6,174.5 C224.9,174.5 225.1,174.5 225.3,174.4 C225.4,174.6 226.7,170.4 227.1,170.1 L227.1,170.1 Z M223.4,177.4 C223.6,177.4 223.8,177.6 223.8,177.8 C223.9,178 223.1,177.4 223.4,177.4 Z M218.5,170 C218.8,170.1 218.9,170.2 218.9,170.5 C218.6,170.6 218.3,170.4 218.5,170 Z M196.8,193.4 C197.3,193.5 196.5,194.3 196.5,194.4 C196.5,194.2 196.5,194 196.4,193.9 C196.5,193.7 196.7,193.5 196.8,193.4 Z M188.6,216.7 C189.9,213.7 191,210.8 192.4,207.9 C194.2,204 196.3,200.3 198.2,196.4 C199.5,193.8 201.6,191.2 202.6,188.6 C204.2,184.4 207.1,180.4 210.3,176.9 C212.6,174.4 215.4,172.9 218.5,171.7 C219.4,171.4 223.9,169.2 224.6,170.1 C225.2,171 222.3,174.4 221.8,175.4 C220.8,177.3 220.6,178.8 219.9,180.7 C219.6,181.6 214.6,191.7 215,192 C215.2,192.1 215.3,192.2 215.5,192.3 C214.8,192.4 212.4,197.7 214.7,197.3 C212,197.3 212.2,200.2 212.5,201.9 C212.3,200.8 210.9,203.5 211.6,202.8 C211.3,203 210.6,205.6 211.1,205.5 L210.3,205.5 C210.4,205.6 210.5,205.6 210.6,205.7 C209.8,205.9 209.1,210.1 209.3,210.1 C209.1,210 208.9,210 208.7,210 C208.8,210 205.4,220.3 207.1,220.1 C206.1,220.2 205.8,221.7 206.4,222.3 C202.4,222.6 198.6,223.3 194.8,223.3 C193.5,223.3 192.1,223.6 190.8,223.7 C190,223.8 185.9,223.5 185.8,223.6 C185.2,221.8 187.9,218.3 188.6,216.7 L188.6,216.7 Z M183.1,225.5 C183.1,225.5 182.9,225 182.9,224.9 C183.2,224.4 183.7,225.4 183.1,225.5 Z M182.5,224.8 C182.7,224.9 182.8,225.1 182.5,225.2 C182.3,225.1 182.3,225 182.5,224.8 Z M159.2,228 C159.4,227.9 159.5,227.8 159.8,227.9 C159.7,227.9 158.9,228.6 159.2,228 Z M149,181.2 C149,181.2 148.3,181.4 148.4,181.1 C148.7,180.4 149.2,181.1 149,181.2 Z M169.9,174.8 C169.9,174.8 169.3,174.2 169.6,174.2 C169.8,174 170.3,174.4 169.9,174.8 Z M172.9,134.6 C172.8,134.5 172.8,134.4 172.9,134.3 C173.1,134.3 173.1,134.4 172.9,134.6 Z M177.1,114.1 C177.2,113.8 177.3,113.7 177.5,113.8 C177.7,114.2 176.9,114.8 177.1,114.1 Z M141.8,64.7 L141.8,65.1 C142,64.8 142.1,64.9 142.1,65.2 C141.5,65.4 141.6,65.1 141.8,64.7 Z M134.6,75.6 C145,81 151.2,91 157.5,100.4 C159.7,103.7 170,123.6 176.2,118.3 C174.5,117.8 176.5,117.4 176.9,116.9 C178.1,115.4 178.4,114.8 178.7,112.5 C179.2,108.7 178.6,104.9 178.3,101.3 C178.1,99.5 178.3,97.6 178.1,96 C178,94.9 177.2,88.6 177.7,87.9 C178.4,89.3 180.9,89.8 182.3,90.6 C183.7,91.5 184.6,92.5 185.3,92.3 C185.5,92.7 185.8,93.1 186.2,93.1 C186.5,93.4 187.1,93.6 188.3,93.7 C189,93.7 189.9,93.3 190.5,93.3 C191.5,93.4 191.4,93.7 192.3,93.9 C194.1,94.2 195.6,93.3 196.4,95.3 C197,96.8 196.3,99.8 196.4,101.5 C196.5,102.8 197,104.6 197.1,105.5 C197.2,107 196.9,108.9 196.9,110.5 C196.9,112 196.9,113.5 196.8,115 C196.8,115 197.1,118.4 197.8,118.1 C197.6,118.3 197.5,118.4 197.5,118.3 C197.4,118.8 197.6,119.6 197.6,120.3 C197.5,122.5 197,122.5 197.8,124.4 C197.4,124 197.3,124.6 197.2,124.7 C197.7,124.1 196.9,128.3 196.8,128.8 C196.3,131.1 196.5,133.6 196.3,135.9 C196.2,136.7 194.6,145.3 196.7,144.8 C196.7,145.7 196.3,145 195.8,145.1 C195.7,145.1 195.2,147.7 195.1,148.1 C195,148.7 195.7,149 195.4,149.7 C195.3,150 194.5,151.1 194.6,151 C193.5,152.2 190.9,155.2 188.5,156.9 C188.9,157 188.3,157.3 188.4,157.4 C188.4,157.4 188.3,157.2 188.3,157.1 C187.3,157.7 186.3,158.1 185.6,158 C186.1,156.3 186.3,156 185.8,154.4 C185.6,153.9 185,151.6 184,152 C184.7,151.4 184.3,151.3 183.7,151.4 C183.8,150.4 183,147.6 182.7,148.2 C183.2,147.9 178,138.8 177,139 C178.3,138.7 174.1,133.4 174.2,133.4 C173.7,133.5 173.3,133.7 172.9,134.1 C173,133.7 173.6,133.3 173.5,133.2 C173.2,132.7 173,133.1 172.6,132.2 C172.3,131.5 172.2,130.9 172.2,130.7 C171.9,130.8 171.6,130.9 171.3,130.9 C171.5,130.8 171.7,130.7 171.7,130.4 C171.5,130.5 171.4,130.6 171.2,130.6 C171.1,130.2 171.4,129.5 171.2,128.8 C170.7,127.4 169.3,126.2 168.5,125 C167.9,124 166.8,120.3 165.1,122.3 C164.8,122.2 165.6,121.5 165.6,121.5 C164.1,121.3 166.1,119.6 163.7,120.4 C163.6,120.2 163.7,119.3 163.7,119.2 C163.6,119.2 163.5,119.3 163.3,119.3 C165,118.7 162.3,116.2 160.9,115.3 C160.8,115.4 160.2,115.6 160.3,115.4 C160.4,115.3 160.5,115.2 160.7,115.2 C160.4,115 160.2,114.9 160.2,115 C160.5,114.3 159.5,112.8 158.4,113.3 C158.5,113.3 153.8,104.2 152.4,105.9 C151.8,105 152.5,105.5 152.9,105.1 C153.4,104.5 150.9,101.4 150.6,101 C149.9,100.1 150.8,102 149.6,99.9 C149.6,99.9 149.2,98.6 149.2,98.7 C149,97.9 149,96.9 148.6,95.9 C147.6,93.3 145.7,90.7 144.1,88.5 C143.9,88.2 143.3,88.4 143.1,88.1 C143,87.9 142.9,87 142.8,86.7 C142.2,85.7 141.6,84.9 140.8,85 C141,84.7 140.2,84.4 140,83.8 C139.7,82.8 139.2,81.3 138.6,80.4 C137.8,79.7 133.8,77.1 134.6,75.6 L134.6,75.6 Z M164.9,135.8 C165,135.8 165,135.6 165,135.4 C165.1,135.6 165.2,135.9 165.3,136.3 C164.4,136.5 165.4,136 164.9,135.8 Z M165.1,137.1 C165.3,136.8 165.5,137.3 165.3,137.5 C165.1,137.6 165,137.5 165.1,137.1 Z M165.1,123.4 C165.2,123.2 165.4,123.1 165.6,123.1 C165.4,123.3 165,123.5 165.1,123.4 Z M152.9,107.9 C152.7,107.7 152.8,107.5 153.1,107.5 C153.6,107.3 152.9,107.9 152.9,107.9 Z M143.5,89.2 C143.7,89.2 143.9,89.2 144.1,89.4 C144.6,89.9 142.8,89.2 143.5,89.2 Z M117.9,68.3 C121.4,69.6 123.9,73.4 126.1,76.3 C127,77.5 127.5,78.8 128.2,80.2 C129.5,82.6 129.5,83 132,81.5 C130.3,78.1 126.8,75.1 125.3,71.6 C126.7,71.8 127.7,73.1 128.9,73.6 C130.9,74.4 130.6,73.9 131.7,75.9 C133.7,79.4 136.7,82.4 138.7,86 C141.3,90.6 144.4,94.5 146.8,98.9 C150.5,105.9 154,112.9 157.2,120 C157.8,121.3 158.7,122.7 159.2,124 C159.6,125.2 159.9,126.4 160.4,127.7 C161.1,129.3 161.7,130.7 162.3,132.3 C162.3,132.4 163.8,136.9 164.6,134.9 C163.2,137.6 164.9,139 165.7,141.6 C165.9,142.3 165.9,143.1 166.2,143.8 C166.6,144.8 167.2,145.1 167.7,145.9 C167.9,146.3 167.8,149 167.9,149.4 C168.1,150.5 168.5,151.4 168.9,152.5 C169.1,153 169.5,153.5 169.7,154.1 C169.8,154.4 169.1,154.8 169.2,155 C169.4,155.1 169.6,155.1 169.8,154.9 C170.3,155 171.7,164.2 171.7,165.1 C171.7,165.8 172.3,168.3 172.2,169.2 C171.7,172.8 168.2,174.2 165.1,174.5 C161.7,174.7 159.5,174.9 156.4,173.9 C152.4,172.5 152.4,171.6 152.9,167.6 C153.3,164.5 153.6,161.3 153.5,158.2 C153.5,157.5 152.4,152.5 152.5,152.4 C154.1,151.3 152.8,145.7 152.6,144.1 C152.4,142 153.4,137.5 150.7,137.2 C150.5,137.4 150.9,138 150.6,138.2 C149.4,138.8 151.2,136.1 151.2,136.7 C151.2,135.7 150.7,134.7 150.7,133.6 C150.7,133.2 151.1,128.3 149.7,128.9 C150.2,128.6 149.9,127.2 149.7,125.7 C149.4,122.4 148.6,119.3 147.7,116.1 C147.5,115.4 144.4,102.7 142.5,104.6 C141.9,103.7 142.7,104.2 143,103.8 C143.7,103 140.6,99.1 140.3,98.4 C139.4,96.6 139.8,94.9 139,93 C137.9,90.3 136.2,88 134.6,85.6 C133.1,83.2 132.9,80.9 129.6,82.9 C131.8,84.2 133.2,92.6 135.7,92.6 C135.9,92.6 138.5,99.2 138.7,99.6 C140.3,103.5 142,107.4 143.3,111.4 C144.4,115 145.1,118.6 146.2,122.2 C146.4,122.9 148.1,127.9 146.7,127.3 C147.5,127.7 145.3,128.1 145.5,128 C145.1,128.3 143.2,128.9 143.6,129.7 C143.3,129.6 143.1,129.5 142.8,129.4 C143,129.9 143.2,130.4 143.5,130.9 C143.2,130.4 142.9,130 142.2,129.9 C141.9,129.8 140,130.5 140.2,130.7 C140.1,130.4 131.2,132.9 131.1,133.6 C131.1,133.4 131,133.3 131,133.1 C129.7,133.7 128.1,133.6 126.9,133.8 C126.6,133.6 126.2,133.5 125.9,133.4 C125.5,133.6 125.4,133.9 125.5,134.3 C125.3,134.5 126,135.2 125.9,135.5 C125.9,135.6 125,134.1 125.3,134 C124.6,134 125.3,134.5 124.4,134.2 C123.7,133.9 123,134 122.7,133.8 C122.7,134.1 122.6,134.4 122.4,134.7 C122.4,134.5 122.4,134.3 122.2,134.1 C122.2,134.3 122.2,134.5 122.1,134.7 C121,133.9 112.8,131.7 112.8,134.3 C112.6,134 112.5,133.7 112.6,133.4 C112.4,133.6 111.3,133.1 111.2,133 C111,132.8 110.7,133.3 110.5,134 C110.3,133.9 109.8,133.2 109.8,133 C109.7,133.1 109.7,133.2 109.6,133.3 C110.3,131.7 107.1,131.7 105.6,131.9 C105.6,131.8 105.6,131.8 105.6,131.9 C105.2,132 104.9,132 104.9,132.1 C104.8,131.4 103.2,130.8 102.7,131.9 C103.1,131.1 100.9,130.7 100.5,130.5 C98.9,130 98.9,130.5 98.6,128.3 C98.1,125 99.1,121 99.1,117.6 C99,117.6 97.6,117.8 97.8,117.5 C100.4,114.4 98.9,110.4 98.6,106.7 C98.5,105.1 98.9,103.6 98.4,102.1 C98.5,102.4 97.7,100.5 97.6,100.7 C97.6,100.1 98.2,100 98.2,99.4 C98.2,98.2 96.6,87 96.7,87 C95.8,87.2 95.6,81.1 95.4,79.7 C95,77.6 94.3,75.8 93.8,73.7 C93.3,71.8 93.3,69.9 92.7,67.8 C92.9,68.3 93.2,68.4 93.7,68.2 C92.9,68.6 98.1,73.9 98.5,74.6 C98.8,75 101.4,79.1 101.9,78.9 C102.1,78.8 102.2,78.7 102.4,78.6 C102.2,79.3 106.3,83.3 106.6,80.9 C106.3,82.1 106.4,82 106.9,82.8 C107,83 108.8,83.9 108.4,83.4 C109,84.2 108.7,85 108.4,86 C107.8,88.8 106.9,89.3 109.7,89.3 C109.6,89.3 108.2,90.1 108.2,89.9 C108.2,90.3 108.6,90.1 108.5,90.8 C108.4,91.6 108.5,92.4 108.5,92.7 L109.5,92.7 C109.2,92.7 109.1,92.8 109,93.1 C109.2,93.1 109.4,93 109.5,93 C108.6,95.4 110.9,97.7 113.3,98.7 C114.3,99.1 118.7,100.2 117.1,97.8 C117.4,97.5 117.7,98.5 117.8,98.5 C118,97.9 120.9,98.1 118.9,96.5 C119.2,96.4 119.4,96.5 119.6,96.6 C119.5,96.6 120.2,96.3 119.8,95.9 C121.4,97.4 121.7,93.1 121.4,91.5 C121.3,91.6 120.6,91.3 120.8,91.3 C120.9,91.2 121.2,91.3 121.3,91.4 C121.2,91 121.1,90.8 120.9,90.9 C122.1,90.2 120.7,90.4 121.1,89.1 C120.8,89.2 120.6,89.2 120.3,89.3 C120.8,89.1 121.2,88.7 121.3,88.3 C121.6,87.2 119.8,86.5 120.5,85.7 C118.8,85.9 116.9,79.6 117.7,79.6 C117.9,79.7 118.1,79.7 118.3,79.7 C118.3,78.2 119.7,74.4 118.7,73.2 C118.5,73 118.2,72.8 117.9,72.7 C118.1,72.7 118.4,72.7 118.6,72.6 C119.1,72.1 117.9,69.3 117,69.8 C118,69.4 117.6,68.5 117.9,68.3 L117.9,68.3 Z M150.3,139.2 C150,139.3 150,139.1 150.2,138.8 C150.5,138.6 150.6,139.1 150.3,139.2 Z M143.3,106 C143.1,106.2 142.6,106.3 142.8,106.2 C142.9,105.9 143.1,105.9 143.3,106 Z M135,86.5 C134.9,86.6 134.4,86.3 134.4,86.1 C134.5,85.7 135.3,86.2 135,86.5 Z M142.4,132.6 C142.2,132.6 142,132.1 142.1,131.9 C142.2,131.9 142.5,132.6 142.4,132.6 Z M98.4,114.2 C98.1,114.4 98.1,113.7 98.3,113.6 C98.7,113.5 98.5,114.2 98.4,114.2 Z M92.5,63.3 C92.9,63.1 92.7,62.2 92.5,62 C96.3,64.5 102.3,66.6 106.9,65.5 C107.9,65.3 109.5,64 110.3,63.9 C110.6,63.9 112.3,65.1 112.7,65.3 C114,65.9 117,66.6 115.1,68.4 C115.7,67.8 115.5,70 115.4,69.8 C115.5,70.2 115.7,72.6 116.4,72.2 C116.2,72.4 116,72.6 115.9,72.8 L116.4,72.8 C116.1,72.9 115.9,73.2 115.7,73.4 C115.2,74.3 116.8,75.5 115.6,75.8 C116.4,76.1 115.5,79.3 115.2,79.8 C114.4,81.1 113.7,81.6 112.1,81.6 C111.4,81.6 110.6,81.3 109.9,81.1 C109.5,81 109.3,80 109.1,80 C107.7,79.9 108.3,81.2 107.7,81.6 C107.7,81.6 107.8,79.8 108.1,80 C107.5,79.5 107.8,80.5 107.3,79.7 C106.9,79 106.4,78.6 106.3,78.3 C106.1,78.5 105.8,78.7 105.5,78.8 C105.7,78.7 105.8,78.5 105.8,78.2 L105.4,78.6 C105.2,77.3 100.3,70 98.7,71.9 C98.4,71.8 99.1,71.1 99.2,71.1 C98.2,71.1 99.1,69.8 98.5,69.9 C98.4,69.4 97.3,70.1 97.2,70.2 C97.1,70 97.3,69.1 97.3,69 C97.2,69.1 97.1,69.1 96.9,69.2 C98.5,68.5 96,66.3 94.8,65.5 C94.7,65.6 94.1,65.7 94.3,65.6 C94.4,65.5 94.5,65.4 94.7,65.4 C94.5,65.2 94.3,65.2 94.3,65.2 C94.9,64.5 93.9,63.5 92.9,64.1 C93.1,64 93.3,63.8 93.5,63.7 C93,63.5 92.8,63.4 92.5,63.3 L92.5,63.3 Z M98.8,72.3 C98.8,72.3 98.3,72.7 98.4,72.6 C98.5,72.4 98.6,72.3 98.8,72.3 Z M116.7,97.6 C116.9,97.6 116.9,98 116.9,98.1 C116.8,98 116.7,97.8 116.7,97.6 Z M118.2,74.4 C118.4,74.4 118.7,74.4 118.4,74.6 C118,74.6 117.6,74.6 118.2,74.4 Z M118.1,74.3 C118.1,74.2 118.2,74.2 118.2,74.1 C118.2,74.2 118.1,74.3 118.1,74.3 Z M118.7,89.3 C118.9,89.4 119.2,89.5 119.5,89.5 C119.3,89.6 119,89.6 118.8,89.7 C120.1,90.1 118.2,93.1 119.4,93.4 C119.3,93.4 117.3,96.8 115.5,96.4 C115,96.3 112.2,93.6 112.7,93.5 C112.5,93.6 112.3,93.6 112.2,93.7 C112.7,93 111.6,89.3 110.2,89.9 C111.4,89.3 111.9,87.7 111.8,87.7 C112.2,87.5 111.5,86.1 111.5,85.8 C111.6,86.5 113.4,85.4 112.4,85.4 C112.9,85.4 112.9,85.1 112.6,85.1 C112.8,85.1 113,85.1 113.2,85.2 C113.1,85.1 113.1,84.8 113.2,84.6 C113.1,84.5 116.5,85 116.5,84.9 C116.4,85.1 116.3,85.2 116.2,85.4 C117.1,84.6 117.9,88.9 118.7,89.3 L118.7,89.3 Z M116.4,19.1 C116.4,19.3 115.4,19.8 115.2,20 L116.4,19.1 Z M90.3,3.9 C90.6,4.1 90.5,4.2 90.2,4.3 C90.1,4.2 90,3.6 90.3,3.9 Z M91.9,32.1 C96.1,33.4 99.5,29.6 102.5,27.3 C104.2,25.9 106,24.7 107.4,23 C108.3,21.9 109,20.7 109.8,19.6 C110.1,19.2 109.2,19.1 109.4,18.9 C110.9,19.9 111.2,16.1 112.7,15.2 C113,14.8 114.6,19.1 114.8,19.6 C115.4,20.7 116.5,22.4 117.5,23.3 C119.7,25.3 123.5,27.9 126.2,29.3 C125.7,29.2 126.8,29.5 125.9,29.5 C126.7,29.6 124,32.2 123.9,31.7 C124,31.9 124,32 124.1,32.2 C122.7,31.1 116.9,34 119.6,34.4 C117,34.4 117.1,37.5 117.1,39.1 C117.1,38.5 114.9,39.7 116,39.7 C115.8,39.8 114.1,42 114.7,42 C114.5,41.9 114.2,41.8 114,41.7 C114.1,41.8 114.1,41.9 114.2,42 C113.4,41.8 111.1,45 110.8,44.9 C110.7,44.7 110.6,44.5 110.4,44.4 C110.7,46 100.6,45.7 100.9,47.2 C100.5,45.9 95.9,45.9 97.8,48.4 C98.2,48.9 99.5,49.4 100.3,49.4 C100.6,49.4 103.9,49.7 103.4,48.9 C103.7,50.1 105.2,48.8 105.8,49.3 C104.8,53.4 107.2,59.7 109.5,63 C105.2,62.3 102.2,63.6 98.1,61.4 C94.4,59.4 92.5,56.8 89.4,54.2 C89.7,55.2 90.1,56.2 90.4,57.3 C89.8,55.5 88.7,54.1 88.2,52.3 C87.6,50 87.9,47.5 87.7,45.1 C87.6,43.1 86.8,41.6 86.2,39.8 C85.4,37.6 85.3,35.3 84.8,33 C87.2,33 89.6,32.7 91.9,32.1 L91.9,32.1 Z M106.2,47.4 C106.2,47.4 106,46.6 106.1,46.7 C106.3,46.8 106.3,47.4 106.2,47.4 Z M89.7,58.6 L89.4,58 C89.3,58.1 90.4,59.6 89.7,58.6 Z M89.9,58.9 C89.6,58.9 89,57.8 88.9,57.6 C89.2,58 89.6,58.5 89.9,58.9 Z M69.8,51.4 C69.5,51.6 71,51 70.6,51.4 C70.4,51.6 69.3,51.7 69.8,51.4 Z M43.6,67.9 C43.9,68 44,68.1 43.9,68.4 C43.6,68.4 43.1,67.8 43.6,67.9 Z M7.3,103.5 C7.7,103.5 7.1,104.1 6.9,104.1 C6.6,104.1 7.2,103.5 7.3,103.5 Z M36.8,151.6 C36.8,151.8 36.7,151.9 36.7,152.1 C35,152.3 36.9,150.9 36.8,151.6 Z M36.9,152.5 C36.8,152.2 36.8,152.1 37.1,152.2 C37.3,152.4 37.2,152.6 36.9,152.5 Z M48.4,168.4 C46.2,165.7 48.1,162.3 47.4,159.3 C50.7,159.9 53.1,157.2 55.5,155.3 C58.4,153.1 61.3,151.3 64.7,150.1 C57.8,147.8 55.8,154.1 50,155.8 C44.2,157.5 39.8,150.7 35.4,148.1 C36.7,147.6 37.1,144.8 37.6,143.7 C38.5,141.5 39.7,138.9 40.6,137 C41.5,135.1 42.6,134 44.1,132.5 C45.4,131.2 47.9,129.7 48.4,127.9 C50.8,128.9 50.4,133 53.7,132.1 C56.3,131.4 60.3,127.9 61.9,125.9 C59,125.5 57.2,127.6 54.9,128.8 C54.4,129.1 53.5,129.7 52.9,129.7 C51.3,129.6 52.8,129.5 52.1,128.7 C50.9,127.4 50.5,125.7 49.9,124.1 C49.2,122.5 48.2,121.7 47.4,120.5 C45.8,118 44.4,112.3 45.3,109.5 C46.2,106.5 49.1,104.7 51.2,102.6 C51.6,102.2 55.1,97.9 55.4,97.9 C57.3,97.9 61.5,92.8 62.8,91.5 C62.6,91.4 62.1,90.5 62,90.5 C64.4,90.9 67.8,86.3 69,87.3 C69.2,87.4 69.2,89.2 69.3,89.6 C69.2,89.3 70.2,90.7 70.5,91.2 C70.9,91.9 71.7,92.5 72.1,93.2 C72.2,93.3 72.4,94.4 72.4,94.6 C72.6,94.6 72.7,94.5 72.8,94.4 C72.5,94.4 76,101 76.2,101.7 C76.5,102.8 76,102.4 76.4,103.6 C76.9,105.3 77.7,105.6 77.4,107.4 C76.9,110.1 72.6,112.7 70.7,114.7 C69.8,115.6 69,116.3 68.3,116.8 C66.4,118.1 64.6,119.1 63.5,121.4 C68.5,121.4 72.2,117.1 76.1,114.3 C83.2,109.2 80.9,103.7 77.5,96.9 C76.2,94.2 74.5,92.1 73,89.6 C72,88.1 71.4,84.9 69.3,84.2 C67.5,83.6 65.5,85.5 64.1,86.5 C64.1,86.5 61.2,89.1 62,89.6 L61.7,89.6 C61,89.9 60.4,90.9 59.6,91.5 C59,92 58.1,92.1 57.5,92.7 C57.1,93.1 57.5,93.4 57.2,94.1 C57.4,93.6 56.4,93.9 56.5,93.9 C57.4,93.8 53.3,96.5 53,96.7 C50.7,98.3 48.8,100.8 46.9,102.8 C46.3,103.4 40.7,110.7 43.5,110 C43.5,111 43.1,110.2 42.7,110.4 C43,110.3 42.5,112.8 42.5,112.9 C42.6,113.5 44.2,115.3 44.2,114.8 C44.6,117.5 44,118.8 45.5,121.8 C45.8,122.3 47.3,124.5 48,125.8 C48.2,125.8 48.3,125.9 48.2,126.1 C48.4,126.4 48.5,126.7 48.5,126.7 C44.9,126.9 40.5,133.3 38.3,135.8 C36.5,137.9 36.7,139.1 35.9,141.4 C35.4,143 32.9,145 34.1,146.8 C28.1,144.5 22.5,138.7 17.7,134.7 C14.8,132.3 12.2,129.7 9.7,126.9 C9.5,126.6 5.2,122.4 5.4,122.1 C6.1,121.6 4.9,119.9 4.6,118.7 C3.8,116 4,113.7 5,111.1 C5.8,109 7.1,107.6 8.5,105.9 C8.6,105.8 11.5,102.2 9.6,102.2 C9.6,102.2 8.7,103.2 8.6,103.1 C8,101.8 9.8,102.2 10.4,101.8 C11.2,101.3 11.1,100.7 11.9,99.9 C13.5,98.2 17,97 17,94.9 C17,94.8 17.9,94 18.1,93.4 C19.2,92.9 20.3,91 21.3,90.2 C22.8,88.9 24.3,87.8 25.8,86.5 C28.9,83.8 31.8,80.9 34.9,78.2 C37.7,75.7 40.7,73.4 43.5,70.9 C44,70.5 47.6,67.1 46,66.7 C47.2,65.7 46.3,66.6 47.1,66.8 C47.1,66.8 49.3,65.1 49.6,64.9 C51.3,63.7 52.2,62.1 53.6,60.8 C55.5,59 57.9,59 60,57.5 C63.5,55.1 66,52.5 70.3,51.8 C71.6,51.6 78.5,53.3 78.5,52 C78.5,52 78.8,52.6 79.4,52.7 C80.2,52.8 81,53.1 81.8,53.3 C83.2,53.8 85.6,54.3 86.5,55.3 C87.4,56.3 87.5,58.4 87.7,59.7 C88.1,62 88.6,64.2 89.3,66.4 C91.1,72.4 92.8,78.8 93.7,85 C94.1,87.5 94.5,89.7 95.1,92.1 C95.2,92.6 96,95.5 96,95.5 C94.5,96 96.1,103.1 96.3,104.9 C96.6,107.7 95.2,115.1 98,116.4 C98,116.3 98.1,115.2 98.1,115.3 C99.5,115.8 97.9,116.4 97.8,117 C97.5,117 97.3,117.2 97.1,117.4 C97.2,117.7 97.4,117.9 97.6,118.2 C97.2,119.8 95.9,124.3 96.6,125.9 C97.2,125.3 96.5,127.8 97.4,127.8 C96.7,127.8 96.1,133.2 95.8,134.7 C94.8,139.1 94.2,143.6 92.6,147.9 C92.2,148.9 86.6,160.7 87.8,160.7 C87.1,162.1 87.4,160.9 86.7,160.9 C85.3,160.9 82.9,166.4 82.4,167 C81.9,167.5 80.5,168.6 79.9,168.9 C79.4,169.1 78.2,169.1 77.6,169.3 C76.5,169.7 75.6,170.6 74.5,171 C71.3,172.3 65.8,172.9 62.7,172.5 C61.4,172.4 54.2,173 53.8,171.5 C52.8,170.1 49.4,169.6 48.4,168.4 L48.4,168.4 Z M62.7,89.6 C62.8,89.5 62.9,89.4 63.1,89.3 C63.7,89.3 63.2,89.5 62.7,89.6 Z M64.1,89.4 C64.1,89.6 63.7,89.6 63.6,89.4 C63.6,89.2 64.1,89.2 64.1,89.4 Z M77.1,110.8 C77,110.8 76.6,110.5 76.6,110.5 C76.5,110 77.4,110.4 77.1,110.8 Z M44.4,108.9 C44.3,109.2 44,109 43.8,108.8 C44,108.7 44.2,108.8 44.4,108.9 Z M89,159 C88.8,159.3 88.5,159.3 88.4,158.9 C88.6,158.8 88.8,158.8 89,159 Z M65.5,173 C65.5,173.1 64.8,173.4 64.7,173.3 C64.4,173 65.4,172.4 65.5,173 Z M62.5,192.5 C62.5,192.8 62.4,192.9 62.2,192.8 C62.2,192.5 62.3,192.4 62.5,192.5 Z M62.9,193.3 C62.7,193.4 62.5,193.5 62.3,193.3 C62.6,192.7 63.2,193 62.9,193.3 Z M68.9,219.6 C69.1,219.3 69.3,219.9 69.3,220 C69.2,220.4 68.6,219.7 68.9,219.6 Z M60.2,233.1 C60.4,233.1 60.6,233.2 60.7,233.4 C60.5,233.4 60.1,233.1 60.2,233.1 Z M55.1,245.9 C56.4,244.2 57.2,242.1 58.4,240.2 C58.9,239.4 63.5,232.7 61.3,232.4 C61.5,231.6 61.9,232.4 62.2,232.4 C63.3,232.6 63.4,229.2 63.5,228.9 C64,227.5 65.3,227.1 66.4,226 C67.7,224.8 68.2,221.5 69.7,220.7 C71,219.9 73.6,221.6 75,222.1 C80.6,224 84.5,226.5 88.8,230.5 C90.9,232.5 93.3,234.2 94.9,236.7 C95.7,238 99.4,242.2 99.2,243.5 C99,244.4 95.8,246.4 95,246.8 C93,247.9 91.4,249.3 89.5,250.7 C85.7,253.4 82,256.8 78.7,259.6 C77.8,260.4 76.4,261.1 75.4,261.8 C74.5,262.5 72.5,264.7 71.4,264.8 C70.6,264.9 68.2,262.8 67,262.1 C65.6,261.3 64.3,260.4 63,259.5 C62.6,259.4 62.2,259.3 61.8,259.3 C61.6,258.9 61.3,258.4 61.1,258 C60,259.3 54.7,250.7 52.8,249.2 C52.8,249.2 52.9,249.1 53.2,249 C52,249.3 54.9,246 55.1,245.9 L55.1,245.9 Z M97.9,247.5 C97.6,247.6 97.2,247.1 97.5,246.9 C97.6,247 98.2,247.4 97.9,247.5 Z M71.1,267.3 C70.9,267.5 70.8,267.5 70.6,267.3 C70.5,267.1 71.1,267 71.1,267.3 Z M69.7,267.5 C69.8,267.3 69.9,267.2 70.1,267.2 C70.8,267.3 70.3,267.4 69.7,267.5 Z M52.6,249.1 C52.5,249 52.4,249 52.4,248.9 C52.5,249.1 52.6,249.1 52.6,249.1 Z M49,254.4 C49,254.6 48.9,254.8 48.7,254.9 C48,255.1 48.4,254.7 49,254.4 Z M46.6,284.8 C46.6,284.8 46.1,285.3 46,285 C45.9,284.5 46.7,284.7 46.6,284.8 Z M50.5,288.3 C49.4,286.5 48.4,284.4 47.7,282.4 C46.8,279.8 45.7,277.2 44.9,274.4 C44.5,272.9 43.7,271.1 43.7,269.6 C43.7,268.5 45.4,265.8 44.7,264.8 C45,265.2 47.4,260.2 47.7,259.6 C48.2,258.6 49.4,257.4 49.7,256.3 C49.7,256.2 50.4,253.8 49.3,254.3 C49.9,254 50.4,253.9 50.2,254.3 C50.5,253.7 50.2,253 50.8,252.5 C51.2,252.1 51.8,251.9 52.1,251.3 C52.9,251.7 54,254 54.6,254.8 C56,256.7 57.3,258.9 58.9,260.5 C60.6,262.3 62.5,262.5 64.6,263.7 C65.3,264.1 65.8,264.8 66.5,265.2 C67.4,265.6 68.8,265.3 69.6,265.9 C69.1,266.1 69,267.3 69.5,267.6 C69.1,267.6 68.7,267.6 68.5,267.5 C68.5,267.8 68.4,268.1 68.3,268.4 C67.9,268.5 67.6,268.6 67.2,268.6 C66.6,269 65.6,269.1 65.1,269.7 C64.5,270.4 64.6,270.6 64.5,271.3 C64.3,272 65.4,273 64.7,272.4 C64.5,272.8 65.4,274.1 65.6,275 C66.2,277.7 66.9,280 67.6,282.7 C65.7,282.3 60,288.2 58.9,289.4 C58.3,289.9 54.9,294.7 56,294.7 C55.4,294.7 55,294.3 54.7,293.8 C54.3,292.1 51.3,289.7 50.5,288.3 L50.5,288.3 Z M69.9,294.7 C69.7,294.8 67,298.1 68.8,298.3 C67.9,298.3 66.8,300 67.7,300.7 C66.4,300.2 64.7,300.9 63.7,300.9 C62.6,300.9 61.5,300.7 60.4,300.7 C59.4,300.7 58.3,300.6 57.4,300.6 C56.7,300.6 56.6,301.5 55.6,301.1 C54.2,300.5 55.2,300.4 55.3,299.7 C55.5,298.4 57.1,297.1 57.8,296 C58.8,294.5 60,292.5 60.7,291.3 C61.8,289.6 67.8,286.1 67.9,284.3 C69.1,285.1 68.8,287.7 69.8,288.8 C70.4,289.5 71.8,289.6 72.2,290.5 C72.5,291.2 71.9,291.7 72.3,292.2 C71.9,291.6 70.1,294.5 69.9,294.7 L69.9,294.7 Z M75.2,290.5 C76,290.5 75.8,291.8 76.4,292 C77.1,292.1 78,291.3 78.5,291.5 C79.6,291.9 80.2,293.8 81,294.4 C81.3,294.6 85.1,297.1 84.7,297.4 C84.4,297.6 83.7,296.8 83.3,297 C83.1,297.1 82.9,297.2 82.8,297.3 C82.7,297.2 82.5,297.2 82.4,297.2 C82.3,297.2 82.2,297.2 82,297.3 L81.9,297.3 C81.5,297.5 81.1,297.7 80.8,297.9 C80.4,297.7 80,297.6 79.6,297.5 C78.1,297.5 76.6,297.4 75.2,297.4 C74.4,297.4 73.3,297.7 72.5,297.5 C72,297.3 72,296.9 71.5,296.7 C71.8,296.6 72.1,296.5 72.4,296.3 L71.8,295.1 C72.4,295.6 75.5,291 75.2,290.5 L75.2,290.5 Z M84.5,296.8 C84.5,296.6 85.3,297.2 85.3,297.2 C85.2,297.2 84.6,297.1 84.5,296.8 Z M117.3,303 C117.1,302.8 117.1,302.7 117.1,302.4 C117.4,302.5 117.5,302.8 117.3,303 Z M139.8,303.8 C139.3,304.3 139.5,302.8 140,303.3 C140.1,303.6 140.1,303.8 139.8,303.8 Z M158.9,301.5 C157.1,302.5 153.8,301.7 151.9,301.6 C147.1,301.3 142.1,300.9 137.3,300.8 C135.9,300.8 134.3,301.3 133.3,301.5 C132,301.7 130.5,301.5 129.2,301.5 C123.4,301.5 117.6,301.5 111.8,301.4 C107.1,301.3 102.2,301.8 97.6,301.5 C95.7,301.4 94.2,301 92.1,301.2 C89.6,301.5 87.6,300.8 85.1,300.7 C83.9,300.6 77.3,301.8 76.8,300.3 C76.3,301.4 71.3,300.4 70.2,300.7 C69.9,299.1 72.1,299.5 73,299.5 C74.1,299.5 75.5,299 76.4,299 C77.5,299 78.8,299.6 79.9,299.7 C81.2,299.8 81.8,299.9 82,299.5 C82.1,299.6 82.2,299.6 82.3,299.6 L82.3,299.8 C83.9,298.6 87.8,300.1 88.3,297.3 C88.6,295.5 86.3,293.9 85.1,293.2 C83,292 80,290.7 77.7,289.5 C73.8,287.5 71.8,287 70.5,282.5 C69.8,280.2 68.8,278 68.1,275.8 C67.9,275.3 67.3,271.7 66.7,271.7 C67.7,271.7 70.8,268.4 69.2,268.1 C71.7,269.1 73,266.8 74.5,265.6 C74.9,265.2 75.6,265.1 76,264.6 C76.3,264.3 76.9,263.1 77.1,263 C77.5,262.7 78.2,262.8 78.8,262.5 C79.2,262.3 79.3,261.8 79.1,261.9 C79.2,261.9 83.2,258.5 82.9,258.5 C83.2,258.6 83.4,258.7 83.7,258.8 C83.7,258.6 83.6,258.4 83.4,258.3 C83.5,258.8 90.2,253.1 90.3,253.1 C91.3,253.4 93.6,251.2 94.8,250.4 C96,249.6 100.9,246.9 100.8,245 C102.6,247.2 104.8,240.8 105.4,241 C107.2,241.7 109,238.6 110,237.7 C111.5,238.6 112.3,241.6 113.1,243.1 C114.1,244.8 115.1,246.5 116.2,248.1 C116.6,248.6 121.4,255.6 122.2,253.7 C123.1,254.6 122.2,254.1 122,254.7 C121.6,255.8 126.2,258.8 126.8,259.4 C128.7,261.1 129.3,263.4 131.4,265.2 C133.7,267.2 136.4,268.5 138.9,270.2 C141,271.6 142.1,273.3 143.6,271.9 C143.6,272 143.5,272.1 143.5,272.3 C143.1,274.7 157.3,280.7 159.3,280.1 C159,285.9 159.7,291.6 160,297.3 C160.1,299.5 160.6,300.6 158.9,301.5 L158.9,301.5 Z M101,220.1 C101.2,219.7 101.6,220.4 101.4,220.5 C101.1,220.7 101,220.1 101,220.1 Z M102,221.7 C102.1,221.7 102.2,221.8 102.3,221.7 C101.9,221.7 103,223.8 101.7,222.5 C102,222.2 102.3,222 102,221.7 Z M102.8,223.7 C103.1,223.7 103.6,223.9 103.7,224.2 C102.9,223.9 103.3,224.2 102.8,223.7 Z M121.1,252.5 C121.1,252.3 121.2,252.1 121.4,252 C121.6,252.3 121.4,252.5 121.1,252.5 Z M137.9,269.3 C138,269.2 138.6,269.3 138.6,269.4 C138.7,269.9 137.7,269.7 137.9,269.3 Z M160.9,296.4 C160.9,296 161.2,295.9 161.5,296.1 C161.3,296.4 161.1,296.5 160.9,296.4 Z M161,268.3 C161.3,268 161.8,269 161.3,269.1 C161.2,269.1 160.9,268.4 161,268.3 Z M152.9,333.3 C153,333.2 153.6,333.1 153.6,333.3 C153.5,333.6 152.7,333.5 152.9,333.3 Z M151.7,350.4 C151.2,350.9 150.8,349.8 151.5,349.8 C151.6,349.9 151.8,350.4 151.7,350.4 Z M152,350.5 C151.7,350.3 151.8,350.2 152,350.1 C152.3,350.3 152.3,350.4 152,350.5 Z M174.3,347.7 C170.8,347.5 167,347.7 163.5,348 C160.4,348.2 158.1,348.1 155,347.9 C147.8,347.5 139.9,347.7 132.9,346.2 C129,345.4 131.5,344.6 133.8,343.3 C134.4,343 137.9,341.1 137.9,341.1 C138.9,342.6 147.1,337.8 149.1,337.2 C148.2,337.5 149.5,338.5 148.5,339 C148.1,339.4 149.8,340.1 150.2,339.9 C149.9,340.1 149.7,340.5 149.8,340.9 C151.5,341.3 151.4,341.2 152.7,340.1 C152.4,340 152.2,339.9 152,339.7 C152.1,339.5 152.2,339.4 152.4,339.3 C152.3,338.9 152.2,337.8 151.3,338.2 C151.5,338 151.6,337.8 151.7,337.6 C151.3,337.7 151,337.7 150.6,337.7 C151.6,337.2 150.6,336.1 150.1,336.2 C151.6,334.9 154.2,335.5 155.4,335.1 C154.6,335.3 155.6,336.4 154.8,336.9 C154.4,337.3 156.1,338 156.5,337.8 C156.2,338 156,338.4 156.1,338.8 C157.8,339.2 157.7,339.1 159,338 C158.7,337.9 158.5,337.8 158.3,337.6 C158.4,337.4 158.5,337.3 158.7,337.2 C158.6,336.8 158.5,335.7 157.6,336.1 C157.8,335.9 157.9,335.7 158,335.5 C157.6,335.6 157.3,335.6 156.9,335.6 C158.3,334.9 156.4,334.1 156.4,334.1 C156.4,333.8 156.5,333.6 156.6,333.3 C156,333.4 155.5,332.5 155,332.4 C155.5,332.5 156.3,333.1 156.9,333.1 C157.7,333 157.7,332.2 158.3,332 C160.5,331.3 162.8,331.6 165,331.9 C166.8,332.1 166.7,332.4 168.2,333 C169.4,333.5 170,333.9 170.3,333.7 C170.4,333.9 170.5,334.1 170.7,334.2 C170.7,334.4 170.8,334.5 170.9,334.6 C171.3,335 175,335.1 174.7,334.1 C175,335.3 176.4,334.8 177.2,334.7 C176.9,336.4 177.4,338 177.5,339.7 C177.6,341.1 177.2,342.5 177.2,343.9 C177.1,347.9 178.8,348 174.3,347.7 L174.3,347.7 Z M176.6,330 C176.6,330.6 176.6,331.2 176.7,331.8 C176,333 176.5,332.5 175.2,332.5 C173.8,332.5 171.8,332.2 171.1,331.6 C171.2,331.7 171.1,331.9 171,332.2 C170.9,332.2 170.9,332.1 170.8,332.1 L170.7,332.1 L170.7,332 C170.4,332.1 170,332.2 169.7,332.3 C170,331.7 164.2,329.4 163.6,329.9 C163.7,329.4 163.7,328.9 163.6,328.4 C163.5,328.5 163.5,328.5 163.4,328.5 C163.4,328.3 163,327.4 162.8,327 C163,327.2 163.1,325.2 163.1,325 C163.1,323.8 162.6,321.5 163.2,320.4 C164.2,320.7 165.6,320.9 166.1,321 C166.7,321.2 167.2,321.7 167.9,321.9 C168.3,322 168.7,322 168.9,322 C169.1,322.2 169.4,322.3 169.7,322.3 C169.9,322.5 170.1,322.7 170.6,322.8 C171.1,322.9 173.7,322.6 173.3,321.7 C173.8,323.2 175.5,321.4 176.2,322 C177.5,323 176.4,327.3 176.6,328.6 C176.7,328.6 178.1,328.2 177.9,328.7 L176.6,330 Z M176.8,281.1 C176.8,280.7 177.1,280.5 177.4,280.8 C177.2,281 177,281.1 176.8,281.1 Z M178,333 C177.7,333.1 177.5,332.2 178,332.4 C178.1,332.4 178,333 178,333 Z M160.5,391.8 C160.9,391.3 161.4,391.7 161.1,392.2 C161.1,392.2 160.2,392.3 160.5,391.8 Z M160.6,392.3 C160.7,392.6 160.6,392.7 160.3,392.7 C160.1,392.4 160.2,392.3 160.6,392.3 Z M155.6,405.5 C154.8,406.2 155.6,404.5 156,405.1 C155.8,405.2 155.7,405.3 155.6,405.5 Z M180.9,391.2 C180.6,391.1 180.5,391 180.6,390.7 C181,390.8 181.3,391.3 180.9,391.2 Z M196.2,376.7 C193.6,379.6 190.1,382 187,384.3 C186.3,384.8 177,391.6 178.8,392.1 C177.5,392.9 178.4,392.2 177.7,392 C176.6,391.6 171.9,396.3 171.4,396.8 C169.6,398.4 168.2,398.7 166,399.5 C163.6,400.3 161.3,402.5 159,403.7 C157.2,404.6 156.8,405.1 155.8,404.7 C156.9,405 161.4,396.2 162,395.2 C164.6,390.8 166.9,385 170.8,381.7 C170.6,381.9 170.9,383.3 171.2,383.2 C171.5,382.9 172,382 172.4,381.6 C172.3,381.6 172.3,381.7 172.2,381.7 C173,380.9 171.8,380.3 171.4,380.7 C171,379.5 173.4,376.8 174.2,376.2 C173.7,376.6 174.8,377.8 174.8,377.8 C175.4,377.2 175.9,376.6 176.5,376.1 C176.3,376.2 176,376.2 175.8,376.3 C176.6,375.5 175.2,374.8 174.8,375.1 C176.8,372.4 178.8,369.6 180.2,366.6 C181,368 184.1,367.8 185.5,368.4 C186.8,368.9 189.2,370.9 189.7,369.4 C189.6,371.7 191.3,370.8 193.6,370.3 C194.5,370.1 195.1,370.1 196,370 C196.9,369.9 198.4,369.2 199.3,369.2 C199.3,369.5 199.2,369.9 199.2,370.2 C200,372 197.3,375.3 196.2,376.7 L196.2,376.7 Z M202.1,357.1 C201.5,357.3 200.9,360.6 201,361.1 C201.1,361 201.2,361 201.3,361 C201.4,361.2 201,362.4 201.1,363 C200.7,363.9 200,366.5 200.1,367.5 C198.4,366.3 192.7,367.2 190.8,367.4 C189.5,367.6 189.3,367.5 188.3,367.3 C187,367 185.6,366.3 184.3,365.9 C183.4,365.6 181.8,365.6 181.1,364.8 C180.4,363.9 181,361.7 180.9,360.6 C180.8,359.1 180.3,357.8 180.2,356.4 C180.1,355.5 180.6,354.2 180.1,353.4 C179.9,353 183.5,354.5 184.4,354.7 C185.2,354.9 185.5,354.5 186.2,354.7 C187.1,354.9 188,355.4 188.8,355.8 C190.2,356.4 191.3,357.1 192.7,357.2 C193.1,357.2 197.6,356.5 197.3,356.1 C198.5,357.8 201.1,355.9 202.4,355.6 C202.7,356.2 202.5,356.7 202.1,357.1 L202.1,357.1 Z M205.2,348.7 C204.9,348.9 205,348.1 205.3,348 C205.7,347.9 205.3,348.6 205.2,348.7 Z M207.6,319.3 C207.4,320.4 207.9,327.3 207.2,327.7 C205.8,327.7 205.3,336 205.1,337.8 C204.8,340.3 204.4,342.7 203.8,345.2 C203.2,347.4 202.1,349.4 204.1,350.9 C204.3,350.6 204.5,349.6 204.9,349.6 C205.4,349.5 203.7,351.6 203.7,351.6 C203.4,352.5 203.8,353.7 203.5,354.4 C201.9,353.2 198.8,353.9 196.8,353.9 C195.8,353.9 194.5,354.1 193.6,354.1 C193.1,354.1 192.3,353.9 191.8,353.8 C191.7,353.8 190.6,353.9 190.3,353.9 C189.5,353.9 187.9,353.2 187.1,353 C185.2,352.5 182.4,351 180.5,351.7 C179.8,347.1 180.2,342.2 180,337.5 C179.9,334.9 181.3,331.3 178.6,330 C178.6,330 178.6,331.4 178.5,331.4 C177.2,330.7 178.9,330.1 178.9,329.5 C179,328.8 178.9,327.9 178.9,327.1 C178.9,324.7 180.3,321.7 179.4,319.4 C178.9,319.9 179,318.4 178.8,317.7 C179.2,316.5 178.7,314.5 178.7,313.2 C178.8,311.2 179.1,309.2 179.1,307.3 C179.2,303 178.9,298.7 178.8,294.5 C178.8,290.7 178.9,287 178.8,283.3 C178.8,282.6 178.6,277.7 177.2,278.6 C177.3,277.5 177.8,278 178.1,276.9 C178.5,275.1 178.3,272.7 178.2,271 C178.1,267.5 178.9,265.5 182.3,263.8 C181.2,266.8 185.3,271.8 186.6,274.3 C188.6,278.1 191.6,281.4 194.1,285 C196.8,289 199.9,292.7 203.1,296.2 C204,297.2 210.5,302.1 210.2,303.8 C209.4,308.9 208.5,314.1 207.6,319.3 L207.6,319.3 Z M206.5,271.3 C206.8,271.2 206.9,271.3 206.9,271.6 C206.6,271.7 206.5,271.6 206.5,271.3 Z M207,272.2 C207,272 207,271.8 207.1,271.6 C207.3,271.7 207.5,271.9 207.7,272 C207.5,272.2 207.3,272.3 207,272.2 L207,272.2 Z M263.7,301.1 C263.4,301 263.5,301.8 263.1,301.3 C262.9,300.8 264,301.1 263.7,301.1 Z M266,301 C265.6,301.1 265.4,301.2 265,301.2 C265,300.8 266.2,300.9 266,301 Z M266.4,301 C266.3,300.9 267,301 267.1,301.2 C266.8,301.1 266.6,301.1 266.4,301 Z M267.4,300.4 C264.9,299.7 263.5,300.1 260.9,300.6 C259.3,300.9 257.7,301.3 256.2,300.7 C254.8,300.2 253.7,298.8 252.2,298.3 C251.8,298.2 250.6,298.2 250.3,298 C249.5,297.6 250.3,297.5 249.6,297 C248.1,296.1 237.5,289.9 237.6,289.8 C237.2,290.5 236.2,289.2 235.3,288.6 C233.9,287.6 232.4,286.7 231,285.8 C228.1,283.9 225,282.5 222.4,280.5 C218.7,277.7 214.4,275.1 210.4,272.6 C209.4,271.9 201.5,265.8 200.8,268.6 C200.7,268.5 201.4,267.5 201.5,267.4 C198.4,266.7 195.6,263.8 192.9,262.2 C189.9,260.5 186.6,259.5 183.2,260.5 C175.4,262.7 175.4,272.2 175.6,278.7 C175.8,287.6 175.7,296.5 176.1,305.3 C176.2,307.5 176.3,309.8 176.4,312 C176.5,313.6 177.2,317.4 176.5,318.9 C175.9,320.2 175,319.5 173.4,319.4 C172.9,319.4 171,319 170.7,319.8 C170.6,319.8 170.5,319.8 170.5,319.7 C170.4,319.5 170.2,319.4 170,319.2 C170,319.4 170,319.5 169.9,319.6 C169.8,319.6 169.6,319.6 169.5,319.7 C169.5,319.7 169.6,319.6 169.7,319.6 C168.9,319.9 166.8,319.2 165.3,318.8 C163.1,318.2 163.5,317.9 163.4,315.4 C163.3,312.9 163.1,310.3 163.1,307.8 C163,304.8 163,301.7 162.9,298.7 C162.9,298 162.9,292.9 161.4,294 C161.2,292.5 161.6,293.7 162.2,293.3 C163.5,292.5 161.2,285.1 161.6,283.4 C162.4,279.2 162.8,274.5 162.2,270 C160.8,260.7 161.9,250.3 160.8,240.4 C159.1,242.9 159.1,246.2 159.3,249.1 C159.5,252.6 159.3,256 159.2,259.5 C159.1,262.9 159,266.1 159.2,269.5 C159.3,271 158.2,275.5 159.7,276.4 C159.2,276.1 159.4,278.5 159.5,278.8 C156.3,277.1 152.9,276.3 150,274.2 C149.4,273.8 145.9,270.8 144.4,271.4 C144.5,271.2 144.7,271 144.9,270.8 C142.8,270.5 140.5,268.2 138.9,266.9 C137.4,265.6 135.5,264.5 134.2,263.7 C129.9,261 126.3,256.1 123.1,252.3 C118.7,247.2 115.7,241.3 112.2,235.6 C109.5,231.2 108.1,225.7 104.2,221.8 C104.2,221.9 103.2,222.7 103.2,222.6 C103.2,219.1 100.2,218.2 97.5,216.7 C96.4,216 95.4,214.9 94.2,214.4 C93.6,214.2 92.7,214.3 92.3,214.1 C91.3,213.6 90.2,212.4 89.6,212 C88.7,211.5 87.9,210.8 87,210.3 C86.3,209.8 85.4,209.4 84.7,209 C84.2,208.8 83.9,208.1 83.6,207.9 C83.3,207.9 83.2,208.1 83.3,208.3 C83,208.5 75.7,203.3 74.9,202.8 C74.4,202.5 73.8,202.2 73.4,201.8 C73.1,201.5 73.7,201.3 73.4,201 C72.3,200 70.6,199.5 69.5,198.5 C66.4,195.6 63,192 60.3,188.6 C59.2,187.2 58.6,185.7 57.5,184.3 C56.8,183.4 55.7,182.7 55.3,181.7 C54.9,180.7 55.2,179.2 54.8,178 C54.6,177.4 54.1,176.9 53.9,176.2 C53.7,175.7 53.8,174.2 53.5,173.8 C59.6,176.2 68.4,176.6 74.1,173.8 C77.2,172.3 80,171.2 82.7,168.8 C86.9,165 89,160 92.4,155.6 C92.9,157.2 96.4,157.3 97.6,157.1 C99.9,156.8 101.3,155.6 102.8,154 C104,152.8 104.5,152.5 104.9,150.7 C104.9,150.5 105.4,146.5 104.8,146.7 C106.9,145.8 105.7,141.5 105,140 C103.2,141.8 103,144 102.6,146.4 C102.4,147.4 102.4,148.7 102,149.7 C101.9,150 101.1,151.3 101.1,151.4 C102.6,152.2 99.5,154.4 98.7,154.7 C96.6,155.6 94.6,153.8 92.7,154.5 C95.8,147.5 98.1,139.8 98.7,132.1 C99,132.6 100.5,132.7 100.8,132.2 C99.8,133.4 109.2,134.9 109.8,135 C110.5,135.1 120.4,137.4 120.8,136.6 C120.8,136.4 120.9,136.2 120.9,136.1 C121.2,136.7 126.4,137.3 125.5,135.1 C125.7,135.5 125.6,136.5 126.2,136.6 C126.7,136.7 128.1,136.6 128.3,136.1 C128.4,136.2 129.4,136.2 129.4,136.2 C129.8,136.2 129.9,135.4 130.2,135.3 C129.6,135.7 132.1,136.5 131.3,135.7 C131.4,135.7 133.8,135.4 133.7,135 L134,135.6 L134,135.2 C134.5,135.8 138.2,134.2 138.1,134.1 C138.1,134.3 138.2,134.5 138.3,134.7 C138.3,134.6 148.1,131.5 146.7,130 C147.2,130.5 147.8,130 148.4,129.9 C149,132 148.8,134.2 149.2,136.3 C149.3,136.2 150.5,136.2 150.5,136.2 C148.6,138.6 149.8,140.6 150.1,143.4 C150.2,144.1 150,144.9 150.1,145.6 C150.2,146.9 150.7,147.2 151,148.3 C151.1,148.6 150.5,151.2 150.5,151.4 C150.5,152.3 150.4,153.2 150.4,154.2 C150.4,155 150.4,155.8 150.5,156.6 C150.5,157 150.1,157.8 150.1,157.9 C150.3,158.1 150.5,158.1 150.7,158 C150.7,158 150.3,166.3 150.2,167 C150.1,168.1 149.6,168.6 149.5,169.1 C149.2,170.4 149.6,171.9 149.4,173.2 C148.9,176.5 148,179.9 147.6,183.3 C147.4,185.4 147.2,187.5 147,189.7 C146.9,191.6 145.1,195.5 145.7,197.2 C144.6,196.3 143.9,190.1 141.6,192.1 C141.2,191.7 142,191.6 142.2,191.5 C143.1,190.9 140.6,188.8 140.2,189.4 C140.2,189.2 140.3,189 140.5,188.9 C140.1,189.3 140.3,188.2 140.3,188.2 C140.3,188.5 140.5,187.8 140.4,187.4 C140.1,186.2 139.3,185.1 138.6,184.2 C137.9,183.3 136.1,179.8 135.1,180 C135.9,179.6 133.3,175 133.2,175 C132.2,174.7 131.8,173.9 130.6,173.9 C130.3,175 131.2,178.1 132.8,177.9 C131.8,178 137.9,188.6 138.2,189.3 C139.5,192 141.3,194.4 142.4,197.2 C142.7,197.9 144.4,202.6 144.9,202.6 C145.1,202.5 145.3,202.5 145.4,202.5 C145,203.4 148.1,209.4 149.2,207.5 C148.6,208.3 148.8,211.8 149.9,211.3 C149.9,211.5 150.4,212.6 150.4,212.6 C150.8,213.3 151.1,212.9 151.7,213.3 C150.9,212.7 151.9,215.8 151.9,214.8 C151.8,215.4 153.8,217.7 153.8,217.6 C153.6,217.8 153.5,218 153.3,218.2 C153.4,218.2 153.5,218.1 153.7,218.1 C153.3,218.9 156.6,222.8 156.5,223 C156,223.5 157.6,226.7 158.1,227.7 C158.4,228.2 162.5,234.4 163,233.8 C161.9,235.2 165.7,236.5 163.6,236.6 C169.6,242.6 173.7,230.5 177.9,228.7 C180.8,227.4 184.5,227.6 187.6,227.5 C189.5,227.4 191.4,227.2 193.3,227 C194.2,226.9 195.1,226.5 196,226.8 C196.4,226.9 197.2,227.6 197.6,227.5 C196.9,227.6 197.1,232.8 199.1,231.6 C198.3,232.2 198.5,232.3 198.7,232.3 C198.5,232.4 198.1,232.4 197.6,232.6 C196.7,232.8 195.5,232.6 194.6,232.7 C192.7,232.9 190.7,233.1 189.6,234.8 C192.3,235.9 195.8,234.6 198.7,234.8 C200.2,234.9 201.6,235.2 203.1,235.5 C206.1,236 208.8,235.6 211.5,235.9 C216.1,236.4 220.9,237.2 225.4,238.2 C227.3,238.6 229.2,239.2 231.1,239.8 C231,239.8 235.2,240.9 234.6,240.1 C235.5,241.4 244,242.8 243.4,241.5 C244.3,243.7 246,243.4 248.1,244.1 C248.5,244.2 249.1,244.8 249.8,244.9 C250.6,245 251.1,244.7 251.8,244.7 C251.9,244.7 253,246.1 253.3,246.3 C252.9,246.1 254.6,246.6 255,246.7 C255.7,246.9 256.5,247 257.3,247.1 C257.7,247.2 258.4,248 258.2,248 C258.4,247.9 258.5,247.7 258.4,247.5 C258.1,247.9 262.9,249.5 263.1,249.5 C263.9,249.7 264.8,249.9 265.5,250.2 C266.1,250.5 265.5,250.8 265.9,250.9 C267.4,251.6 268.7,251.9 270.2,252.6 C271.7,253.4 274.6,255.1 276.4,255.1 C276.9,255.1 277.3,255 277.6,254.7 C277.6,255.1 277.7,255.5 278.2,255.9 C279.1,256.7 281.1,256.4 282.1,256.6 C283.7,256.9 286.4,259 288.1,258.4 C285.6,274 285.8,292.2 268.5,298.9 C268.2,299.1 267.8,299.2 267.5,299.4 C267.1,299.2 267.9,300.5 267.4,300.4 L267.4,300.4 Z M141.6,193 C141.5,193.1 141.1,193.3 141.1,193.2 C141.3,193 141.4,193 141.6,193 Z M136.6,183 C136.5,182.7 137,182.7 137.2,182.8 C137.4,183 136.5,183.2 136.6,183 Z M292.7,302.4 C292.5,302.4 292.4,302.3 292.2,302.2 C292.1,301.7 293.1,302.3 292.7,302.4 Z M335.2,303 C335,302.9 334.9,302.7 335,302.4 C335.4,302.5 335.5,302.8 335.2,303 Z" id="Shape"></path>
            </g>
        </g>
    </g>
</svg>