<svg viewBox="0 0 623.06 623.12" xmlns="http://www.w3.org/2000/svg"><g fill="#13b4e9"><path d="m311.41 623.12c-173.01-.01-312.21-139.64-311.41-313.87.79-171.64 140.61-310.02 313-309.25s313.11 142.16 310 317.4c-3 169.3-141.26 305.82-311.59 305.72zm-32.48-304c15.83 0 31.66.22 47.49-.07 13.29-.24 21.21-10.15 18.6-22.59-7.77-37-40.8-60.58-78.08-55.63-39.83 5.28-66.61 42.95-59.44 83.61 6.78 38.42 45.81 64.16 84 55.53 17.19-3.88 30.72-13.16 41.13-27.18 4-5.4 3.29-11.91-1.46-15.65s-10.42-2.85-14.91 2.35c-.77.88-1.44 1.84-2.19 2.73-12.35 14.94-28.29 21-47.15 17.28-19.7-3.89-32-16.68-38.23-35.52-1.16-3.5-.46-5 3.76-4.92 15.49.21 30.99.06 46.48.06zm275.51-9.22c0-38.94-31.24-70.64-69.73-70.78s-70.27 31.79-70.27 70.88 31.3 70.59 69.82 70.61c39.01-.03 70.18-31.41 70.18-70.71zm-355.88 71.19a9.07 9.07 0 0 0 6.1-1.9c5.39-4 5.58-11.14.35-16.45-15.66-15.9-31.28-31.85-47.1-47.59-3.36-3.34-3.92-5.24-.1-9 15.74-15.35 31.07-31.13 46.56-46.74a15.64 15.64 0 0 0 3.64-4.71 10.53 10.53 0 0 0 -3.34-12.52c-4.55-3.28-9.46-2.8-13.93 1.66q-24.39 24.39-48.63 48.91c-2.37 2.41-3.58 2.68-6.17 0-16.08-16.43-32.41-32.61-48.64-48.9-3-3.05-6.44-4.65-10.79-3.26-8.11 2.58-9.87 11.79-3.32 18.42 15.69 15.88 31.4 31.74 47.3 47.4 3.09 3.05 3.57 4.67.18 8-15.9 15.67-31.48 31.66-47.13 47.56-5.29 5.37-5.74 12-1.25 16.3s10.57 3.59 15.83-1.69c15.88-15.93 31.82-31.81 47.54-47.88 2.77-2.84 4.23-2.76 6.94 0 15.67 16.12 31.55 32 47.34 48.06 2.41 2.58 4.98 4.57 8.62 4.33zm164-70.38q0 26.24 0 52.46c0 2.33 0 4.67.27 7 .63 6.59 4.54 10.16 10.73 9.95 5.87-.19 9.66-4.39 9.67-11 0-24.15 0-48.3 0-72.45a103.66 103.66 0 0 1 1.07-17.42c1.46-8.63 6.19-14.22 14.78-16.17 3.39-.77 6.89-1 10.35-1.48 6.44-.83 10.13-4.58 10.06-10.25-.09-6-4.1-9.85-10.61-10.24a38.9 38.9 0 0 0 -22.88 5.49c-2.26 1.38-3.3 1.33-5.12-.85-4.75-5.66-12.95-5.09-16.54.82-1.61 2.66-1.78 5.64-1.78 8.67q.06 27.76.02 55.47z"/><path d="m275.42 298.57c-14 0-28-.14-42 .09-4.2.06-5-.82-3.56-4.89 7-19.48 26.14-33 46.85-32.76a50 50 0 0 1 46.08 33.14c1.41 4 .06 4.49-3.43 4.47-14.63-.11-29.28-.05-43.94-.05z"/><path d="m484.88 260.82c26.78 0 48.72 22.37 48.54 49.39a49.22 49.22 0 0 1 -49.1 48.91c-27 0-48.85-22.32-48.73-49.74a48.87 48.87 0 0 1 49.29-48.56zm-.28 31.18a18 18 0 1 0 17.83 18.1 17.85 17.85 0 0 0 -17.83-18.1z"/></g></svg>